ISO-10303-21;
HEADER;
FILE_DESCRIPTION (( 'STEP AP203' ),
    '1' );
FILE_NAME ('V2_06_horn_coupler.STEP',
    '2026-09-18T10:17:36',
    ( '15300530775@163.com' ),
    ( '' ),
    'SwSTEP 2.0',
    'SolidWorks 2026',
    '' );
FILE_SCHEMA (( 'CONFIG_CONTROL_DESIGN' ));
ENDSEC;

DATA;
#1 = CIRCLE ( 'NONE', #408, 19.00000000000000000 ) ;
#2 = VECTOR ( 'NONE', #322, 1000.000000000000000 ) ;
#3 = CIRCLE ( 'NONE', #910, 14.00000000000000000 ) ;
#4 = PLANE ( 'NONE',  #979 ) ;
#5 = CARTESIAN_POINT ( 'NONE',  ( 11.51987796860835367, 7.956290687835843478, 11.34649651929563596 ) ) ;
#6 = EDGE_CURVE ( 'NONE', #974, #945, #1, .T. ) ;
#7 = LINE ( 'NONE', #97, #478 ) ;
#8 = EDGE_LOOP ( 'NONE', ( #468, #178, #443, #861 ) ) ;
#9 = DIRECTION ( 'NONE',  ( 1.000000000000000000, -0.000000000000000000, 0.000000000000000000 ) ) ;
#10 = LINE ( 'NONE', #735, #1014 ) ;
#11 = DIRECTION ( 'NONE',  ( 1.000000000000000000, 0.000000000000000000, -0.000000000000000000 ) ) ;
#12 = ORIENTED_EDGE ( 'NONE', *, *, #143, .T. ) ;
#13 = EDGE_CURVE ( 'NONE', #51, #378, #882, .T. ) ;
#14 = DIRECTION ( 'NONE',  ( 0.000000000000000000, 1.000000000000000000, -0.000000000000000000 ) ) ;
#15 = CYLINDRICAL_SURFACE ( 'NONE', #909, 14.00000000000000000 ) ;
#16 = CARTESIAN_POINT ( 'NONE',  ( -0.5999999999999999778, 18.99052395275075256, 4.000000000000000000 ) ) ;
#17 = ORIENTED_EDGE ( 'NONE', *, *, #338, .F. ) ;
#18 = CC_DESIGN_PERSON_AND_ORGANIZATION_ASSIGNMENT ( #511, #524, ( #552 ) ) ;
#19 = CARTESIAN_POINT ( 'NONE',  ( -9.841304759421175774, 9.959976315290019144, 8.581349739459774639 ) ) ;
#20 = DIRECTION ( 'NONE',  ( -0.000000000000000000, 1.000000000000000000, 0.000000000000000000 ) ) ;
#21 = AXIS2_PLACEMENT_3D ( 'NONE', #620, #948, #129 ) ;
#22 = AXIS2_PLACEMENT_3D ( 'NONE', #391, #792, #965 ) ;
#23 = CARTESIAN_POINT ( 'NONE',  ( 11.88038519805911619, 7.406761620341381303, 10.60532561035885202 ) ) ;
#24 = DATE_AND_TIME ( #123, #774 ) ;
#25 = ORIENTED_EDGE ( 'NONE', *, *, #79, .F. ) ;
#26 = DIRECTION ( 'NONE',  ( 1.000000000000000000, 0.000000000000000000, 0.000000000000000000 ) ) ;
#27 = EDGE_CURVE ( 'NONE', #622, #1053, #373, .T. ) ;
#28 = CARTESIAN_POINT ( 'NONE',  ( 11.68311043139274830, 7.714395407957674422, 8.881677801039298714 ) ) ;
#29 = ORIENTED_EDGE ( 'NONE', *, *, #738, .T. ) ;
#30 = PLANE ( 'NONE',  #121 ) ;
#31 = CARTESIAN_POINT ( 'NONE',  ( 2.534028928176448314, -0.6766222469410452245, -0.000000000000000000 ) ) ;
#32 = ADVANCED_FACE ( 'NONE', ( #648 ), #976, .T. ) ;
#33 = CARTESIAN_POINT ( 'NONE',  ( -10.72380529476374278, 9.000000000000252243, 11.70000000000124984 ) ) ;
#34 = CARTESIAN_POINT ( 'NONE',  ( 0.000000000000000000, 0.000000000000000000, 0.000000000000000000 ) ) ;
#35 = ORIENTED_EDGE ( 'NONE', *, *, #436, .F. ) ;
#36 = VECTOR ( 'NONE', #99, 1000.000000000000000 ) ;
#37 = CARTESIAN_POINT ( 'NONE',  ( -11.81690003789738164, 7.507626993145152028, 9.176942079461829493 ) ) ;
#38 = LOCAL_TIME ( 6, 17, 36.00000000000000000, #530 ) ;
#39 = CC_DESIGN_DATE_AND_TIME_ASSIGNMENT ( #692, #1015, ( #362 ) ) ;
#40 = COORDINATED_UNIVERSAL_TIME_OFFSET ( 5, 0, .BEHIND. ) ;
#41 = ORIENTED_EDGE ( 'NONE', *, *, #1018, .T. ) ;
#42 = CC_DESIGN_APPROVAL ( #351, ( #552 ) ) ;
#43 = FACE_OUTER_BOUND ( 'NONE', #1046, .T. ) ;
#44 = CARTESIAN_POINT ( 'NONE',  ( 1.155213855929388300, 2.347373307994384373, -0.000000000000000000 ) ) ;
#45 = VERTEX_POINT ( 'NONE', #733 ) ;
#46 = CARTESIAN_POINT ( 'NONE',  ( -0.5999999999999999778, 13.98713694792469120, 16.00000000000000000 ) ) ;
#47 = EDGE_CURVE ( 'NONE', #250, #83, #1061, .T. ) ;
#48 = PRODUCT_DEFINITION_SHAPE ( 'NONE', 'NONE',  #825 ) ;
#49 = DIRECTION ( 'NONE',  ( 0.000000000000000000, 0.000000000000000000, 1.000000000000000000 ) ) ;
#50 = DIRECTION ( 'NONE',  ( 1.000000000000000000, 0.000000000000000000, 0.000000000000000000 ) ) ;
#51 = VERTEX_POINT ( 'NONE', #982 ) ;
#52 = EDGE_CURVE ( 'NONE', #1011, #250, #244, .T. ) ;
#53 = LINE ( 'NONE', #624, #568 ) ;
#54 = CARTESIAN_POINT ( 'NONE',  ( -14.00000000000000000, 0.000000000000000000, 16.00000000000000000 ) ) ;
#55 = ORIENTED_EDGE ( 'NONE', *, *, #64, .F. ) ;
#56 = AXIS2_PLACEMENT_3D ( 'NONE', #807, #1059, #459 ) ;
#57 = ORGANIZATION ( '未', '未', '' ) ;
#58 = DIRECTION ( 'NONE',  ( 0.000000000000000000, -1.000000000000000000, 0.000000000000000000 ) ) ;
#59 = FACE_OUTER_BOUND ( 'NONE', #823, .T. ) ;
#60 = LINE ( 'NONE', #130, #222 ) ;
#61 = EDGE_LOOP ( 'NONE', ( #782, #804, #332, #25 ) ) ;
#62 = CARTESIAN_POINT ( 'NONE',  ( -2.130340194382252417, 1.498434379583922782, -0.000000000000000000 ) ) ;
#63 = CARTESIAN_POINT ( 'NONE',  ( 0.5999999999999999778, 2.529822128134703529, 16.00000000000000000 ) ) ;
#64 = EDGE_CURVE ( 'NONE', #106, #148, #466, .T. ) ;
#65 = DIRECTION ( 'NONE',  ( 0.000000000000000000, -1.000000000000000000, 0.000000000000000000 ) ) ;
#66 = DIRECTION ( 'NONE',  ( 1.000000000000000000, -0.000000000000000000, 0.000000000000000000 ) ) ;
#67 = ORIENTED_EDGE ( 'NONE', *, *, #726, .F. ) ;
#68 = ORIENTED_EDGE ( 'NONE', *, *, #714, .F. ) ;
#69 = LINE ( 'NONE', #157, #74 ) ;
#70 = CARTESIAN_POINT ( 'NONE',  ( 6.000000000000000000, -1.300000000000000044, 16.00000000000000000 ) ) ;
#71 = ORIENTED_EDGE ( 'NONE', *, *, #386, .F. ) ;
#72 = CARTESIAN_POINT ( 'NONE',  ( -2.552093532249216423, 0.5780252676397000799, -0.000000000000000000 ) ) ;
#73 = ORIENTED_EDGE ( 'NONE', *, *, #280, .F. ) ;
#74 = VECTOR ( 'NONE', #304, 1000.000000000000000 ) ;
#75 = CARTESIAN_POINT ( 'NONE',  ( 0.000000000000000000, 0.000000000000000000, 4.000000000000000000 ) ) ;
#76 = ORIENTED_EDGE ( 'NONE', *, *, #441, .F. ) ;
#77 = CARTESIAN_POINT ( 'NONE',  ( 10.37022664714423037, 9.408763276675834675, 8.337751006154990208 ) ) ;
#78 = ORIENTED_EDGE ( 'NONE', *, *, #338, .T. ) ;
#79 = EDGE_CURVE ( 'NONE', #378, #474, #812, .T. ) ;
#80 = CARTESIAN_POINT ( 'NONE',  ( 6.000000000000000000, 0.000000000000000000, 0.000000000000000000 ) ) ;
#81 = VERTEX_POINT ( 'NONE', #629 ) ;
#82 =( NAMED_UNIT ( * ) PLANE_ANGLE_UNIT ( ) SI_UNIT ( $, .RADIAN. ) );
#83 = VERTEX_POINT ( 'NONE', #960 ) ;
#84 = FACE_BOUND ( 'NONE', #158, .T. ) ;
#85 = CARTESIAN_POINT ( 'NONE',  ( -6.000000000000000000, 1.300000000000000044, -0.09997027095160138099 ) ) ;
#86 = FACE_OUTER_BOUND ( 'NONE', #317, .T. ) ;
#87 = EDGE_LOOP ( 'NONE', ( #310, #477, #12, #29 ) ) ;
#88 = CIRCLE ( 'NONE', #119, 2.600000000000000089 ) ;
#89 = LINE ( 'NONE', #333, #858 ) ;
#90 = CARTESIAN_POINT ( 'NONE',  ( -14.00000000000000000, 0.000000000000000000, 4.000000000000000000 ) ) ;
#91 = EDGE_CURVE ( 'NONE', #45, #639, #221, .T. ) ;
#92 = CARTESIAN_POINT ( 'NONE',  ( -10.72380529476361133, 9.000000000000000000, 8.300000000000000711 ) ) ;
#93 = CARTESIAN_POINT ( 'NONE',  ( 6.000000000000000000, -1.300000000000000044, -0.09997027095160138099 ) ) ;
#94 = ORIENTED_EDGE ( 'NONE', *, *, #654, .T. ) ;
#95 = DIRECTION ( 'NONE',  ( 0.000000000000000000, 0.000000000000000000, 1.000000000000000000 ) ) ;
#96 = CARTESIAN_POINT ( 'NONE',  ( -0.5999999999999999778, 13.98713694792469120, 16.00000000000000000 ) ) ;
#97 = CARTESIAN_POINT ( 'NONE',  ( 10.50000000000000000, 0.000000000000000000, 16.00000000000000000 ) ) ;
#98 = VERTEX_POINT ( 'NONE', #744 ) ;
#99 = DIRECTION ( 'NONE',  ( -1.000000000000000000, -0.000000000000000000, 0.000000000000000000 ) ) ;
#100 = CARTESIAN_POINT ( 'NONE',  ( 11.77425630845663029, 7.574553072307678825, 9.066445093151372703 ) ) ;
#101 = ORIENTED_EDGE ( 'NONE', *, *, #614, .F. ) ;
#102 = AXIS2_PLACEMENT_3D ( 'NONE', #75, #313, #300 ) ;
#103 = VECTOR ( 'NONE', #372, 1000.000000000000000 ) ;
#104 = DIRECTION ( 'NONE',  ( -1.000000000000000000, 0.000000000000000000, 0.000000000000000000 ) ) ;
#105 = PERSON_AND_ORGANIZATION_ROLE ( 'classification_officer' ) ;
#106 = VERTEX_POINT ( 'NONE', #92 ) ;
#107 = ADVANCED_FACE ( 'NONE', ( #919, #1006 ), #15, .T. ) ;
#108 = CARTESIAN_POINT ( 'NONE',  ( -9.362270370375766149, 10.40952242769113667, 10.95686943361594423 ) ) ;
#109 = CARTESIAN_POINT ( 'NONE',  ( -11.63076285169010582, 7.793297916477738951, 11.20256825068237916 ) ) ;
#110 = PERSON_AND_ORGANIZATION ( #234, #57 ) ;
#111 = EDGE_LOOP ( 'NONE', ( #94, #227 ) ) ;
#112 = CARTESIAN_POINT ( 'NONE',  ( -9.169899438923808432, 10.57920282770153264, 9.359032329756258761 ) ) ;
#113 = CC_DESIGN_DATE_AND_TIME_ASSIGNMENT ( #185, #683, ( #825 ) ) ;
#114 = CARTESIAN_POINT ( 'NONE',  ( 2.210066736092913153, 1.378121121058531351, -0.000000000000000000 ) ) ;
#115 = APPROVAL_STATUS ( 'not_yet_approved' ) ;
#116 = ORIENTED_EDGE ( 'NONE', *, *, #52, .T. ) ;
#117 = DIRECTION ( 'NONE',  ( 0.000000000000000000, 0.000000000000000000, 1.000000000000000000 ) ) ;
#118 = CARTESIAN_POINT ( 'NONE',  ( 2.600000000000000089, 0.000000000000000000, -6.000000000000000152E-06 ) ) ;
#119 = AXIS2_PLACEMENT_3D ( 'NONE', #413, #95, #328 ) ;
#120 = CARTESIAN_POINT ( 'NONE',  ( 2.348801894056212092, 1.124607701293192985, 0.000000000000000000 ) ) ;
#121 = AXIS2_PLACEMENT_3D ( 'NONE', #769, #358, #365 ) ;
#122 = EDGE_CURVE ( 'NONE', #315, #411, #390, .T. ) ;
#123 = CALENDAR_DATE ( 2026, 18, 9 ) ;
#124 = ORIENTED_EDGE ( 'NONE', *, *, #699, .F. ) ;
#125 = CARTESIAN_POINT ( 'NONE',  ( -11.81331098413178893, 7.513279486513933847, 10.83318915821548956 ) ) ;
#126 = APPLICATION_PROTOCOL_DEFINITION ( 'international standard', 'config_control_design', 1994, #503 ) ;
#127 = ORIENTED_EDGE ( 'NONE', *, *, #464, .T. ) ;
#128 = DIRECTION ( 'NONE',  ( -1.000000000000000000, 0.000000000000000000, 0.000000000000000000 ) ) ;
#129 = DIRECTION ( 'NONE',  ( 0.000000000000000000, 0.000000000000000000, 1.000000000000000000 ) ) ;
#130 = CARTESIAN_POINT ( 'NONE',  ( 0.5999999999999999778, 0.000000000000000000, 4.000000000000000000 ) ) ;
#131 = EDGE_LOOP ( 'NONE', ( #216, #35, #194, #392 ) ) ;
#132 = CARTESIAN_POINT ( 'NONE',  ( 10.72380529476361133, 9.000000000000000000, 8.300000000000000711 ) ) ;
#133 = CARTESIAN_POINT ( 'NONE',  ( 10.50000000000000000, -1.300000000000000044, -0.09997027095160138099 ) ) ;
#134 = CARTESIAN_POINT ( 'NONE',  ( -2.270342840037289811, -1.313216681092628013, -0.000000000000000000 ) ) ;
#135 = ORIENTED_EDGE ( 'NONE', *, *, #27, .F. ) ;
#136 = AXIS2_PLACEMENT_3D ( 'NONE', #532, #117, #188 ) ;
#137 = CARTESIAN_POINT ( 'NONE',  ( -1.519536942383790556, 2.115299939237502702, -0.000000000000000000 ) ) ;
#138 = EDGE_CURVE ( 'NONE', #1011, #422, #181, .T. ) ;
#139 = CARTESIAN_POINT ( 'NONE',  ( 0.000000000000000000, 0.000000000000000000, 4.000000000000000000 ) ) ;
#140 = CARTESIAN_POINT ( 'NONE',  ( 0.000000000000000000, 0.000000000000000000, 0.000000000000000000 ) ) ;
#141 = CARTESIAN_POINT ( 'NONE',  ( 9.840129390273625987, 9.961135384681570670, 11.41787171665996325 ) ) ;
#142 = ORIENTED_EDGE ( 'NONE', *, *, #311, .F. ) ;
#143 = EDGE_CURVE ( 'NONE', #405, #546, #844, .T. ) ;
#144 = DIRECTION ( 'NONE',  ( -0.000000000000000000, -0.000000000000000000, 1.000000000000000000 ) ) ;
#145 = DIRECTION ( 'NONE',  ( -1.000000000000000000, 0.000000000000000000, 0.000000000000000000 ) ) ;
#146 = ORIENTED_EDGE ( 'NONE', *, *, #143, .F. ) ;
#147 = CYLINDRICAL_SURFACE ( 'NONE', #720, 1.700000000000000178 ) ;
#148 = VERTEX_POINT ( 'NONE', #761 ) ;
#149 = FACE_OUTER_BOUND ( 'NONE', #645, .T. ) ;
#150 = DIRECTION ( 'NONE',  ( -0.000000000000000000, -1.000000000000000000, -0.000000000000000000 ) ) ;
#151 = ORIENTED_EDGE ( 'NONE', *, *, #91, .F. ) ;
#152 = EDGE_CURVE ( 'NONE', #900, #354, #1019, .T. ) ;
#153 = CARTESIAN_POINT ( 'NONE',  ( 9.047951289187748714, 10.68348068199795442, 10.26981335079017477 ) ) ;
#154 = ORIENTED_EDGE ( 'NONE', *, *, #374, .F. ) ;
#155 = AXIS2_PLACEMENT_3D ( 'NONE', #139, #230, #787 ) ;
#156 = AXIS2_PLACEMENT_3D ( 'NONE', #883, #66, #957 ) ;
#157 = CARTESIAN_POINT ( 'NONE',  ( 14.00000000000000000, 1.714505518806294638E-15, 16.00000000000000000 ) ) ;
#158 = EDGE_LOOP ( 'NONE', ( #795, #840 ) ) ;
#159 = CARTESIAN_POINT ( 'NONE',  ( -6.000000000000000000, -1.300000000000000044, -0.09997027095160138099 ) ) ;
#160 = ORIENTED_EDGE ( 'NONE', *, *, #346, .T. ) ;
#161 = DIRECTION ( 'NONE',  ( -1.000000000000000000, 0.000000000000000000, 0.000000000000000000 ) ) ;
#162 = VERTEX_POINT ( 'NONE', #837 ) ;
#163 = FACE_OUTER_BOUND ( 'NONE', #364, .T. ) ;
#164 = ORIENTED_EDGE ( 'NONE', *, *, #581, .T. ) ;
#165 = FACE_OUTER_BOUND ( 'NONE', #61, .T. ) ;
#166 = ADVANCED_FACE ( 'NONE', ( #506 ), #677, .F. ) ;
#167 = CARTESIAN_POINT ( 'NONE',  ( 10.50000000000000000, 1.300000000000000044, 0.000000000000000000 ) ) ;
#168 = DIRECTION ( 'NONE',  ( 0.000000000000000000, 1.000000000000000000, 0.000000000000000000 ) ) ;
#169 = LINE ( 'NONE', #746, #1032 ) ;
#170 = ORIENTED_EDGE ( 'NONE', *, *, #6, .F. ) ;
#171 = VECTOR ( 'NONE', #1043, 1000.000000000000000 ) ;
#172 = APPROVAL_PERSON_ORGANIZATION ( #855, #351, #1010 ) ;
#173 = APPROVAL_PERSON_ORGANIZATION ( #537, #939, #697 ) ;
#174 = DIRECTION ( 'NONE',  ( -1.000000000000000000, 0.000000000000000000, 0.000000000000000000 ) ) ;
#175 = PRODUCT_RELATED_PRODUCT_CATEGORY ( 'detail', '', ( #285 ) ) ;
#176 = LINE ( 'NONE', #904, #305 ) ;
#177 = CARTESIAN_POINT ( 'NONE',  ( -2.600000000000000089, 3.184081677783117698E-16, -1.200000000000000030E-05 ) ) ;
#178 = ORIENTED_EDGE ( 'NONE', *, *, #595, .T. ) ;
#179 = CARTESIAN_POINT ( 'NONE',  ( 0.000000000000000000, -1.300000000000000044, 16.00000000000000000 ) ) ;
#180 = FACE_OUTER_BOUND ( 'NONE', #254, .T. ) ;
#181 = LINE ( 'NONE', #599, #428 ) ;
#182 = CARTESIAN_POINT ( 'NONE',  ( -19.00000000000000000, 9.000000000000000000, 8.300000000000000711 ) ) ;
#183 = ORIENTED_EDGE ( 'NONE', *, *, #521, .T. ) ;
#184 = CARTESIAN_POINT ( 'NONE',  ( 11.87876165948471829, 7.409364245642842128, 9.388093465597638243 ) ) ;
#185 = DATE_AND_TIME ( #287, #460 ) ;
#186 = ORIENTED_EDGE ( 'NONE', *, *, #1018, .F. ) ;
#187 = EDGE_CURVE ( 'NONE', #452, #1026, #589, .T. ) ;
#188 = DIRECTION ( 'NONE',  ( 1.000000000000000000, 0.000000000000000000, 0.000000000000000000 ) ) ;
#189 = VECTOR ( 'NONE', #574, 1000.000000000000000 ) ;
#190 = CARTESIAN_POINT ( 'NONE',  ( -9.291956110314004036, 10.47215736457432023, 10.85867387745195778 ) ) ;
#191 = VECTOR ( 'NONE', #897, 1000.000000000000000 ) ;
#192 = AXIS2_PLACEMENT_3D ( 'NONE', #34, #616, #607 ) ;
#193 = CARTESIAN_POINT ( 'NONE',  ( 11.04041184224593941, 8.612030553185553217, 11.66769485529068540 ) ) ;
#194 = ORIENTED_EDGE ( 'NONE', *, *, #799, .T. ) ;
#195 = DIRECTION ( 'NONE',  ( -0.000000000000000000, -0.000000000000000000, -1.000000000000000000 ) ) ;
#196 = CARTESIAN_POINT ( 'NONE',  ( -11.93695299064316551, 7.315065345002939701, 10.25716427385520113 ) ) ;
#197 = COORDINATED_UNIVERSAL_TIME_OFFSET ( 5, 0, .BEHIND. ) ;
#198 = ORIENTED_EDGE ( 'NONE', *, *, #280, .T. ) ;
#199 = LINE ( 'NONE', #434, #947 ) ;
#200 = CARTESIAN_POINT ( 'NONE',  ( -10.50000000000000000, 0.000000000000000000, 16.00000000000000000 ) ) ;
#201 = EDGE_CURVE ( 'NONE', #411, #531, #176, .T. ) ;
#202 = CARTESIAN_POINT ( 'NONE',  ( -11.87802137661227775, 7.410552828704601858, 10.61497946977859463 ) ) ;
#203 = ORIENTED_EDGE ( 'NONE', *, *, #901, .F. ) ;
#204 = AXIS2_PLACEMENT_3D ( 'NONE', #885, #551, #562 ) ;
#205 = CC_DESIGN_PERSON_AND_ORGANIZATION_ASSIGNMENT ( #937, #266, ( #285 ) ) ;
#206 = CYLINDRICAL_SURFACE ( 'NONE', #673, 1.700000000000000178 ) ;
#207 = VECTOR ( 'NONE', #384, 1000.000000000000000 ) ;
#208 = VERTEX_POINT ( 'NONE', #826 ) ;
#209 = CARTESIAN_POINT ( 'NONE',  ( 1.850048096021194244, 1.832503310753067938, 0.000000000000000000 ) ) ;
#210 = DIRECTION ( 'NONE',  ( 1.000000000000000000, 0.000000000000000000, 0.000000000000000000 ) ) ;
#211 = EDGE_LOOP ( 'NONE', ( #388, #433 ) ) ;
#212 = CARTESIAN_POINT ( 'NONE',  ( -2.599940775706751861, 0.2933012580821827142, 0.000000000000000000 ) ) ;
#213 = VERTEX_POINT ( 'NONE', #96 ) ;
#214 = DESIGN_CONTEXT ( 'detailed design', #679, 'design' ) ;
#215 = CARTESIAN_POINT ( 'NONE',  ( 2.408589353751582784, 0.9896632826438699349, -0.000000000000000000 ) ) ;
#216 = ORIENTED_EDGE ( 'NONE', *, *, #664, .F. ) ;
#217 = CARTESIAN_POINT ( 'NONE',  ( -0.6000001182283759560, 2.529936706146719949, -8.999999999999988370E-06 ) ) ;
#218 = EDGE_CURVE ( 'NONE', #601, #385, #494, .T. ) ;
#219 = FACE_OUTER_BOUND ( 'NONE', #576, .T. ) ;
#220 = AXIS2_PLACEMENT_3D ( 'NONE', #998, #258, #588 ) ;
#221 = LINE ( 'NONE', #793, #476 ) ;
#222 = VECTOR ( 'NONE', #625, 1000.000000000000000 ) ;
#223 = CARTESIAN_POINT ( 'NONE',  ( -0.8804363128452402654, 2.463541317978307887, -0.000000000000000000 ) ) ;
#224 = EDGE_CURVE ( 'NONE', #945, #622, #946, .T. ) ;
#225 = FACE_OUTER_BOUND ( 'NONE', #580, .T. ) ;
#226 = FACE_BOUND ( 'NONE', #111, .T. ) ;
#227 = ORIENTED_EDGE ( 'NONE', *, *, #273, .T. ) ;
#228 = CARTESIAN_POINT ( 'NONE',  ( 9.028379520031956318, 10.69992351637305283, 10.13505688321050791 ) ) ;
#229 = ORIENTED_EDGE ( 'NONE', *, *, #818, .T. ) ;
#230 = DIRECTION ( 'NONE',  ( -0.000000000000000000, -0.000000000000000000, -1.000000000000000000 ) ) ;
#231 = ADVANCED_FACE ( 'NONE', ( #941, #859, #777 ), #1034, .T. ) ;
#232 = CARTESIAN_POINT ( 'NONE',  ( 19.00000000000000000, 2.326828918379970970E-15, 4.000000000000000000 ) ) ;
#233 = ORIENTED_EDGE ( 'NONE', *, *, #453, .T. ) ;
#234 = PERSON ( '未', '未', '未', ('未'), ('未'), ('未') ) ;
#235 = CARTESIAN_POINT ( 'NONE',  ( 10.01747428353794866, 9.780869486404816016, 8.486530660924678671 ) ) ;
#236 = EDGE_LOOP ( 'NONE', ( #687, #160, #810, #400 ) ) ;
#237 = DIRECTION ( 'NONE',  ( 0.000000000000000000, 0.000000000000000000, 1.000000000000000000 ) ) ;
#238 = EDGE_CURVE ( 'NONE', #806, #106, #401, .T. ) ;
#239 = ORIENTED_EDGE ( 'NONE', *, *, #187, .T. ) ;
#240 = CARTESIAN_POINT ( 'NONE',  ( 0.5999999999999999778, 18.99052395275075256, 0.000000000000000000 ) ) ;
#241 = ORIENTED_EDGE ( 'NONE', *, *, #866, .F. ) ;
#242 = VECTOR ( 'NONE', #245, 1000.000000000000000 ) ;
#243 = DIRECTION ( 'NONE',  ( 1.000000000000000000, 0.000000000000000000, 0.000000000000000000 ) ) ;
#244 = LINE ( 'NONE', #85, #189 ) ;
#245 = DIRECTION ( 'NONE',  ( 0.000000000000000000, 1.000000000000000000, -0.000000000000000000 ) ) ;
#246 = ORIENTED_EDGE ( 'NONE', *, *, #983, .T. ) ;
#247 = DIRECTION ( 'NONE',  ( 0.000000000000000000, -0.000000000000000000, 1.000000000000000000 ) ) ;
#248 = CARTESIAN_POINT ( 'NONE',  ( 11.81430917424337323, 7.511707916502316174, 9.169615520327001335 ) ) ;
#249 = LINE ( 'NONE', #410, #497 ) ;
#250 = VERTEX_POINT ( 'NONE', #451 ) ;
#251 = EDGE_CURVE ( 'NONE', #98, #876, #312, .T. ) ;
#252 = CARTESIAN_POINT ( 'NONE',  ( -0.5999999999999999778, 0.000000000000000000, 0.000000000000000000 ) ) ;
#253 = CARTESIAN_POINT ( 'NONE',  ( 10.88535465464668306, 8.807508457680029323, 8.300000000000000711 ) ) ;
#254 = EDGE_LOOP ( 'NONE', ( #626, #1016, #884, #17, #572, #814 ) ) ;
#255 = VECTOR ( 'NONE', #463, 1000.000000000000000 ) ;
#256 = AXIS2_PLACEMENT_3D ( 'NONE', #881, #145, #471 ) ;
#257 = CARTESIAN_POINT ( 'NONE',  ( -9.170466408454513996, 10.57870852589375055, 10.64206504667296649 ) ) ;
#258 = DIRECTION ( 'NONE',  ( 1.000000000000000000, -0.000000000000000000, 0.000000000000000000 ) ) ;
#259 = DIRECTION ( 'NONE',  ( 1.000000000000000000, 0.000000000000000000, 0.000000000000000000 ) ) ;
#260 = CARTESIAN_POINT ( 'NONE',  ( 19.00000000000000000, 2.326828918379970970E-15, 4.000000000000000000 ) ) ;
#261 = EDGE_LOOP ( 'NONE', ( #742, #241, #927, #325 ) ) ;
#262 = CARTESIAN_POINT ( 'NONE',  ( -0.5999999999999999778, 2.529822128134703529, 16.00000000000000000 ) ) ;
#263 = CARTESIAN_POINT ( 'NONE',  ( 0.000000000000000000, 0.000000000000000000, 4.000000000000000000 ) ) ;
#264 = EDGE_CURVE ( 'NONE', #888, #208, #290, .T. ) ;
#265 = CARTESIAN_POINT ( 'NONE',  ( 11.63318911631890806, 7.789676559712269466, 11.19895753663901772 ) ) ;
#266 = PERSON_AND_ORGANIZATION_ROLE ( 'design_owner' ) ;
#267 = EDGE_LOOP ( 'NONE', ( #779, #728, #591, #455 ) ) ;
#268 = LINE ( 'NONE', #680, #276 ) ;
#269 = CARTESIAN_POINT ( 'NONE',  ( 11.77675979958275754, 7.570663098460283180, 10.92770730904898002 ) ) ;
#270 = ADVANCED_FACE ( 'NONE', ( #606 ), #206, .F. ) ;
#271 = CALENDAR_DATE ( 2026, 18, 9 ) ;
#272 = VERTEX_POINT ( 'NONE', #291 ) ;
#273 = EDGE_CURVE ( 'NONE', #81, #148, #1047, .T. ) ;
#274 = VECTOR ( 'NONE', #487, 1000.000000000000000 ) ;
#275 = CARTESIAN_POINT ( 'NONE',  ( -0.3444314227433193376, -2.599930451346447846, 0.000000000000000000 ) ) ;
#276 = VECTOR ( 'NONE', #843, 1000.000000000000000 ) ;
#277 = DIRECTION ( 'NONE',  ( 0.000000000000000000, 0.000000000000000000, 1.000000000000000000 ) ) ;
#278 = EDGE_LOOP ( 'NONE', ( #985, #541, #294, #617, #864, #307, #710, #561 ) ) ;
#279 = LINE ( 'NONE', #46, #103 ) ;
#280 = EDGE_CURVE ( 'NONE', #914, #974, #53, .T. ) ;
#281 = CARTESIAN_POINT ( 'NONE',  ( 0.3444314227433183939, -2.600069548653550555, -0.000000000000000000 ) ) ;
#282 = CARTESIAN_POINT ( 'NONE',  ( 2.130521333856785660, 1.498155055651988254, 0.000000000000000000 ) ) ;
#283 = SHAPE_DEFINITION_REPRESENTATION ( #48, #917 ) ;
#284 = EDGE_LOOP ( 'NONE', ( #693, #538, #966, #684 ) ) ;
#285 = PRODUCT ( 'V2_06_horn_coupler', 'V2_06_horn_coupler', '', ( #926 ) ) ;
#286 = CARTESIAN_POINT ( 'NONE',  ( -11.94584366002183273, 7.300467076545174905, 10.13164965557787767 ) ) ;
#287 = CALENDAR_DATE ( 2026, 18, 9 ) ;
#288 = ORIENTED_EDGE ( 'NONE', *, *, #901, .T. ) ;
#289 = DIRECTION ( 'NONE',  ( -0.000000000000000000, -0.000000000000000000, -1.000000000000000000 ) ) ;
#290 = CIRCLE ( 'NONE', #458, 14.00000000000000000 ) ;
#291 = CARTESIAN_POINT ( 'NONE',  ( 0.5999999999999999778, 13.98713694792469120, 4.000000000000000000 ) ) ;
#292 = VECTOR ( 'NONE', #324, 1000.000000000000000 ) ;
#293 = LINE ( 'NONE', #297, #1017 ) ;
#294 = ORIENTED_EDGE ( 'NONE', *, *, #264, .T. ) ;
#295 = CARTESIAN_POINT ( 'NONE',  ( 0.000000000000000000, 0.000000000000000000, 16.00000000000000000 ) ) ;
#296 = ADVANCED_FACE ( 'NONE', ( #59 ), #651, .T. ) ;
#297 = CARTESIAN_POINT ( 'NONE',  ( 0.5999999999999999778, 18.99052395275075256, 4.000000000000000000 ) ) ;
#298 = EDGE_LOOP ( 'NONE', ( #288, #41, #878, #906 ) ) ;
#299 = CARTESIAN_POINT ( 'NONE',  ( 10.72380529476361133, 9.000000000000000000, 8.300000000000000711 ) ) ;
#300 = DIRECTION ( 'NONE',  ( -1.000000000000000000, 0.000000000000000000, 0.000000000000000000 ) ) ;
#301 = DIRECTION ( 'NONE',  ( -0.000000000000000000, -0.000000000000000000, -1.000000000000000000 ) ) ;
#302 = DIRECTION ( 'NONE',  ( 0.000000000000000000, 1.000000000000000000, -0.000000000000000000 ) ) ;
#303 = CARTESIAN_POINT ( 'NONE',  ( 10.55101976734915326, 9.205879817082850636, 11.69999999999997975 ) ) ;
#304 = DIRECTION ( 'NONE',  ( -0.000000000000000000, -0.000000000000000000, -1.000000000000000000 ) ) ;
#305 = VECTOR ( 'NONE', #168, 1000.000000000000000 ) ;
#306 = CARTESIAN_POINT ( 'NONE',  ( 0.5999999999999998668, 9.000000000000000000, 11.70000000000000107 ) ) ;
#307 = ORIENTED_EDGE ( 'NONE', *, *, #122, .F. ) ;
#308 = AXIS2_PLACEMENT_3D ( 'NONE', #1033, #289, #128 ) ;
#309 = CARTESIAN_POINT ( 'NONE',  ( 9.028198879604028448, 10.70007593451009598, 9.866875471380067708 ) ) ;
#310 = ORIENTED_EDGE ( 'NONE', *, *, #138, .T. ) ;
#311 = EDGE_CURVE ( 'NONE', #395, #512, #737, .T. ) ;
#312 = B_SPLINE_CURVE_WITH_KNOTS ( 'NONE', 3,
 ( #363, #691, #1013, #215, #120, #114, #282, #780, #209, #704, #783, #44, #615, #369 ),
 .UNSPECIFIED., .F., .F.,
 ( 4, 2, 2, 2, 2, 2, 4 ),
 ( 0.000000000000000000, 0.05322997919402821382, 0.07984496879104228950, 0.1064599583880563721, 0.1330749479850704686, 0.1596899375820845512, 0.2129199167761126610 ),
 .UNSPECIFIED. ) ;
#313 = DIRECTION ( 'NONE',  ( -0.000000000000000000, -0.000000000000000000, -1.000000000000000000 ) ) ;
#314 = CARTESIAN_POINT ( 'NONE',  ( -19.00000000000000000, 0.000000000000000000, 4.000000000000000000 ) ) ;
#315 = VERTEX_POINT ( 'NONE', #567 ) ;
#316 = CARTESIAN_POINT ( 'NONE',  ( 9.511064628574491309, 10.27374944521859668, 8.868648734014357160 ) ) ;
#317 = EDGE_LOOP ( 'NONE', ( #772, #725, #751, #597 ) ) ;
#318 = DIRECTION ( 'NONE',  ( -0.000000000000000000, -0.000000000000000000, -1.000000000000000000 ) ) ;
#319 = ORIENTED_EDGE ( 'NONE', *, *, #218, .T. ) ;
#320 = DIRECTION ( 'NONE',  ( -0.000000000000000000, -0.000000000000000000, 1.000000000000000000 ) ) ;
#321 = ORIENTED_EDGE ( 'NONE', *, *, #714, .T. ) ;
#322 = DIRECTION ( 'NONE',  ( 1.000000000000000000, -0.000000000000000000, -0.000000000000000000 ) ) ;
#323 = CARTESIAN_POINT ( 'NONE',  ( 0.000000000000000000, 1.300000000000000044, 16.00000000000000000 ) ) ;
#324 = DIRECTION ( 'NONE',  ( -0.000000000000000000, -0.000000000000000000, 1.000000000000000000 ) ) ;
#325 = ORIENTED_EDGE ( 'NONE', *, *, #786, .T. ) ;
#326 = AXIS2_PLACEMENT_3D ( 'NONE', #263, #816, #593 ) ;
#327 = CC_DESIGN_APPROVAL ( #969, ( #825 ) ) ;
#328 = DIRECTION ( 'NONE',  ( 1.000000000000000000, 0.000000000000000000, 0.000000000000000000 ) ) ;
#329 = DIRECTION ( 'NONE',  ( 0.000000000000000000, 0.000000000000000000, 1.000000000000000000 ) ) ;
#330 = EDGE_CURVE ( 'NONE', #418, #51, #641, .T. ) ;
#331 = CARTESIAN_POINT ( 'NONE',  ( 0.000000000000000000, 0.000000000000000000, 4.000000000000000000 ) ) ;
#332 = ORIENTED_EDGE ( 'NONE', *, *, #983, .F. ) ;
#333 = CARTESIAN_POINT ( 'NONE',  ( 0.5999999999999999778, 13.98713694792469120, 16.00000000000000000 ) ) ;
#334 = CARTESIAN_POINT ( 'NONE',  ( 0.000000000000000000, 0.000000000000000000, 16.00000000000000000 ) ) ;
#335 = CARTESIAN_POINT ( 'NONE',  ( 11.25723435106464976, 8.324008393740475853, 11.56315928611681443 ) ) ;
#336 = CARTESIAN_POINT ( 'NONE',  ( -19.00000000000000000, 9.000000000000000000, 10.00000000000000000 ) ) ;
#337 = VERTEX_POINT ( 'NONE', #397 ) ;
#338 = EDGE_CURVE ( 'NONE', #411, #876, #727, .T. ) ;
#339 = CARTESIAN_POINT ( 'NONE',  ( -10.54980359593110428, 9.207328926581991979, 8.300000000000004263 ) ) ;
#340 = FACE_BOUND ( 'NONE', #763, .T. ) ;
#341 = CARTESIAN_POINT ( 'NONE',  ( 0.000000000000000000, 0.000000000000000000, 16.00000000000000000 ) ) ;
#342 = PLANE ( 'NONE',  #515 ) ;
#343 = ORIENTED_EDGE ( 'NONE', *, *, #709, .T. ) ;
#344 = VECTOR ( 'NONE', #347, 1000.000000000000000 ) ;
#345 = VECTOR ( 'NONE', #320, 1000.000000000000000 ) ;
#346 = EDGE_CURVE ( 'NONE', #601, #354, #557, .T. ) ;
#347 = DIRECTION ( 'NONE',  ( -0.000000000000000000, -0.000000000000000000, 1.000000000000000000 ) ) ;
#348 = CARTESIAN_POINT ( 'NONE',  ( 0.000000000000000000, -1.300000000000000044, 0.000000000000000000 ) ) ;
#349 = ORIENTED_EDGE ( 'NONE', *, *, #640, .F. ) ;
#350 = DIRECTION ( 'NONE',  ( 0.000000000000000000, -1.000000000000000000, 0.000000000000000000 ) ) ;
#351 = APPROVAL ( #839, '未' ) ;
#352 = CARTESIAN_POINT ( 'NONE',  ( 11.93721609031033459, 7.314636773467316111, 9.745133196380875162 ) ) ;
#353 = APPROVAL_STATUS ( 'not_yet_approved' ) ;
#354 = VERTEX_POINT ( 'NONE', #383 ) ;
#355 = DIRECTION ( 'NONE',  ( 0.000000000000000000, 0.000000000000000000, -1.000000000000000000 ) ) ;
#356 = EDGE_CURVE ( 'NONE', #637, #1063, #533, .T. ) ;
#357 = ORIENTED_EDGE ( 'NONE', *, *, #664, .T. ) ;
#358 = DIRECTION ( 'NONE',  ( 0.000000000000000000, 0.000000000000000000, 1.000000000000000000 ) ) ;
#359 = AXIS2_PLACEMENT_3D ( 'NONE', #1042, #646, #243 ) ;
#360 = CARTESIAN_POINT ( 'NONE',  ( -10.01642623006862109, 9.784631539666255762, 8.478378753637999310 ) ) ;
#361 = AXIS2_PLACEMENT_3D ( 'NONE', #331, #585, #895 ) ;
#362 = SECURITY_CLASSIFICATION ( '', '', #851 ) ;
#363 = CARTESIAN_POINT ( 'NONE',  ( 2.600000000000000089, 0.000000000000000000, -6.000000000000000152E-06 ) ) ;
#364 = EDGE_LOOP ( 'NONE', ( #127, #239, #203, #146 ) ) ;
#365 = DIRECTION ( 'NONE',  ( 1.000000000000000000, 0.000000000000000000, -0.000000000000000000 ) ) ;
#366 = CARTESIAN_POINT ( 'NONE',  ( -10.72380529476361133, 9.000000000000000000, 8.300000000000000711 ) ) ;
#367 = DATE_AND_TIME ( #449, #38 ) ;
#368 = EDGE_LOOP ( 'NONE', ( #151, #757, #663, #67 ) ) ;
#369 = CARTESIAN_POINT ( 'NONE',  ( 0.6000001017321888730, 2.529941645714209653, -8.999999999999988370E-06 ) ) ;
#370 = CARTESIAN_POINT ( 'NONE',  ( 0.000000000000000000, 0.000000000000000000, 4.000000000000000000 ) ) ;
#371 = ORIENTED_EDGE ( 'NONE', *, *, #542, .F. ) ;
#372 = DIRECTION ( 'NONE',  ( -0.000000000000000000, -0.000000000000000000, -1.000000000000000000 ) ) ;
#373 = CIRCLE ( 'NONE', #513, 19.00000000000000000 ) ;
#374 = EDGE_CURVE ( 'NONE', #208, #395, #69, .T. ) ;
#375 = CIRCLE ( 'NONE', #56, 1.700000000000000178 ) ;
#376 = CARTESIAN_POINT ( 'NONE',  ( -11.94667935274166837, 7.299099505034237545, 9.755229362243063918 ) ) ;
#377 =( GEOMETRIC_REPRESENTATION_CONTEXT ( 3 ) GLOBAL_UNCERTAINTY_ASSIGNED_CONTEXT ( ( #958 ) ) GLOBAL_UNIT_ASSIGNED_CONTEXT ( ( #994, #82, #518 ) ) REPRESENTATION_CONTEXT ( 'NONE', 'WORKASPACE' ) );
#378 = VERTEX_POINT ( 'NONE', #403 ) ;
#379 = DIRECTION ( 'NONE',  ( 0.000000000000000000, -0.000000000000000000, -1.000000000000000000 ) ) ;
#380 = CARTESIAN_POINT ( 'NONE',  ( -19.00000000000000000, 9.000000000000000000, 11.70000000000000107 ) ) ;
#381 = ORIENTED_EDGE ( 'NONE', *, *, #880, .F. ) ;
#382 = FACE_OUTER_BOUND ( 'NONE', #261, .T. ) ;
#383 = CARTESIAN_POINT ( 'NONE',  ( 10.72380529476361488, 9.000000000000204281, 11.70000000000065477 ) ) ;
#384 = DIRECTION ( 'NONE',  ( -0.000000000000000000, -0.000000000000000000, 1.000000000000000000 ) ) ;
#385 = VERTEX_POINT ( 'NONE', #708 ) ;
#386 = EDGE_CURVE ( 'NONE', #422, #83, #874, .T. ) ;
#387 = CARTESIAN_POINT ( 'NONE',  ( -1.951082218127032863, 1.724833573237032125, 0.000000000000000000 ) ) ;
#388 = ORIENTED_EDGE ( 'NONE', *, *, #745, .T. ) ;
#389 = CYLINDRICAL_SURFACE ( 'NONE', #549, 1.700000000000000178 ) ;
#390 = CIRCLE ( 'NONE', #773, 2.600000000000000089 ) ;
#391 = CARTESIAN_POINT ( 'NONE',  ( 0.000000000000000000, 0.000000000000000000, 16.00000000000000000 ) ) ;
#392 = ORIENTED_EDGE ( 'NONE', *, *, #731, .F. ) ;
#393 = VECTOR ( 'NONE', #813, 1000.000000000000000 ) ;
#394 = CARTESIAN_POINT ( 'NONE',  ( -2.600000000000000089, 3.184081677783117698E-16, -6.000000000000000152E-06 ) ) ;
#395 = VERTEX_POINT ( 'NONE', #879 ) ;
#396 = ADVANCED_FACE ( 'NONE', ( #225 ), #389, .F. ) ;
#397 = CARTESIAN_POINT ( 'NONE',  ( -0.5999999999999999778, 13.98713694792469120, 4.000000000000000000 ) ) ;
#398 = CARTESIAN_POINT ( 'NONE',  ( 0.000000000000000000, 0.000000000000000000, 0.000000000000000000 ) ) ;
#399 = CARTESIAN_POINT ( 'NONE',  ( 10.55017837208570519, 9.206882368080758994, 8.299999999999998934 ) ) ;
#400 = ORIENTED_EDGE ( 'NONE', *, *, #918, .F. ) ;
#401 = B_SPLINE_CURVE_WITH_KNOTS ( 'NONE', 3,
 ( #33, #1024, #765, #523, #862, #109, #454, #696, #125, #202, #540, #196, #286, #376, #442, #37, #685, #953, #854, #936, #850, #770, #437, #366 ),
 .UNSPECIFIED., .F., .F.,
 ( 4, 2, 2, 2, 2, 2, 2, 2, 2, 2, 2, 4 ),
 ( 0.006426364726469357275, 0.007171634124655618808, 0.007916903522841880342, 0.008289538221935011109, 0.008662172921028141875, 0.009034807620121272642, 0.009407442319214403409, 0.01015271171740067015, 0.01052534641649380438, 0.01089798111558693688, 0.01164325051377320709, 0.01238851991195947556 ),
 .UNSPECIFIED. ) ;
#402 = MANIFOLD_SOLID_BREP ( 'Coupler_clamp_M3', #718 ) ;
#403 = CARTESIAN_POINT ( 'NONE',  ( 10.50000000000000000, -1.300000000000000044, 0.000000000000000000 ) ) ;
#404 = DIRECTION ( 'NONE',  ( 1.000000000000000000, 0.000000000000000000, -0.000000000000000000 ) ) ;
#405 = VERTEX_POINT ( 'NONE', #981 ) ;
#406 = CARTESIAN_POINT ( 'NONE',  ( 0.5999999999999999778, 13.98713694792469120, 16.00000000000000000 ) ) ;
#407 = EDGE_CURVE ( 'NONE', #378, #508, #721, .T. ) ;
#408 = AXIS2_PLACEMENT_3D ( 'NONE', #140, #723, #559 ) ;
#409 = CARTESIAN_POINT ( 'NONE',  ( 11.32625336758537671, 8.229749050941169486, 11.51924676303362638 ) ) ;
#410 = CARTESIAN_POINT ( 'NONE',  ( 10.50000000000000000, 1.300000000000000044, -0.09997027095160138099 ) ) ;
#411 = VERTEX_POINT ( 'NONE', #63 ) ;
#412 = CIRCLE ( 'NONE', #136, 2.600000000000000089 ) ;
#413 = CARTESIAN_POINT ( 'NONE',  ( 0.000000000000000000, 0.000000000000000000, 16.00000000000000000 ) ) ;
#414 = B_SPLINE_CURVE_WITH_KNOTS ( 'NONE', 3,
 ( #217, #223, #1057, #137, #462, #473, #387, #62, #555, #800, #456, #72, #212, #394 ),
 .UNSPECIFIED., .F., .F.,
 ( 4, 2, 2, 2, 2, 2, 4 ),
 ( 0.2871120064002115058, 0.3403340048001586293, 0.3669450040001321911, 0.3935560032001057529, 0.4201670024000793147, 0.4467780016000528764, 0.5000000000000000000 ),
 .UNSPECIFIED. ) ;
#415 = DIRECTION ( 'NONE',  ( 1.000000000000000000, 0.000000000000000000, 0.000000000000000000 ) ) ;
#416 = ADVANCED_FACE ( 'NONE', ( #149 ), #803, .F. ) ;
#417 = DIRECTION ( 'NONE',  ( 0.000000000000000000, 0.000000000000000000, 1.000000000000000000 ) ) ;
#418 = VERTEX_POINT ( 'NONE', #1049 ) ;
#419 = LINE ( 'NONE', #748, #1012 ) ;
#420 = CARTESIAN_POINT ( 'NONE',  ( 0.5999999999999998668, 9.000000000000000000, 10.00000000000000000 ) ) ;
#421 = DIRECTION ( 'NONE',  ( 1.000000000000000000, -0.000000000000000000, -0.000000000000000000 ) ) ;
#422 = VERTEX_POINT ( 'NONE', #475 ) ;
#423 = EDGE_CURVE ( 'NONE', #914, #637, #871, .T. ) ;
#424 = LINE ( 'NONE', #232, #632 ) ;
#425 = CARTESIAN_POINT ( 'NONE',  ( 11.63116903760836074, 7.792703007474886867, 8.797940933140290909 ) ) ;
#426 = DIRECTION ( 'NONE',  ( 0.000000000000000000, -0.000000000000000000, -1.000000000000000000 ) ) ;
#427 = ORIENTED_EDGE ( 'NONE', *, *, #346, .F. ) ;
#428 = VECTOR ( 'NONE', #924, 1000.000000000000000 ) ;
#429 = AXIS2_PLACEMENT_3D ( 'NONE', #336, #421, #590 ) ;
#430 = CARTESIAN_POINT ( 'NONE',  ( -0.6767903974405510281, -2.533959238176743956, -0.000000000000000000 ) ) ;
#431 = DIRECTION ( 'NONE',  ( -0.000000000000000000, -0.000000000000000000, 1.000000000000000000 ) ) ;
#432 = COORDINATED_UNIVERSAL_TIME_OFFSET ( 5, 0, .BEHIND. ) ;
#433 = ORIENTED_EDGE ( 'NONE', *, *, #238, .T. ) ;
#434 = CARTESIAN_POINT ( 'NONE',  ( 6.000000000000000000, -1.300000000000000044, -0.09997027095160138099 ) ) ;
#435 = CARTESIAN_POINT ( 'NONE',  ( -9.843211314629879638, 9.958146480581250515, 11.42020408556253130 ) ) ;
#436 = EDGE_CURVE ( 'NONE', #213, #888, #838, .T. ) ;
#437 = CARTESIAN_POINT ( 'NONE',  ( -10.88523795150426032, 8.807647513432991460, 8.300000000000004263 ) ) ;
#438 = PERSON_AND_ORGANIZATION_ROLE ( 'creator' ) ;
#439 = ORIENTED_EDGE ( 'NONE', *, *, #956, .T. ) ;
#440 = CARTESIAN_POINT ( 'NONE',  ( -9.119313208099621093, 10.62263300843386560, 9.476430371807628816 ) ) ;
#441 = EDGE_CURVE ( 'NONE', #474, #418, #959, .T. ) ;
#442 = CARTESIAN_POINT ( 'NONE',  ( -11.91263578868202089, 7.355505887541386123, 9.505990645141926265 ) ) ;
#443 = ORIENTED_EDGE ( 'NONE', *, *, #27, .T. ) ;
#444 = FACE_BOUND ( 'NONE', #87, .T. ) ;
#445 = VECTOR ( 'NONE', #302, 1000.000000000000000 ) ;
#446 = LINE ( 'NONE', #179, #802 ) ;
#447 = AXIS2_PLACEMENT_3D ( 'NONE', #370, #701, #210 ) ;
#448 = DIRECTION ( 'NONE',  ( 1.000000000000000000, 0.000000000000000000, 0.000000000000000000 ) ) ;
#449 = CALENDAR_DATE ( 2026, 18, 9 ) ;
#450 = ORIENTED_EDGE ( 'NONE', *, *, #866, .T. ) ;
#451 = CARTESIAN_POINT ( 'NONE',  ( -6.000000000000000000, 1.300000000000000044, 16.00000000000000000 ) ) ;
#452 = VERTEX_POINT ( 'NONE', #867 ) ;
#453 = EDGE_CURVE ( 'NONE', #385, #601, #375, .T. ) ;
#454 = CARTESIAN_POINT ( 'NONE',  ( -11.68331879213512003, 7.714078201723205019, 11.11793864516132224 ) ) ;
#455 = ORIENTED_EDGE ( 'NONE', *, *, #766, .T. ) ;
#456 = CARTESIAN_POINT ( 'NONE',  ( -2.408641179952662359, 0.9895630205432096593, 0.000000000000000000 ) ) ;
#457 = ADVANCED_FACE ( 'NONE', ( #219 ), #4, .F. ) ;
#458 = AXIS2_PLACEMENT_3D ( 'NONE', #295, #277, #943 ) ;
#459 = DIRECTION ( 'NONE',  ( 0.000000000000000000, 0.000000000000000000, -1.000000000000000000 ) ) ;
#460 = LOCAL_TIME ( 6, 17, 36.00000000000000000, #197 ) ;
#461 = ORIENTED_EDGE ( 'NONE', *, *, #423, .T. ) ;
#462 = CARTESIAN_POINT ( 'NONE',  ( -1.634255756361377543, 2.027746979026365359, 0.000000000000000000 ) ) ;
#463 = DIRECTION ( 'NONE',  ( 0.000000000000000000, -1.000000000000000000, 0.000000000000000000 ) ) ;
#464 = EDGE_CURVE ( 'NONE', #405, #452, #753, .T. ) ;
#465 = CARTESIAN_POINT ( 'NONE',  ( -0.5999999999999999778, 2.529822128134703085, -1.200000000000000030E-05 ) ) ;
#466 = LINE ( 'NONE', #898, #274 ) ;
#467 = CARTESIAN_POINT ( 'NONE',  ( 9.509326000432832160, 10.27740646207855590, 11.14121608963035470 ) ) ;
#468 = ORIENTED_EDGE ( 'NONE', *, *, #695, .F. ) ;
#469 = DIRECTION ( 'NONE',  ( 1.000000000000000000, 0.000000000000000000, 0.000000000000000000 ) ) ;
#470 = ADVANCED_FACE ( 'NONE', ( #84, #573 ), #743, .T. ) ;
#471 = DIRECTION ( 'NONE',  ( 0.000000000000000000, 0.000000000000000000, 1.000000000000000000 ) ) ;
#472 = ORIENTED_EDGE ( 'NONE', *, *, #423, .F. ) ;
#473 = CARTESIAN_POINT ( 'NONE',  ( -1.850251865230340353, 1.832291515499593126, -0.000000000000000000 ) ) ;
#474 = VERTEX_POINT ( 'NONE', #167 ) ;
#475 = CARTESIAN_POINT ( 'NONE',  ( -10.50000000000000000, 1.300000000000000044, 0.000000000000000000 ) ) ;
#476 = VECTOR ( 'NONE', #65, 1000.000000000000000 ) ;
#477 = ORIENTED_EDGE ( 'NONE', *, *, #614, .T. ) ;
#478 = VECTOR ( 'NONE', #575, 1000.000000000000000 ) ;
#479 = CARTESIAN_POINT ( 'NONE',  ( 9.843673541100129043, 9.955766678045158358, 8.590440972410966936 ) ) ;
#480 = ORIENTED_EDGE ( 'NONE', *, *, #726, .T. ) ;
#481 = DIRECTION ( 'NONE',  ( -1.000000000000000000, -0.000000000000000000, 0.000000000000000000 ) ) ;
#482 = CARTESIAN_POINT ( 'NONE',  ( 0.000000000000000000, 0.000000000000000000, 4.000000000000000000 ) ) ;
#483 = CARTESIAN_POINT ( 'NONE',  ( -6.000000000000000000, 0.000000000000000000, 16.00000000000000000 ) ) ;
#484 = ORIENTED_EDGE ( 'NONE', *, *, #1027, .T. ) ;
#485 = ADVANCED_FACE ( 'NONE', ( #492 ), #486, .F. ) ;
#486 = PLANE ( 'NONE',  #653 ) ;
#487 = DIRECTION ( 'NONE',  ( 1.000000000000000000, -0.000000000000000000, -0.000000000000000000 ) ) ;
#488 = CARTESIAN_POINT ( 'NONE',  ( -10.50000000000000000, -1.300000000000000044, -0.09997027095160138099 ) ) ;
#489 = ORIENTED_EDGE ( 'NONE', *, *, #602, .F. ) ;
#490 = CARTESIAN_POINT ( 'NONE',  ( 10.50000000000000000, -1.300000000000000044, -0.09997027095160138099 ) ) ;
#491 = CC_DESIGN_PERSON_AND_ORGANIZATION_ASSIGNMENT ( #612, #105, ( #362 ) ) ;
#492 = FACE_OUTER_BOUND ( 'NONE', #608, .T. ) ;
#493 = CARTESIAN_POINT ( 'NONE',  ( 11.94632831415376728, 7.299673962712884823, 10.11996912003220572 ) ) ;
#494 = CIRCLE ( 'NONE', #719, 1.700000000000000178 ) ;
#495 = DIRECTION ( 'NONE',  ( -0.000000000000000000, -0.000000000000000000, 1.000000000000000000 ) ) ;
#496 = VERTEX_POINT ( 'NONE', #1005 ) ;
#497 = VECTOR ( 'NONE', #668, 1000.000000000000000 ) ;
#498 = CARTESIAN_POINT ( 'NONE',  ( -10.50000000000000000, -1.300000000000000044, -0.09997027095160138099 ) ) ;
#499 = ADVANCED_FACE ( 'NONE', ( #577 ), #916, .T. ) ;
#500 = CARTESIAN_POINT ( 'NONE',  ( 0.000000000000000000, 0.000000000000000000, -1.200000000000000030E-05 ) ) ;
#501 = DIRECTION ( 'NONE',  ( -0.000000000000000000, 1.000000000000000000, 0.000000000000000000 ) ) ;
#502 = ORIENTED_EDGE ( 'NONE', *, *, #138, .F. ) ;
#503 = APPLICATION_CONTEXT ( 'configuration controlled 3d designs of mechanical parts and assemblies' ) ;
#504 = CARTESIAN_POINT ( 'NONE',  ( -9.047843225473618745, 10.68357329672709000, 9.730474509234987579 ) ) ;
#505 = LINE ( 'NONE', #831, #36 ) ;
#506 = FACE_OUTER_BOUND ( 'NONE', #698, .T. ) ;
#507 = LINE ( 'NONE', #833, #892 ) ;
#508 = VERTEX_POINT ( 'NONE', #903 ) ;
#509 = CARTESIAN_POINT ( 'NONE',  ( -9.119842274437594654, 10.62218046192215226, 10.52516039174336804 ) ) ;
#510 = CARTESIAN_POINT ( 'NONE',  ( 11.90340548161031364, 7.369530314402258142, 9.503034309753191522 ) ) ;
#511 = PERSON_AND_ORGANIZATION ( #234, #57 ) ;
#512 = VERTEX_POINT ( 'NONE', #90 ) ;
#513 = AXIS2_PLACEMENT_3D ( 'NONE', #398, #798, #1056 ) ;
#514 = CARTESIAN_POINT ( 'NONE',  ( -10.72380529476374278, 9.000000000000252243, 11.70000000000124984 ) ) ;
#515 = AXIS2_PLACEMENT_3D ( 'NONE', #488, #977, #426 ) ;
#516 = CARTESIAN_POINT ( 'NONE',  ( -2.081978247435513296, -1.594878658085206125, 0.000000000000000000 ) ) ;
#517 = CARTESIAN_POINT ( 'NONE',  ( 10.88457178719637142, 8.808441270803237799, 11.70000000000002238 ) ) ;
#518 =( NAMED_UNIT ( * ) SI_UNIT ( $, .STERADIAN. ) SOLID_ANGLE_UNIT ( ) );
#519 = ORIENTED_EDGE ( 'NONE', *, *, #686, .T. ) ;
#520 = CYLINDRICAL_SURFACE ( 'NONE', #308, 14.00000000000000000 ) ;
#521 = EDGE_CURVE ( 'NONE', #914, #337, #811, .T. ) ;
#522 = CARTESIAN_POINT ( 'NONE',  ( -9.511878329221135075, 10.27300072430434952, 8.867760934432130426 ) ) ;
#523 = CARTESIAN_POINT ( 'NONE',  ( -11.32690702869583532, 8.231531534232544800, 11.52987977232460182 ) ) ;
#524 = PERSON_AND_ORGANIZATION_ROLE ( 'design_supplier' ) ;
#525 = ORIENTED_EDGE ( 'NONE', *, *, #709, .F. ) ;
#526 = FACE_BOUND ( 'NONE', #556, .T. ) ;
#527 = CARTESIAN_POINT ( 'NONE',  ( 2.270144640882241216, -1.313331601357424328, 0.000000000000000000 ) ) ;
#528 = EDGE_CURVE ( 'NONE', #852, #315, #88, .T. ) ;
#529 = CARTESIAN_POINT ( 'NONE',  ( 0.000000000000000000, 0.000000000000000000, 0.000000000000000000 ) ) ;
#530 = COORDINATED_UNIVERSAL_TIME_OFFSET ( 5, 0, .BEHIND. ) ;
#531 = VERTEX_POINT ( 'NONE', #406 ) ;
#532 = CARTESIAN_POINT ( 'NONE',  ( 0.000000000000000000, 0.000000000000000000, 16.00000000000000000 ) ) ;
#533 = CIRCLE ( 'NONE', #204, 19.00000000000000000 ) ;
#534 = CIRCLE ( 'NONE', #703, 14.00000000000000000 ) ;
#535 = CARTESIAN_POINT ( 'NONE',  ( -19.00000000000000000, 9.000000000000000000, 10.00000000000000000 ) ) ;
#536 = EDGE_CURVE ( 'NONE', #418, #45, #10, .T. ) ;
#537 = PERSON_AND_ORGANIZATION ( #234, #57 ) ;
#538 = ORIENTED_EDGE ( 'NONE', *, *, #91, .T. ) ;
#539 = FACE_OUTER_BOUND ( 'NONE', #716, .T. ) ;
#540 = CARTESIAN_POINT ( 'NONE',  ( -11.90332728759990921, 7.369655839099086947, 10.49710780759694018 ) ) ;
#541 = ORIENTED_EDGE ( 'NONE', *, *, #436, .T. ) ;
#542 = EDGE_CURVE ( 'NONE', #974, #162, #992, .T. ) ;
#543 = PLANE ( 'NONE',  #758 ) ;
#544 = DIRECTION ( 'NONE',  ( 1.000000000000000000, 0.000000000000000000, -0.000000000000000000 ) ) ;
#545 = CARTESIAN_POINT ( 'NONE',  ( -2.600069548653550999, -0.3444314227433182829, 0.000000000000000000 ) ) ;
#546 = VERTEX_POINT ( 'NONE', #824 ) ;
#547 = DIRECTION ( 'NONE',  ( 1.000000000000000000, -0.000000000000000000, -0.000000000000000000 ) ) ;
#548 = EDGE_CURVE ( 'NONE', #876, #1053, #419, .T. ) ;
#549 = AXIS2_PLACEMENT_3D ( 'NONE', #791, #964, #796 ) ;
#550 = VECTOR ( 'NONE', #582, 1000.000000000000000 ) ;
#551 = DIRECTION ( 'NONE',  ( 0.000000000000000000, 0.000000000000000000, 1.000000000000000000 ) ) ;
#552 = PRODUCT_DEFINITION_FORMATION_WITH_SPECIFIED_SOURCE ( '�', '', #285, .NOT_KNOWN. ) ;
#553 = CARTESIAN_POINT ( 'NONE',  ( -10.50000000000000000, 0.000000000000000000, 0.000000000000000000 ) ) ;
#554 = ORIENTED_EDGE ( 'NONE', *, *, #13, .F. ) ;
#555 = CARTESIAN_POINT ( 'NONE',  ( -2.209866293823954386, 1.378406442902269768, 0.000000000000000000 ) ) ;
#556 = EDGE_LOOP ( 'NONE', ( #1030, #650, #955, #706 ) ) ;
#557 = LINE ( 'NONE', #380, #2 ) ;
#558 = FACE_OUTER_BOUND ( 'NONE', #801, .T. ) ;
#559 = DIRECTION ( 'NONE',  ( 1.000000000000000000, 0.000000000000000000, 0.000000000000000000 ) ) ;
#560 = CARTESIAN_POINT ( 'NONE',  ( 9.118810940736773674, 10.62306291505445799, 9.477880689636080547 ) ) ;
#561 = ORIENTED_EDGE ( 'NONE', *, *, #786, .F. ) ;
#562 = DIRECTION ( 'NONE',  ( 1.000000000000000000, 0.000000000000000000, 0.000000000000000000 ) ) ;
#563 = LINE ( 'NONE', #553, #689 ) ;
#564 = ORIENTED_EDGE ( 'NONE', *, *, #528, .T. ) ;
#565 = CARTESIAN_POINT ( 'NONE',  ( 10.10522701328291006, 9.690252514121260319, 8.443211237761941490 ) ) ;
#566 = ORIENTED_EDGE ( 'NONE', *, *, #464, .F. ) ;
#567 = CARTESIAN_POINT ( 'NONE',  ( 2.600000000000000089, 0.000000000000000000, 16.00000000000000000 ) ) ;
#568 = VECTOR ( 'NONE', #318, 1000.000000000000000 ) ;
#569 = DIRECTION ( 'NONE',  ( 0.000000000000000000, 0.000000000000000000, 1.000000000000000000 ) ) ;
#570 = ADVANCED_FACE ( 'NONE', ( #340, #180 ), #671, .F. ) ;
#571 = LINE ( 'NONE', #182, #393 ) ;
#572 = ORIENTED_EDGE ( 'NONE', *, *, #201, .T. ) ;
#573 = FACE_OUTER_BOUND ( 'NONE', #267, .T. ) ;
#574 = DIRECTION ( 'NONE',  ( -0.000000000000000000, -0.000000000000000000, 1.000000000000000000 ) ) ;
#575 = DIRECTION ( 'NONE',  ( 0.000000000000000000, 1.000000000000000000, -0.000000000000000000 ) ) ;
#576 = EDGE_LOOP ( 'NONE', ( #246, #164, #768, #76 ) ) ;
#577 = FACE_OUTER_BOUND ( 'NONE', #8, .T. ) ;
#578 = CARTESIAN_POINT ( 'NONE',  ( 11.68536191144594838, 7.710987493569489537, 11.11449162743906705 ) ) ;
#579 = PLANE ( 'NONE',  #1000 ) ;
#580 = EDGE_LOOP ( 'NONE', ( #784, #658, #789, #55 ) ) ;
#581 = EDGE_CURVE ( 'NONE', #995, #45, #505, .T. ) ;
#582 = DIRECTION ( 'NONE',  ( 0.000000000000000000, -1.000000000000000000, 0.000000000000000000 ) ) ;
#583 = CARTESIAN_POINT ( 'NONE',  ( 10.72380529476361488, 9.000000000000204281, 11.70000000000065477 ) ) ;
#584 = AXIS2_PLACEMENT_3D ( 'NONE', #334, #676, #174 ) ;
#585 = DIRECTION ( 'NONE',  ( -0.000000000000000000, -0.000000000000000000, -1.000000000000000000 ) ) ;
#586 = ORIENTED_EDGE ( 'NONE', *, *, #996, .F. ) ;
#587 = CARTESIAN_POINT ( 'NONE',  ( -9.028322918593271851, 10.69997127470831622, 10.13622890001263066 ) ) ;
#588 = DIRECTION ( 'NONE',  ( 0.000000000000000000, 0.000000000000000000, -1.000000000000000000 ) ) ;
#589 = LINE ( 'NONE', #988, #999 ) ;
#590 = DIRECTION ( 'NONE',  ( 0.000000000000000000, 0.000000000000000000, -1.000000000000000000 ) ) ;
#591 = ORIENTED_EDGE ( 'NONE', *, *, #686, .F. ) ;
#592 = CARTESIAN_POINT ( 'NONE',  ( -10.72380529476361133, 9.000000000000000000, 8.300000000000000711 ) ) ;
#593 = DIRECTION ( 'NONE',  ( -1.000000000000000000, 0.000000000000000000, 0.000000000000000000 ) ) ;
#594 = CARTESIAN_POINT ( 'NONE',  ( 11.45770097412407829, 8.045736335212733792, 11.41094936464103959 ) ) ;
#595 = EDGE_CURVE ( 'NONE', #1063, #622, #424, .T. ) ;
#596 = PERSON_AND_ORGANIZATION ( #234, #57 ) ;
#597 = ORIENTED_EDGE ( 'NONE', *, *, #224, .T. ) ;
#598 = CARTESIAN_POINT ( 'NONE',  ( 2.599999999999999645, -0.3449632722246336325, -0.000000000000000000 ) ) ;
#599 = CARTESIAN_POINT ( 'NONE',  ( 0.000000000000000000, 1.300000000000000044, 0.000000000000000000 ) ) ;
#600 = PERSON_AND_ORGANIZATION_ROLE ( 'creator' ) ;
#601 = VERTEX_POINT ( 'NONE', #306 ) ;
#602 = EDGE_CURVE ( 'NONE', #637, #945, #781, .T. ) ;
#603 = VECTOR ( 'NONE', #1055, 1000.000000000000000 ) ;
#604 = AXIS2_PLACEMENT_3D ( 'NONE', #490, #9, #815 ) ;
#605 = CARTESIAN_POINT ( 'NONE',  ( 0.6767371672055961795, -2.533830729021501416, 0.000000000000000000 ) ) ;
#606 = FACE_OUTER_BOUND ( 'NONE', #921, .T. ) ;
#607 = DIRECTION ( 'NONE',  ( 1.000000000000000000, 0.000000000000000000, 0.000000000000000000 ) ) ;
#608 = EDGE_LOOP ( 'NONE', ( #675, #321, #566, #101 ) ) ;
#609 = EDGE_CURVE ( 'NONE', #208, #531, #656, .T. ) ;
#610 = CARTESIAN_POINT ( 'NONE',  ( 1.313216681092871818, -2.270342840037188559, -0.000000000000000000 ) ) ;
#611 = DIRECTION ( 'NONE',  ( 0.000000000000000000, 0.000000000000000000, 1.000000000000000000 ) ) ;
#612 = PERSON_AND_ORGANIZATION ( #234, #57 ) ;
#613 = ORIENTED_EDGE ( 'NONE', *, *, #745, .F. ) ;
#614 = EDGE_CURVE ( 'NONE', #422, #405, #563, .T. ) ;
#615 = CARTESIAN_POINT ( 'NONE',  ( 0.8803804287024865616, 2.463630117896262739, -0.000000000000000000 ) ) ;
#616 = DIRECTION ( 'NONE',  ( 0.000000000000000000, 0.000000000000000000, 1.000000000000000000 ) ) ;
#617 = ORIENTED_EDGE ( 'NONE', *, *, #609, .T. ) ;
#618 = VECTOR ( 'NONE', #11, 1000.000000000000000 ) ;
#619 = CIRCLE ( 'NONE', #819, 1.700000000000000178 ) ;
#620 = CARTESIAN_POINT ( 'NONE',  ( -0.5999999999999998668, 9.000000000000000000, 10.00000000000000000 ) ) ;
#621 = DIRECTION ( 'NONE',  ( 0.000000000000000000, 0.000000000000000000, 1.000000000000000000 ) ) ;
#622 = VERTEX_POINT ( 'NONE', #887 ) ;
#623 = CARTESIAN_POINT ( 'NONE',  ( 10.37234568834891668, 9.406446595082066153, 11.66287729469195966 ) ) ;
#624 = CARTESIAN_POINT ( 'NONE',  ( -0.5999999999999999778, 18.99052395275075256, 4.000000000000000000 ) ) ;
#625 = DIRECTION ( 'NONE',  ( 0.000000000000000000, 1.000000000000000000, -0.000000000000000000 ) ) ;
#626 = ORIENTED_EDGE ( 'NONE', *, *, #699, .T. ) ;
#627 = PLANE ( 'NONE',  #156 ) ;
#628 = DIRECTION ( 'NONE',  ( 1.000000000000000000, 0.000000000000000000, 0.000000000000000000 ) ) ;
#629 = CARTESIAN_POINT ( 'NONE',  ( -0.5999999999999998668, 9.000000000000000000, 11.70000000000000107 ) ) ;
#630 = CARTESIAN_POINT ( 'NONE',  ( -19.00000000000000000, 9.000000000000000000, 10.00000000000000000 ) ) ;
#631 = EDGE_CURVE ( 'NONE', #1053, #496, #293, .T. ) ;
#632 = VECTOR ( 'NONE', #301, 1000.000000000000000 ) ;
#633 = AXIS2_PLACEMENT_3D ( 'NONE', #644, #729, #711 ) ;
#634 = CARTESIAN_POINT ( 'NONE',  ( -10.50000000000000000, 1.300000000000000044, -0.09997027095160138099 ) ) ;
#635 = LOCAL_TIME ( 6, 17, 36.00000000000000000, #778 ) ;
#636 = DIRECTION ( 'NONE',  ( 0.000000000000000000, -1.000000000000000000, 0.000000000000000000 ) ) ;
#637 = VERTEX_POINT ( 'NONE', #314 ) ;
#638 = CARTESIAN_POINT ( 'NONE',  ( 9.170033982407341355, 10.57908256746159203, 10.64114120038147249 ) ) ;
#639 = VERTEX_POINT ( 'NONE', #70 ) ;
#640 = EDGE_CURVE ( 'NONE', #162, #713, #875, .T. ) ;
#641 = LINE ( 'NONE', #80, #255 ) ;
#642 = PLANE ( 'NONE',  #256 ) ;
#643 = ORIENTED_EDGE ( 'NONE', *, *, #731, .T. ) ;
#644 = CARTESIAN_POINT ( 'NONE',  ( 0.000000000000000000, 0.000000000000000000, -1.200000000000000030E-05 ) ) ;
#645 = EDGE_LOOP ( 'NONE', ( #525, #439, #564, #978 ) ) ;
#646 = DIRECTION ( 'NONE',  ( 0.000000000000000000, 0.000000000000000000, 1.000000000000000000 ) ) ;
#647 = ADVANCED_FACE ( 'NONE', ( #226, #558 ), #642, .F. ) ;
#648 = FACE_OUTER_BOUND ( 'NONE', #968, .T. ) ;
#649 = CARTESIAN_POINT ( 'NONE',  ( -0.5999999999999999778, 18.99052395275075256, 0.000000000000000000 ) ) ;
#650 = ORIENTED_EDGE ( 'NONE', *, *, #330, .T. ) ;
#651 = CYLINDRICAL_SURFACE ( 'NONE', #102, 19.00000000000000000 ) ;
#652 = AXIS2_PLACEMENT_3D ( 'NONE', #482, #569, #404 ) ;
#653 = AXIS2_PLACEMENT_3D ( 'NONE', #498, #161, #660 ) ;
#654 = EDGE_CURVE ( 'NONE', #148, #81, #619, .T. ) ;
#655 = DIRECTION ( 'NONE',  ( -1.000000000000000000, -0.000000000000000000, 0.000000000000000000 ) ) ;
#656 = CIRCLE ( 'NONE', #22, 14.00000000000000000 ) ;
#657 = DIRECTION ( 'NONE',  ( 1.000000000000000000, -0.000000000000000000, -0.000000000000000000 ) ) ;
#658 = ORIENTED_EDGE ( 'NONE', *, *, #996, .T. ) ;
#659 = CARTESIAN_POINT ( 'NONE',  ( -10.55156718449564224, 9.205227550983524409, 11.70000000000000107 ) ) ;
#660 = DIRECTION ( 'NONE',  ( 0.000000000000000000, 0.000000000000000000, 1.000000000000000000 ) ) ;
#661 = CARTESIAN_POINT ( 'NONE',  ( 11.90496487544927184, 7.367007609010136626, 10.48855529786681018 ) ) ;
#662 = FACE_OUTER_BOUND ( 'NONE', #236, .T. ) ;
#663 = ORIENTED_EDGE ( 'NONE', *, *, #1023, .F. ) ;
#664 = EDGE_CURVE ( 'NONE', #888, #512, #722, .T. ) ;
#665 = DIRECTION ( 'NONE',  ( 0.000000000000000000, 0.000000000000000000, 1.000000000000000000 ) ) ;
#666 = CARTESIAN_POINT ( 'NONE',  ( -0.5999999999999999778, 0.000000000000000000, 4.000000000000000000 ) ) ;
#667 = DIRECTION ( 'NONE',  ( 1.000000000000000000, 0.000000000000000000, -0.000000000000000000 ) ) ;
#668 = DIRECTION ( 'NONE',  ( -0.000000000000000000, -0.000000000000000000, 1.000000000000000000 ) ) ;
#669 = ORIENTED_EDGE ( 'NONE', *, *, #918, .T. ) ;
#670 = CARTESIAN_POINT ( 'NONE',  ( -9.291948759307684824, 10.47216675020139931, 9.141253131056851444 ) ) ;
#671 = PLANE ( 'NONE',  #220 ) ;
#672 = CARTESIAN_POINT ( 'NONE',  ( 11.45560253456880062, 8.048713274734506484, 8.587104102551560203 ) ) ;
#673 = AXIS2_PLACEMENT_3D ( 'NONE', #535, #700, #1028 ) ;
#674 = FACE_OUTER_BOUND ( 'NONE', #896, .T. ) ;
#675 = ORIENTED_EDGE ( 'NONE', *, *, #386, .T. ) ;
#676 = DIRECTION ( 'NONE',  ( -0.000000000000000000, -0.000000000000000000, -1.000000000000000000 ) ) ;
#677 = CYLINDRICAL_SURFACE ( 'NONE', #1031, 2.600000000000000089 ) ;
#678 = ORIENTED_EDGE ( 'NONE', *, *, #47, .F. ) ;
#679 = APPLICATION_CONTEXT ( 'configuration controlled 3d designs of mechanical parts and assemblies' ) ;
#680 = CARTESIAN_POINT ( 'NONE',  ( -6.000000000000000000, 0.000000000000000000, 0.000000000000000000 ) ) ;
#681 = EDGE_CURVE ( 'NONE', #213, #713, #1035, .T. ) ;
#682 = CARTESIAN_POINT ( 'NONE',  ( 10.72380529476361133, 9.000000000000000000, 8.300000000000000711 ) ) ;
#683 = DATE_TIME_ROLE ( 'creation_date' ) ;
#684 = ORIENTED_EDGE ( 'NONE', *, *, #330, .F. ) ;
#685 = CARTESIAN_POINT ( 'NONE',  ( -11.77713143436211141, 7.570080073119063613, 9.073250404111556477 ) ) ;
#686 = EDGE_CURVE ( 'NONE', #272, #395, #534, .T. ) ;
#687 = ORIENTED_EDGE ( 'NONE', *, *, #218, .F. ) ;
#688 = AXIS2_PLACEMENT_3D ( 'NONE', #975, #237, #628 ) ;
#689 = VECTOR ( 'NONE', #636, 1000.000000000000000 ) ;
#690 = CARTESIAN_POINT ( 'NONE',  ( -9.028254920067322331, 10.70002864950650334, 9.864488971337449286 ) ) ;
#691 = CARTESIAN_POINT ( 'NONE',  ( 2.600000000000000533, 0.2934883227063208588, -0.000000000000000000 ) ) ;
#692 = DATE_AND_TIME ( #271, #912 ) ;
#693 = ORIENTED_EDGE ( 'NONE', *, *, #536, .T. ) ;
#694 = FACE_OUTER_BOUND ( 'NONE', #298, .T. ) ;
#695 = EDGE_CURVE ( 'NONE', #1063, #496, #841, .T. ) ;
#696 = CARTESIAN_POINT ( 'NONE',  ( -11.77429632712486196, 7.574489190830802521, 10.93343484966565171 ) ) ;
#697 = APPROVAL_ROLE ( '' ) ;
#698 = EDGE_LOOP ( 'NONE', ( #1036, #484, #702, #78 ) ) ;
#699 = EDGE_CURVE ( 'NONE', #272, #496, #60, .T. ) ;
#700 = DIRECTION ( 'NONE',  ( 1.000000000000000000, -0.000000000000000000, -0.000000000000000000 ) ) ;
#701 = DIRECTION ( 'NONE',  ( 0.000000000000000000, 0.000000000000000000, 1.000000000000000000 ) ) ;
#702 = ORIENTED_EDGE ( 'NONE', *, *, #122, .T. ) ;
#703 = AXIS2_PLACEMENT_3D ( 'NONE', #950, #971, #50 ) ;
#704 = CARTESIAN_POINT ( 'NONE',  ( 1.634374254348486266, 2.027707120433111410, -0.000000000000000000 ) ) ;
#705 = DIRECTION ( 'NONE',  ( -0.000000000000000000, -0.000000000000000000, -1.000000000000000000 ) ) ;
#706 = ORIENTED_EDGE ( 'NONE', *, *, #79, .T. ) ;
#707 = FACE_OUTER_BOUND ( 'NONE', #747, .T. ) ;
#708 = CARTESIAN_POINT ( 'NONE',  ( 0.5999999999999998668, 9.000000000000000000, 8.300000000000000711 ) ) ;
#709 = EDGE_CURVE ( 'NONE', #869, #98, #902, .T. ) ;
#710 = ORIENTED_EDGE ( 'NONE', *, *, #528, .F. ) ;
#711 = DIRECTION ( 'NONE',  ( 1.000000000000000000, 0.000000000000000000, 0.000000000000000000 ) ) ;
#712 = DIRECTION ( 'NONE',  ( -0.000000000000000000, -0.000000000000000000, 1.000000000000000000 ) ) ;
#713 = VERTEX_POINT ( 'NONE', #262 ) ;
#714 = EDGE_CURVE ( 'NONE', #83, #452, #935, .T. ) ;
#715 = CARTESIAN_POINT ( 'NONE',  ( -2.600000000000000089, 3.184081677783117698E-16, -6.000000000000000152E-06 ) ) ;
#716 = EDGE_LOOP ( 'NONE', ( #154, #1051, #357, #142 ) ) ;
#717 = ORIENTED_EDGE ( 'NONE', *, *, #224, .F. ) ;
#718 = CLOSED_SHELL ( 'NONE', ( #963, #396, #416, #166, #470, #771, #499, #949, #296, #32, #835, #107, #231, #872, #570, #647, #1060, #457, #759, #886, #485, #907, #842, #1040, #270, #849 ) ) ;
#719 = AXIS2_PLACEMENT_3D ( 'NONE', #420, #749, #355 ) ;
#720 = AXIS2_PLACEMENT_3D ( 'NONE', #630, #547, #870 ) ;
#721 = LINE ( 'NONE', #133, #755 ) ;
#722 = LINE ( 'NONE', #54, #980 ) ;
#723 = DIRECTION ( 'NONE',  ( 0.000000000000000000, 0.000000000000000000, 1.000000000000000000 ) ) ;
#724 = CARTESIAN_POINT ( 'NONE',  ( 9.352038589846049632, 10.41947306943599116, 10.96610112301624618 ) ) ;
#725 = ORIENTED_EDGE ( 'NONE', *, *, #356, .F. ) ;
#726 = EDGE_CURVE ( 'NONE', #639, #508, #446, .T. ) ;
#727 = LINE ( 'NONE', #732, #857 ) ;
#728 = ORIENTED_EDGE ( 'NONE', *, *, #374, .T. ) ;
#729 = DIRECTION ( 'NONE',  ( -0.000000000000000000, -0.000000000000000000, 1.000000000000000000 ) ) ;
#730 = EDGE_LOOP ( 'NONE', ( #427, #1003, #669, #381 ) ) ;
#731 = EDGE_CURVE ( 'NONE', #512, #337, #3, .T. ) ;
#732 = CARTESIAN_POINT ( 'NONE',  ( 0.5999999999999999778, 2.529822128134703085, -1.200000000000000030E-05 ) ) ;
#733 = CARTESIAN_POINT ( 'NONE',  ( 6.000000000000000000, 1.300000000000000044, 16.00000000000000000 ) ) ;
#734 = ORIENTED_EDGE ( 'NONE', *, *, #311, .T. ) ;
#735 = CARTESIAN_POINT ( 'NONE',  ( 6.000000000000000000, 1.300000000000000044, -0.09997027095160138099 ) ) ;
#736 = VECTOR ( 'NONE', #655, 1000.000000000000000 ) ;
#737 = CIRCLE ( 'NONE', #155, 14.00000000000000000 ) ;
#738 = EDGE_CURVE ( 'NONE', #546, #1011, #268, .T. ) ;
#739 = CARTESIAN_POINT ( 'NONE',  ( 11.94592245563050525, 7.300338131588374857, 9.870962191954024689 ) ) ;
#740 = AXIS2_PLACEMENT_3D ( 'NONE', #93, #741, #417 ) ;
#741 = DIRECTION ( 'NONE',  ( -1.000000000000000000, 0.000000000000000000, 0.000000000000000000 ) ) ;
#742 = ORIENTED_EDGE ( 'NONE', *, *, #956, .F. ) ;
#743 = CYLINDRICAL_SURFACE ( 'NONE', #584, 14.00000000000000000 ) ;
#744 = CARTESIAN_POINT ( 'NONE',  ( 2.600000000000000089, 0.000000000000000000, -6.000000000000000152E-06 ) ) ;
#745 = EDGE_CURVE ( 'NONE', #106, #806, #931, .T. ) ;
#746 = CARTESIAN_POINT ( 'NONE',  ( 2.600000000000000089, 0.000000000000000000, -1.200000000000000030E-05 ) ) ;
#747 = EDGE_LOOP ( 'NONE', ( #229, #480, #1022, #554 ) ) ;
#748 = CARTESIAN_POINT ( 'NONE',  ( 0.5999999999999999778, 0.000000000000000000, 0.000000000000000000 ) ) ;
#749 = DIRECTION ( 'NONE',  ( 1.000000000000000000, -0.000000000000000000, 0.000000000000000000 ) ) ;
#750 = CARTESIAN_POINT ( 'NONE',  ( -10.50000000000000000, 1.300000000000000044, -0.09997027095160138099 ) ) ;
#751 = ORIENTED_EDGE ( 'NONE', *, *, #602, .T. ) ;
#752 = CARTESIAN_POINT ( 'NONE',  ( -10.37396001519468491, 9.404709442637157579, 11.66344665213694931 ) ) ;
#753 = LINE ( 'NONE', #923, #344 ) ;
#754 = CARTESIAN_POINT ( 'NONE',  ( 11.51689599024726007, 7.960616816174120203, 8.650113106382692152 ) ) ;
#755 = VECTOR ( 'NONE', #144, 1000.000000000000000 ) ;
#756 = LINE ( 'NONE', #159, #292 ) ;
#757 = ORIENTED_EDGE ( 'NONE', *, *, #581, .F. ) ;
#758 = AXIS2_PLACEMENT_3D ( 'NONE', #865, #58, #379 ) ;
#759 = ADVANCED_FACE ( 'NONE', ( #165 ), #829, .F. ) ;
#760 = CARTESIAN_POINT ( 'NONE',  ( 1.594878658085105760, -2.081978247435756213, 0.000000000000000000 ) ) ;
#761 = CARTESIAN_POINT ( 'NONE',  ( -0.5999999999999998668, 9.000000000000000000, 8.300000000000000711 ) ) ;
#762 = APPROVAL_DATE_TIME ( #367, #969 ) ;
#763 = EDGE_LOOP ( 'NONE', ( #233, #319 ) ) ;
#764 = CARTESIAN_POINT ( 'NONE',  ( -10.01759284330493927, 9.783426788352441505, 11.52219807014628472 ) ) ;
#765 = CARTESIAN_POINT ( 'NONE',  ( -11.03982175519196929, 8.612738812327586757, 11.66766443662072206 ) ) ;
#766 = EDGE_CURVE ( 'NONE', #272, #531, #89, .T. ) ;
#767 = APPLICATION_PROTOCOL_DEFINITION ( 'international standard', 'config_control_design', 1994, #679 ) ;
#768 = ORIENTED_EDGE ( 'NONE', *, *, #536, .F. ) ;
#769 = CARTESIAN_POINT ( 'NONE',  ( 0.000000000000000000, 0.000000000000000000, 0.000000000000000000 ) ) ;
#770 = CARTESIAN_POINT ( 'NONE',  ( -11.04168123444022420, 8.610387747206914355, 8.332736012061415565 ) ) ;
#771 = ADVANCED_FACE ( 'NONE', ( #539 ), #520, .T. ) ;
#772 = ORIENTED_EDGE ( 'NONE', *, *, #595, .F. ) ;
#773 = AXIS2_PLACEMENT_3D ( 'NONE', #341, #329, #259 ) ;
#774 = LOCAL_TIME ( 6, 17, 36.00000000000000000, #40 ) ;
#775 = CC_DESIGN_APPROVAL ( #939, ( #362 ) ) ;
#776 = CARTESIAN_POINT ( 'NONE',  ( -1.313163450857918635, -2.270214330881944687, 0.000000000000000000 ) ) ;
#777 = FACE_OUTER_BOUND ( 'NONE', #278, .T. ) ;
#778 = COORDINATED_UNIVERSAL_TIME_OFFSET ( 5, 0, .BEHIND. ) ;
#779 = ORIENTED_EDGE ( 'NONE', *, *, #609, .F. ) ;
#780 = CARTESIAN_POINT ( 'NONE',  ( 1.951074882875576399, 1.724777374260472396, -0.000000000000000000 ) ) ;
#781 = LINE ( 'NONE', #863, #171 ) ;
#782 = ORIENTED_EDGE ( 'NONE', *, *, #407, .T. ) ;
#783 = CARTESIAN_POINT ( 'NONE',  ( 1.519706945644463181, 2.115203106444731418, 0.000000000000000000 ) ) ;
#784 = ORIENTED_EDGE ( 'NONE', *, *, #238, .F. ) ;
#785 = CARTESIAN_POINT ( 'NONE',  ( 9.170132238024915949, 10.57899323120674140, 9.358776623762611990 ) ) ;
#786 = EDGE_CURVE ( 'NONE', #713, #852, #412, .T. ) ;
#787 = DIRECTION ( 'NONE',  ( 1.000000000000000000, 0.000000000000000000, 0.000000000000000000 ) ) ;
#788 = CARTESIAN_POINT ( 'NONE',  ( -0.5999999999999998668, 9.000000000000000000, 10.00000000000000000 ) ) ;
#789 = ORIENTED_EDGE ( 'NONE', *, *, #654, .F. ) ;
#790 = FACE_OUTER_BOUND ( 'NONE', #730, .T. ) ;
#791 = CARTESIAN_POINT ( 'NONE',  ( -19.00000000000000000, 9.000000000000000000, 10.00000000000000000 ) ) ;
#792 = DIRECTION ( 'NONE',  ( 0.000000000000000000, 0.000000000000000000, 1.000000000000000000 ) ) ;
#793 = CARTESIAN_POINT ( 'NONE',  ( 6.000000000000000000, 0.000000000000000000, 16.00000000000000000 ) ) ;
#794 = CARTESIAN_POINT ( 'NONE',  ( 9.119041486028454102, 10.62286516859881047, 10.52269981392162101 ) ) ;
#795 = ORIENTED_EDGE ( 'NONE', *, *, #152, .T. ) ;
#796 = DIRECTION ( 'NONE',  ( 0.000000000000000000, 0.000000000000000000, -1.000000000000000000 ) ) ;
#797 = DIRECTION ( 'NONE',  ( -1.000000000000000000, 0.000000000000000000, 0.000000000000000000 ) ) ;
#798 = DIRECTION ( 'NONE',  ( 0.000000000000000000, 0.000000000000000000, 1.000000000000000000 ) ) ;
#799 = EDGE_CURVE ( 'NONE', #213, #337, #279, .T. ) ;
#800 = CARTESIAN_POINT ( 'NONE',  ( -2.348712715335543599, 1.124693889828766391, -0.000000000000000000 ) ) ;
#801 = EDGE_LOOP ( 'NONE', ( #1044, #349, #371, #73, #183, #933 ) ) ;
#802 = VECTOR ( 'NONE', #915, 1000.000000000000000 ) ;
#803 = CYLINDRICAL_SURFACE ( 'NONE', #891, 2.600000000000000089 ) ;
#804 = ORIENTED_EDGE ( 'NONE', *, *, #1023, .T. ) ;
#805 = CARTESIAN_POINT ( 'NONE',  ( 9.290647558218967816, 10.47331327697886749, 9.143416653029152741 ) ) ;
#806 = VERTEX_POINT ( 'NONE', #514 ) ;
#807 = CARTESIAN_POINT ( 'NONE',  ( 0.5999999999999998668, 9.000000000000000000, 10.00000000000000000 ) ) ;
#808 = DIRECTION ( 'NONE',  ( 1.000000000000000000, 0.000000000000000000, -0.000000000000000000 ) ) ;
#809 = PLANE ( 'NONE',  #740 ) ;
#810 = ORIENTED_EDGE ( 'NONE', *, *, #152, .F. ) ;
#811 = LINE ( 'NONE', #666, #191 ) ;
#812 = LINE ( 'NONE', #1039, #445 ) ;
#813 = DIRECTION ( 'NONE',  ( 1.000000000000000000, -0.000000000000000000, -0.000000000000000000 ) ) ;
#814 = ORIENTED_EDGE ( 'NONE', *, *, #766, .F. ) ;
#815 = DIRECTION ( 'NONE',  ( 0.000000000000000000, 0.000000000000000000, -1.000000000000000000 ) ) ;
#816 = DIRECTION ( 'NONE',  ( -0.000000000000000000, -0.000000000000000000, -1.000000000000000000 ) ) ;
#817 = AXIS2_PLACEMENT_3D ( 'NONE', #1020, #49, #544 ) ;
#818 = EDGE_CURVE ( 'NONE', #51, #639, #199, .T. ) ;
#819 = AXIS2_PLACEMENT_3D ( 'NONE', #788, #797, #621 ) ;
#820 = CARTESIAN_POINT ( 'NONE',  ( 0.000000000000000000, 0.000000000000000000, 16.00000000000000000 ) ) ;
#821 = CC_DESIGN_SECURITY_CLASSIFICATION ( #362, ( #552 ) ) ;
#822 = FACE_OUTER_BOUND ( 'NONE', #284, .T. ) ;
#823 = EDGE_LOOP ( 'NONE', ( #489, #472, #198, #834 ) ) ;
#824 = CARTESIAN_POINT ( 'NONE',  ( -6.000000000000000000, -1.300000000000000044, 0.000000000000000000 ) ) ;
#825 = PRODUCT_DEFINITION ( '�', '', #552, #214 ) ;
#826 = CARTESIAN_POINT ( 'NONE',  ( 14.00000000000000000, 1.714505518806294638E-15, 16.00000000000000000 ) ) ;
#827 = LINE ( 'NONE', #483, #242 ) ;
#828 = ORIENTED_EDGE ( 'NONE', *, *, #695, .T. ) ;
#829 = PLANE ( 'NONE',  #604 ) ;
#830 = CARTESIAN_POINT ( 'NONE',  ( -9.592487695948898718, 10.19791902210260304, 11.21088649228975775 ) ) ;
#831 = CARTESIAN_POINT ( 'NONE',  ( 0.000000000000000000, 1.300000000000000044, 16.00000000000000000 ) ) ;
#832 = CARTESIAN_POINT ( 'NONE',  ( 11.25500529808220485, 8.327020506907691910, 8.435553284710737287 ) ) ;
#833 = CARTESIAN_POINT ( 'NONE',  ( -19.00000000000000000, 9.000000000000000000, 11.70000000000000107 ) ) ;
#834 = ORIENTED_EDGE ( 'NONE', *, *, #6, .T. ) ;
#835 = ADVANCED_FACE ( 'NONE', ( #444, #526, #43 ), #30, .F. ) ;
#836 = VECTOR ( 'NONE', #808, 1000.000000000000000 ) ;
#837 = CARTESIAN_POINT ( 'NONE',  ( -0.6000001182283759560, 2.529936706146719949, -8.999999999999988370E-06 ) ) ;
#838 = CIRCLE ( 'NONE', #688, 14.00000000000000000 ) ;
#839 = APPROVAL_STATUS ( 'not_yet_approved' ) ;
#840 = ORIENTED_EDGE ( 'NONE', *, *, #880, .T. ) ;
#841 = CIRCLE ( 'NONE', #447, 19.00000000000000000 ) ;
#842 = ADVANCED_FACE ( 'NONE', ( #694 ), #627, .F. ) ;
#843 = DIRECTION ( 'NONE',  ( 0.000000000000000000, 1.000000000000000000, -0.000000000000000000 ) ) ;
#844 = LINE ( 'NONE', #348, #618 ) ;
#845 = PERSON_AND_ORGANIZATION ( #234, #57 ) ;
#846 = ORIENTED_EDGE ( 'NONE', *, *, #47, .T. ) ;
#847 = DIRECTION ( 'NONE',  ( -0.000000000000000000, -0.000000000000000000, 1.000000000000000000 ) ) ;
#848 = CARTESIAN_POINT ( 'NONE',  ( -10.37336209607597226, 9.405379716584157279, 8.336676472900883539 ) ) ;
#849 = ADVANCED_FACE ( 'NONE', ( #790 ), #147, .F. ) ;
#850 = CARTESIAN_POINT ( 'NONE',  ( -11.33007903152183360, 8.227199449369724249, 8.472143258695723489 ) ) ;
#851 = SECURITY_CLASSIFICATION_LEVEL ( 'unclassified' ) ;
#852 = VERTEX_POINT ( 'NONE', #961 ) ;
#853 = CARTESIAN_POINT ( 'NONE',  ( -9.047801468925145585, 10.68361031932444760, 10.26966494166327415 ) ) ;
#854 = CARTESIAN_POINT ( 'NONE',  ( -11.63433600334116846, 7.787970427872258128, 8.802702401752442896 ) ) ;
#855 = PERSON_AND_ORGANIZATION ( #234, #57 ) ;
#856 = ORIENTED_EDGE ( 'NONE', *, *, #251, .T. ) ;
#857 = VECTOR ( 'NONE', #970, 1000.000000000000000 ) ;
#858 = VECTOR ( 'NONE', #665, 1000.000000000000000 ) ;
#859 = FACE_BOUND ( 'NONE', #368, .T. ) ;
#860 = APPROVAL_ROLE ( '' ) ;
#861 = ORIENTED_EDGE ( 'NONE', *, *, #631, .T. ) ;
#862 = CARTESIAN_POINT ( 'NONE',  ( -11.46082835472130235, 8.043006970812543344, 11.42245056356683186 ) ) ;
#863 = CARTESIAN_POINT ( 'NONE',  ( -19.00000000000000000, 0.000000000000000000, 4.000000000000000000 ) ) ;
#864 = ORIENTED_EDGE ( 'NONE', *, *, #201, .F. ) ;
#865 = CARTESIAN_POINT ( 'NONE',  ( 6.000000000000000000, -1.300000000000000044, -0.09997027095160138099 ) ) ;
#866 = EDGE_CURVE ( 'NONE', #162, #869, #414, .T. ) ;
#867 = CARTESIAN_POINT ( 'NONE',  ( -10.50000000000000000, -1.300000000000000044, 16.00000000000000000 ) ) ;
#868 = CARTESIAN_POINT ( 'NONE',  ( -2.533830729021401940, -0.6767371672058377641, -0.000000000000000000 ) ) ;
#869 = VERTEX_POINT ( 'NONE', #715 ) ;
#870 = DIRECTION ( 'NONE',  ( 0.000000000000000000, 0.000000000000000000, -1.000000000000000000 ) ) ;
#871 = CIRCLE ( 'NONE', #359, 19.00000000000000000 ) ;
#872 = ADVANCED_FACE ( 'NONE', ( #382 ), #889, .F. ) ;
#873 = VECTOR ( 'NONE', #150, 1000.000000000000000 ) ;
#874 = LINE ( 'NONE', #634, #603 ) ;
#875 = LINE ( 'NONE', #465, #207 ) ;
#876 = VERTEX_POINT ( 'NONE', #1045 ) ;
#877 = CARTESIAN_POINT ( 'NONE',  ( 10.01810743134690185, 9.782858279599741635, 11.52233131936447386 ) ) ;
#878 = ORIENTED_EDGE ( 'NONE', *, *, #52, .F. ) ;
#879 = CARTESIAN_POINT ( 'NONE',  ( 14.00000000000000000, 1.714505518806294638E-15, 4.000000000000000000 ) ) ;
#880 = EDGE_CURVE ( 'NONE', #354, #900, #1054, .T. ) ;
#881 = CARTESIAN_POINT ( 'NONE',  ( -0.5999999999999999778, 2.200000000000000178, -0.09997027095160138099 ) ) ;
#882 = LINE ( 'NONE', #972, #836 ) ;
#883 = CARTESIAN_POINT ( 'NONE',  ( -6.000000000000000000, -1.300000000000000044, -0.09997027095160138099 ) ) ;
#884 = ORIENTED_EDGE ( 'NONE', *, *, #548, .F. ) ;
#885 = CARTESIAN_POINT ( 'NONE',  ( 0.000000000000000000, 0.000000000000000000, 4.000000000000000000 ) ) ;
#886 = ADVANCED_FACE ( 'NONE', ( #707 ), #543, .F. ) ;
#887 = CARTESIAN_POINT ( 'NONE',  ( 19.00000000000000000, 2.326828918379970970E-15, 0.000000000000000000 ) ) ;
#888 = VERTEX_POINT ( 'NONE', #1037 ) ;
#889 = CYLINDRICAL_SURFACE ( 'NONE', #633, 2.600000000000000089 ) ;
#890 = ORIENTED_EDGE ( 'NONE', *, *, #521, .F. ) ;
#891 = AXIS2_PLACEMENT_3D ( 'NONE', #1038, #712, #469 ) ;
#892 = VECTOR ( 'NONE', #657, 1000.000000000000000 ) ;
#893 = CARTESIAN_POINT ( 'NONE',  ( 0.000000000000000000, 1.300000000000000044, 0.000000000000000000 ) ) ;
#894 = ORIENTED_EDGE ( 'NONE', *, *, #64, .T. ) ;
#895 = DIRECTION ( 'NONE',  ( -1.000000000000000000, 0.000000000000000000, 0.000000000000000000 ) ) ;
#896 = EDGE_LOOP ( 'NONE', ( #116, #846, #71, #502 ) ) ;
#897 = DIRECTION ( 'NONE',  ( 0.000000000000000000, -1.000000000000000000, 0.000000000000000000 ) ) ;
#898 = CARTESIAN_POINT ( 'NONE',  ( -19.00000000000000000, 9.000000000000000000, 8.300000000000000711 ) ) ;
#899 = CARTESIAN_POINT ( 'NONE',  ( -19.00000000000000000, 0.000000000000000000, 0.000000000000000000 ) ) ;
#900 = VERTEX_POINT ( 'NONE', #299 ) ;
#901 = EDGE_CURVE ( 'NONE', #546, #1026, #756, .T. ) ;
#902 = B_SPLINE_CURVE_WITH_KNOTS ( 'NONE', 3,
 ( #954, #545, #868, #134, #516, #1004, #776, #430, #275, #281, #605, #610, #760, #940, #527, #31, #598, #118 ),
 .UNSPECIFIED., .F., .F.,
 ( 4, 2, 2, 2, 2, 2, 2, 2, 4 ),
 ( 0.5000000000000000000, 0.5625000000000000000, 0.6250000000000000000, 0.6875000000000000000, 0.7500000000000000000, 0.8125000000000000000, 0.8750000000000000000, 0.9375000000000000000, 1.000000000000000000 ),
 .UNSPECIFIED. ) ;
#903 = CARTESIAN_POINT ( 'NONE',  ( 10.50000000000000000, -1.300000000000000044, 16.00000000000000000 ) ) ;
#904 = CARTESIAN_POINT ( 'NONE',  ( 0.5999999999999999778, 2.200000000000000178, 16.00000000000000000 ) ) ;
#905 = CYLINDRICAL_SURFACE ( 'NONE', #361, 19.00000000000000000 ) ;
#906 = ORIENTED_EDGE ( 'NONE', *, *, #738, .F. ) ;
#907 = ADVANCED_FACE ( 'NONE', ( #674 ), #579, .F. ) ;
#908 = CARTESIAN_POINT ( 'NONE',  ( 6.000000000000000000, 1.300000000000000044, -0.09997027095160138099 ) ) ;
#909 = AXIS2_PLACEMENT_3D ( 'NONE', #820, #993, #104 ) ;
#910 = AXIS2_PLACEMENT_3D ( 'NONE', #928, #195, #26 ) ;
#911 = CARTESIAN_POINT ( 'NONE',  ( 11.81583934084839704, 7.509301620396099608, 10.82622392244466170 ) ) ;
#912 = LOCAL_TIME ( 6, 17, 36.00000000000000000, #432 ) ;
#913 = LINE ( 'NONE', #177, #345 ) ;
#914 = VERTEX_POINT ( 'NONE', #16 ) ;
#915 = DIRECTION ( 'NONE',  ( 1.000000000000000000, 0.000000000000000000, -0.000000000000000000 ) ) ;
#916 = CYLINDRICAL_SURFACE ( 'NONE', #326, 19.00000000000000000 ) ;
#917 = ADVANCED_BREP_SHAPE_REPRESENTATION ( 'V2_06_horn_coupler', ( #402, #192 ), #377 ) ;
#918 = EDGE_CURVE ( 'NONE', #385, #900, #571, .T. ) ;
#919 = FACE_OUTER_BOUND ( 'NONE', #131, .T. ) ;
#920 = CARTESIAN_POINT ( 'NONE',  ( 10.50000000000000000, 1.300000000000000044, 16.00000000000000000 ) ) ;
#921 = EDGE_LOOP ( 'NONE', ( #586, #613, #894, #990 ) ) ;
#922 = CARTESIAN_POINT ( 'NONE',  ( -9.361408682914866830, 10.41030262302256482, 9.044205745375567318 ) ) ;
#923 = CARTESIAN_POINT ( 'NONE',  ( -10.50000000000000000, -1.300000000000000044, -0.09997027095160138099 ) ) ;
#924 = DIRECTION ( 'NONE',  ( -1.000000000000000000, -0.000000000000000000, 0.000000000000000000 ) ) ;
#925 = CC_DESIGN_PERSON_AND_ORGANIZATION_ASSIGNMENT ( #845, #438, ( #552 ) ) ;
#926 = MECHANICAL_CONTEXT ( 'NONE', #503, 'mechanical' ) ;
#927 = ORIENTED_EDGE ( 'NONE', *, *, #640, .T. ) ;
#928 = CARTESIAN_POINT ( 'NONE',  ( 0.000000000000000000, 0.000000000000000000, 4.000000000000000000 ) ) ;
#929 = CARTESIAN_POINT ( 'NONE',  ( 11.03830473322971883, 8.614725053397680909, 8.331724570723052281 ) ) ;
#930 = AXIS2_PLACEMENT_3D ( 'NONE', #529, #611, #448 ) ;
#931 = B_SPLINE_CURVE_WITH_KNOTS ( 'NONE', 3,
 ( #592, #339, #848, #360, #19, #997, #522, #922, #670, #112, #440, #504, #690, #587, #853, #509, #257, #190, #108, #1008, #830, #435, #764, #752, #659, #986 ),
 .UNSPECIFIED., .F., .F.,
 ( 4, 2, 2, 2, 2, 2, 2, 2, 2, 2, 2, 2, 4 ),
 ( 0.000000000000000000, 0.0008032955908086748635, 0.001606591181617349727, 0.002008238977021684340, 0.002409886772426018519, 0.002811534567830353566, 0.003213182363234687745, 0.003614830158639022791, 0.004016477954043356537, 0.004418125749447691583, 0.004819773544852025762, 0.005623069135660691518, 0.006426364726469357275 ),
 .UNSPECIFIED. ) ;
#932 = DATE_AND_TIME ( #1025, #635 ) ;
#933 = ORIENTED_EDGE ( 'NONE', *, *, #799, .F. ) ;
#934 = APPROVAL_PERSON_ORGANIZATION ( #596, #969, #860 ) ;
#935 = LINE ( 'NONE', #200, #1048 ) ;
#936 = CARTESIAN_POINT ( 'NONE',  ( -11.46349721022023083, 8.039232687730912374, 8.579762322145247921 ) ) ;
#937 = PERSON_AND_ORGANIZATION ( #234, #57 ) ;
#938 = ORIENTED_EDGE ( 'NONE', *, *, #187, .F. ) ;
#939 = APPROVAL ( #115, '未' ) ;
#940 = CARTESIAN_POINT ( 'NONE',  ( 2.082076604084940108, -1.594977014734290321, -0.000000000000000000 ) ) ;
#941 = FACE_BOUND ( 'NONE', #1007, .T. ) ;
#942 = ORIENTED_EDGE ( 'NONE', *, *, #542, .T. ) ;
#943 = DIRECTION ( 'NONE',  ( 1.000000000000000000, 0.000000000000000000, 0.000000000000000000 ) ) ;
#944 = APPROVAL_DATE_TIME ( #24, #351 ) ;
#945 = VERTEX_POINT ( 'NONE', #899 ) ;
#946 = CIRCLE ( 'NONE', #930, 19.00000000000000000 ) ;
#947 = VECTOR ( 'NONE', #847, 1000.000000000000000 ) ;
#948 = DIRECTION ( 'NONE',  ( -1.000000000000000000, 0.000000000000000000, 0.000000000000000000 ) ) ;
#949 = ADVANCED_FACE ( 'NONE', ( #86 ), #905, .T. ) ;
#950 = CARTESIAN_POINT ( 'NONE',  ( 0.000000000000000000, 0.000000000000000000, 4.000000000000000000 ) ) ;
#951 = ORIENTED_EDGE ( 'NONE', *, *, #356, .T. ) ;
#952 = CARTESIAN_POINT ( 'NONE',  ( 9.756929129572647241, 10.04069481642486572, 8.651627607700786982 ) ) ;
#953 = CARTESIAN_POINT ( 'NONE',  ( -11.68622841836827320, 7.709669415052518460, 8.887083654392810672 ) ) ;
#954 = CARTESIAN_POINT ( 'NONE',  ( -2.600000000000000089, 3.184081677783117698E-16, -6.000000000000000152E-06 ) ) ;
#955 = ORIENTED_EDGE ( 'NONE', *, *, #13, .T. ) ;
#956 = EDGE_CURVE ( 'NONE', #869, #852, #913, .T. ) ;
#957 = DIRECTION ( 'NONE',  ( 0.000000000000000000, 0.000000000000000000, -1.000000000000000000 ) ) ;
#958 = UNCERTAINTY_MEASURE_WITH_UNIT (LENGTH_MEASURE( 1.000000000000000082E-05 ), #994, 'distance_accuracy_value', 'NONE');
#959 = LINE ( 'NONE', #893, #962 ) ;
#960 = CARTESIAN_POINT ( 'NONE',  ( -10.50000000000000000, 1.300000000000000044, 16.00000000000000000 ) ) ;
#961 = CARTESIAN_POINT ( 'NONE',  ( -2.600000000000000089, 3.184081677783117698E-16, 16.00000000000000000 ) ) ;
#962 = VECTOR ( 'NONE', #481, 1000.000000000000000 ) ;
#963 = ADVANCED_FACE ( 'NONE', ( #662 ), #1062, .F. ) ;
#964 = DIRECTION ( 'NONE',  ( 1.000000000000000000, -0.000000000000000000, -0.000000000000000000 ) ) ;
#965 = DIRECTION ( 'NONE',  ( 1.000000000000000000, 0.000000000000000000, 0.000000000000000000 ) ) ;
#966 = ORIENTED_EDGE ( 'NONE', *, *, #818, .F. ) ;
#967 = CARTESIAN_POINT ( 'NONE',  ( 9.047774080068554881, 10.68363060322405289, 9.731058013007706009 ) ) ;
#968 = EDGE_LOOP ( 'NONE', ( #890, #461, #951, #828, #124, #519, #734, #643 ) ) ;
#969 = APPROVAL ( #353, '未' ) ;
#970 = DIRECTION ( 'NONE',  ( 0.000000000000000000, 0.000000000000000000, -1.000000000000000000 ) ) ;
#971 = DIRECTION ( 'NONE',  ( -0.000000000000000000, -0.000000000000000000, -1.000000000000000000 ) ) ;
#972 = CARTESIAN_POINT ( 'NONE',  ( 0.000000000000000000, -1.300000000000000044, 0.000000000000000000 ) ) ;
#973 = CARTESIAN_POINT ( 'NONE',  ( 9.590710974038341163, 10.19958241540039801, 8.790803639638935962 ) ) ;
#974 = VERTEX_POINT ( 'NONE', #649 ) ;
#975 = CARTESIAN_POINT ( 'NONE',  ( 0.000000000000000000, 0.000000000000000000, 16.00000000000000000 ) ) ;
#976 = PLANE ( 'NONE',  #652 ) ;
#977 = DIRECTION ( 'NONE',  ( 0.000000000000000000, -1.000000000000000000, 0.000000000000000000 ) ) ;
#978 = ORIENTED_EDGE ( 'NONE', *, *, #1027, .F. ) ;
#979 = AXIS2_PLACEMENT_3D ( 'NONE', #908, #20, #247 ) ;
#980 = VECTOR ( 'NONE', #705, 1000.000000000000000 ) ;
#981 = CARTESIAN_POINT ( 'NONE',  ( -10.50000000000000000, -1.300000000000000044, 0.000000000000000000 ) ) ;
#982 = CARTESIAN_POINT ( 'NONE',  ( 6.000000000000000000, -1.300000000000000044, 0.000000000000000000 ) ) ;
#983 = EDGE_CURVE ( 'NONE', #474, #995, #249, .T. ) ;
#984 = CARTESIAN_POINT ( 'NONE',  ( -6.000000000000000000, 1.300000000000000044, 0.000000000000000000 ) ) ;
#985 = ORIENTED_EDGE ( 'NONE', *, *, #681, .F. ) ;
#986 = CARTESIAN_POINT ( 'NONE',  ( -10.72380529476374278, 9.000000000000252243, 11.70000000000124984 ) ) ;
#987 = DIRECTION ( 'NONE',  ( -0.000000000000000000, -0.000000000000000000, 1.000000000000000000 ) ) ;
#988 = CARTESIAN_POINT ( 'NONE',  ( 0.000000000000000000, -1.300000000000000044, 16.00000000000000000 ) ) ;
#989 = DIRECTION ( 'NONE',  ( 0.000000000000000000, -0.000000000000000000, 1.000000000000000000 ) ) ;
#990 = ORIENTED_EDGE ( 'NONE', *, *, #273, .F. ) ;
#991 = CC_DESIGN_PERSON_AND_ORGANIZATION_ASSIGNMENT ( #110, #600, ( #825 ) ) ;
#992 = LINE ( 'NONE', #252, #550 ) ;
#993 = DIRECTION ( 'NONE',  ( -0.000000000000000000, -0.000000000000000000, -1.000000000000000000 ) ) ;
#994 =( LENGTH_UNIT ( ) NAMED_UNIT ( * ) SI_UNIT ( .MILLI., .METRE. ) );
#995 = VERTEX_POINT ( 'NONE', #920 ) ;
#996 = EDGE_CURVE ( 'NONE', #806, #81, #507, .T. ) ;
#997 = CARTESIAN_POINT ( 'NONE',  ( -9.593126758156664380, 10.19730458965381104, 8.788598955132503221 ) ) ;
#998 = CARTESIAN_POINT ( 'NONE',  ( 0.5999999999999999778, 2.200000000000000178, -0.09997027095160138099 ) ) ;
#999 = VECTOR ( 'NONE', #667, 1000.000000000000000 ) ;
#1000 = AXIS2_PLACEMENT_3D ( 'NONE', #750, #501, #989 ) ;
#1001 = CARTESIAN_POINT ( 'NONE',  ( 11.93795499826097739, 7.313427394620801714, 10.24662375167233108 ) ) ;
#1002 = CARTESIAN_POINT ( 'NONE',  ( -6.000000000000000000, -1.300000000000000044, 16.00000000000000000 ) ) ;
#1003 = ORIENTED_EDGE ( 'NONE', *, *, #453, .F. ) ;
#1004 = CARTESIAN_POINT ( 'NONE',  ( -1.594977014734535459, -2.082076604084840188, -0.000000000000000000 ) ) ;
#1005 = CARTESIAN_POINT ( 'NONE',  ( 0.5999999999999999778, 18.99052395275075256, 4.000000000000000000 ) ) ;
#1006 = FACE_BOUND ( 'NONE', #211, .T. ) ;
#1007 = EDGE_LOOP ( 'NONE', ( #68, #678, #186, #938 ) ) ;
#1008 = CARTESIAN_POINT ( 'NONE',  ( -9.511937134729810950, 10.27294094237714717, 11.13224288223542402 ) ) ;
#1009 = CARTESIAN_POINT ( 'NONE',  ( 11.32499397577940314, 8.231471694506819148, 8.479938983346805514 ) ) ;
#1010 = APPROVAL_ROLE ( '' ) ;
#1011 = VERTEX_POINT ( 'NONE', #984 ) ;
#1012 = VECTOR ( 'NONE', #14, 1000.000000000000000 ) ;
#1013 = CARTESIAN_POINT ( 'NONE',  ( 2.552147338437895652, 0.5775901837055785748, -0.000000000000000000 ) ) ;
#1014 = VECTOR ( 'NONE', #987, 1000.000000000000000 ) ;
#1015 = DATE_TIME_ROLE ( 'classification_date' ) ;
#1016 = ORIENTED_EDGE ( 'NONE', *, *, #631, .F. ) ;
#1017 = VECTOR ( 'NONE', #1050, 1000.000000000000000 ) ;
#1018 = EDGE_CURVE ( 'NONE', #1026, #250, #827, .T. ) ;
#1019 = B_SPLINE_CURVE_WITH_KNOTS ( 'NONE', 3,
 ( #682, #253, #929, #832, #1009, #672, #754, #425, #28, #100, #248, #184, #510, #352, #739, #493, #1001, #661, #23, #911, #269, #578, #265, #5, #594, #409, #335, #193, #517, #583 ),
 .UNSPECIFIED., .F., .F.,
 ( 4, 2, 2, 2, 2, 2, 2, 2, 2, 2, 2, 2, 2, 2, 4 ),
 ( 0.000000000000000000, 0.0007440102817169809337, 0.001116015422575471943, 0.001488020563433963168, 0.001860025704292454177, 0.002232030845150945186, 0.002604035986009436629, 0.002976041126867927638, 0.003348046267726418647, 0.003720051408584909656, 0.004092056549443400665, 0.004464061690301892107, 0.004836066831160383550, 0.005208071972018874125, 0.005952082253735857878 ),
 .UNSPECIFIED. ) ;
#1020 = CARTESIAN_POINT ( 'NONE',  ( 0.000000000000000000, 0.000000000000000000, 16.00000000000000000 ) ) ;
#1021 = APPROVAL_DATE_TIME ( #932, #939 ) ;
#1022 = ORIENTED_EDGE ( 'NONE', *, *, #407, .F. ) ;
#1023 = EDGE_CURVE ( 'NONE', #508, #995, #7, .T. ) ;
#1024 = CARTESIAN_POINT ( 'NONE',  ( -10.88360175605741631, 8.809597095810328682, 11.70000000000000639 ) ) ;
#1025 = CALENDAR_DATE ( 2026, 18, 9 ) ;
#1026 = VERTEX_POINT ( 'NONE', #1002 ) ;
#1027 = EDGE_CURVE ( 'NONE', #98, #315, #169, .T. ) ;
#1028 = DIRECTION ( 'NONE',  ( 0.000000000000000000, 0.000000000000000000, -1.000000000000000000 ) ) ;
#1029 = CARTESIAN_POINT ( 'NONE',  ( -0.5999999999999999778, 2.200000000000000178, 16.00000000000000000 ) ) ;
#1030 = ORIENTED_EDGE ( 'NONE', *, *, #441, .T. ) ;
#1031 = AXIS2_PLACEMENT_3D ( 'NONE', #500, #431, #415 ) ;
#1032 = VECTOR ( 'NONE', #495, 1000.000000000000000 ) ;
#1033 = CARTESIAN_POINT ( 'NONE',  ( 0.000000000000000000, 0.000000000000000000, 16.00000000000000000 ) ) ;
#1034 = PLANE ( 'NONE',  #817 ) ;
#1035 = LINE ( 'NONE', #1029, #873 ) ;
#1036 = ORIENTED_EDGE ( 'NONE', *, *, #251, .F. ) ;
#1037 = CARTESIAN_POINT ( 'NONE',  ( -14.00000000000000000, 0.000000000000000000, 16.00000000000000000 ) ) ;
#1038 = CARTESIAN_POINT ( 'NONE',  ( 0.000000000000000000, 0.000000000000000000, -1.200000000000000030E-05 ) ) ;
#1039 = CARTESIAN_POINT ( 'NONE',  ( 10.50000000000000000, 0.000000000000000000, 0.000000000000000000 ) ) ;
#1040 = ADVANCED_FACE ( 'NONE', ( #163 ), #342, .F. ) ;
#1041 = CARTESIAN_POINT ( 'NONE',  ( 10.72380529476361488, 9.000000000000204281, 11.70000000000065477 ) ) ;
#1042 = CARTESIAN_POINT ( 'NONE',  ( 0.000000000000000000, 0.000000000000000000, 4.000000000000000000 ) ) ;
#1043 = DIRECTION ( 'NONE',  ( -0.000000000000000000, -0.000000000000000000, -1.000000000000000000 ) ) ;
#1044 = ORIENTED_EDGE ( 'NONE', *, *, #681, .T. ) ;
#1045 = CARTESIAN_POINT ( 'NONE',  ( 0.6000001017321888730, 2.529941645714209653, -8.999999999999988370E-06 ) ) ;
#1046 = EDGE_LOOP ( 'NONE', ( #170, #942, #450, #343, #856, #1058, #135, #717 ) ) ;
#1047 = CIRCLE ( 'NONE', #21, 1.700000000000000178 ) ;
#1048 = VECTOR ( 'NONE', #350, 1000.000000000000000 ) ;
#1049 = CARTESIAN_POINT ( 'NONE',  ( 6.000000000000000000, 1.300000000000000044, 0.000000000000000000 ) ) ;
#1050 = DIRECTION ( 'NONE',  ( 0.000000000000000000, 0.000000000000000000, 1.000000000000000000 ) ) ;
#1051 = ORIENTED_EDGE ( 'NONE', *, *, #264, .F. ) ;
#1052 = CARTESIAN_POINT ( 'NONE',  ( 9.361280813272388812, 10.41041303537513585, 9.044422475208895307 ) ) ;
#1053 = VERTEX_POINT ( 'NONE', #240 ) ;
#1054 = B_SPLINE_CURVE_WITH_KNOTS ( 'NONE', 3,
 ( #1041, #303, #623, #877, #141, #467, #724, #638, #794, #153, #228, #309, #967, #560, #785, #805, #1052, #316, #973, #952, #479, #235, #565, #77, #399, #132 ),
 .UNSPECIFIED., .F., .F.,
 ( 4, 2, 2, 2, 2, 2, 2, 2, 2, 2, 2, 2, 4 ),
 ( 0.005952082253735857878, 0.006751715355029116496, 0.007551348456322374246, 0.008350981557615632864, 0.008750798108262262606, 0.009150614658908894083, 0.009550431209555523826, 0.009950247760202153569, 0.01035006431084878505, 0.01074988086149541652, 0.01114969741214204627, 0.01154951396278867601, 0.01234914706408193723 ),
 .UNSPECIFIED. ) ;
#1055 = DIRECTION ( 'NONE',  ( -0.000000000000000000, -0.000000000000000000, 1.000000000000000000 ) ) ;
#1056 = DIRECTION ( 'NONE',  ( 1.000000000000000000, 0.000000000000000000, 0.000000000000000000 ) ) ;
#1057 = CARTESIAN_POINT ( 'NONE',  ( -1.155218221821713742, 2.347434505214176070, -0.000000000000000000 ) ) ;
#1058 = ORIENTED_EDGE ( 'NONE', *, *, #548, .T. ) ;
#1059 = DIRECTION ( 'NONE',  ( 1.000000000000000000, -0.000000000000000000, 0.000000000000000000 ) ) ;
#1060 = ADVANCED_FACE ( 'NONE', ( #822 ), #809, .F. ) ;
#1061 = LINE ( 'NONE', #323, #736 ) ;
#1062 = CYLINDRICAL_SURFACE ( 'NONE', #429, 1.700000000000000178 ) ;
#1063 = VERTEX_POINT ( 'NONE', #260 ) ;
ENDSEC;
END-ISO-10303-21;
