ISO-10303-21;
HEADER;
FILE_DESCRIPTION (( 'STEP AP203' ),
    '1' );
FILE_NAME ('V2_02_bearing_tower.STEP',
    '2026-09-18T10:17:02',
    ( '15300530775@163.com' ),
    ( '' ),
    'SwSTEP 2.0',
    'SolidWorks 2026',
    '' );
FILE_SCHEMA (( 'CONFIG_CONTROL_DESIGN' ));
ENDSEC;

DATA;
#1 = VECTOR ( 'NONE', #286, 1000.000000000000000 ) ;
#2 = CARTESIAN_POINT ( 'NONE',  ( -28.00000000000000000, 0.000000000000000000, 24.00000000000000000 ) ) ;
#3 = CARTESIAN_POINT ( 'NONE',  ( -28.00000000000000000, 0.000000000000000000, 0.000000000000000000 ) ) ;
#4 = CARTESIAN_POINT ( 'NONE',  ( -22.00000000000000000, 0.000000000000000000, 0.000000000000000000 ) ) ;
#5 = EDGE_LOOP ( 'NONE', ( #236, #351, #51, #745, #894, #134, #717, #320 ) ) ;
#6 = EDGE_CURVE ( 'NONE', #429, #504, #47, .T. ) ;
#7 = CARTESIAN_POINT ( 'NONE',  ( -28.00000000000000000, 8.000000000000000000, 8.000000000000000000 ) ) ;
#8 = LINE ( 'NONE', #822, #736 ) ;
#9 = CARTESIAN_POINT ( 'NONE',  ( 19.77491600511334013, 0.000000000000000000, 10.29993048876420936 ) ) ;
#10 = CARTESIAN_POINT ( 'NONE',  ( 12.29993048876420936, 69.77491600511629599, 0.000000000000000000 ) ) ;
#11 = ORIENTED_EDGE ( 'NONE', *, *, #123, .T. ) ;
#12 = DIRECTION ( 'NONE',  ( -1.000000000000000000, 0.000000000000000000, 0.000000000000000000 ) ) ;
#13 = FACE_OUTER_BOUND ( 'NONE', #37, .T. ) ;
#14 = FACE_OUTER_BOUND ( 'NONE', #278, .T. ) ;
#15 = VECTOR ( 'NONE', #324, 1000.000000000000000 ) ;
#16 = CARTESIAN_POINT ( 'NONE',  ( 13.77491600510868786, 68.30006951123358760, 0.000000000000000000 ) ) ;
#17 = ORIENTED_EDGE ( 'NONE', *, *, #439, .F. ) ;
#18 = CARTESIAN_POINT ( 'NONE',  ( -18.95702773923594719, -0.000000000000000000, 10.63871090099721783 ) ) ;
#19 = LINE ( 'NONE', #444, #907 ) ;
#20 = AXIS2_PLACEMENT_3D ( 'NONE', #904, #335, #57 ) ;
#21 = CARTESIAN_POINT ( 'NONE',  ( 13.14146106820873605, 71.48452350954337930, -0.000000000000000000 ) ) ;
#22 = CARTESIAN_POINT ( 'NONE',  ( -5.799999999999999822, 70.00000000000000000, 8.000000000000000000 ) ) ;
#23 = EDGE_LOOP ( 'NONE', ( #612, #655, #462, #680 ) ) ;
#24 = DIRECTION ( 'NONE',  ( 0.000000000000000000, 0.000000000000000000, -1.000000000000000000 ) ) ;
#25 = DATE_AND_TIME ( #34, #242 ) ;
#26 = DIRECTION ( 'NONE',  ( -0.000000000000000000, -0.000000000000000000, -1.000000000000000000 ) ) ;
#27 = VERTEX_POINT ( 'NONE', #639 ) ;
#28 = CLOSED_SHELL ( 'NONE', ( #624, #150, #664, #714, #465, #363, #184, #408, #648, #905, #506, #332, #159, #469, #522, #617, #529, #796, #551, #102, #887, #657, #752 ) ) ;
#29 = CARTESIAN_POINT ( 'NONE',  ( 20.85853893178856922, -0.000000000000000000, 13.48452350954491585 ) ) ;
#30 = APPROVAL_ROLE ( '' ) ;
#31 = ORIENTED_EDGE ( 'NONE', *, *, #487, .T. ) ;
#32 = EDGE_CURVE ( 'NONE', #203, #856, #753, .T. ) ;
#33 = CARTESIAN_POINT ( 'NONE',  ( 21.36128909900559592, -0.000000000000000000, 13.04297226076161920 ) ) ;
#34 = CALENDAR_DATE ( 2026, 18, 9 ) ;
#35 = AXIS2_PLACEMENT_3D ( 'NONE', #309, #451, #362 ) ;
#36 = CIRCLE ( 'NONE', #782, 8.099999999999999645 ) ;
#37 = EDGE_LOOP ( 'NONE', ( #775, #232, #294, #441 ) ) ;
#38 = CARTESIAN_POINT ( 'NONE',  ( 20.44263793985065192, -0.000000000000000000, 10.34320465898919217 ) ) ;
#39 = CALENDAR_DATE ( 2026, 18, 9 ) ;
#40 = VERTEX_POINT ( 'NONE', #162 ) ;
#41 = CARTESIAN_POINT ( 'NONE',  ( 20.00000000000000000, -6.000000000000000152E-06, 13.70000000000000107 ) ) ;
#42 = COORDINATED_UNIVERSAL_TIME_OFFSET ( 5, 0, .BEHIND. ) ;
#43 = VERTEX_POINT ( 'NONE', #719 ) ;
#44 = AXIS2_PLACEMENT_3D ( 'NONE', #876, #652, #24 ) ;
#45 = DIRECTION ( 'NONE',  ( -0.000000000000000000, -0.000000000000000000, -1.000000000000000000 ) ) ;
#46 = EDGE_CURVE ( 'NONE', #131, #792, #759, .T. ) ;
#47 = LINE ( 'NONE', #340, #637 ) ;
#48 = AXIS2_PLACEMENT_3D ( 'NONE', #144, #157, #298 ) ;
#49 = CARTESIAN_POINT ( 'NONE',  ( -15.65666690099372360, 69.55741526174936951, -0.000000000000000000 ) ) ;
#50 = CARTESIAN_POINT ( 'NONE',  ( 0.000000000000000000, 70.00000000000000000, 5.200000000000000178 ) ) ;
#51 = ORIENTED_EDGE ( 'NONE', *, *, #916, .F. ) ;
#52 = CARTESIAN_POINT ( 'NONE',  ( -13.55736206016057999, 71.65679534101306558, -0.000000000000000000 ) ) ;
#53 = CARTESIAN_POINT ( 'NONE',  ( 14.44258473825094136, 68.34333309900550546, 0.000000000000000000 ) ) ;
#54 = CARTESIAN_POINT ( 'NONE',  ( 28.00000000000000000, 0.000000000000000000, 24.00000000000000000 ) ) ;
#55 = ORIENTED_EDGE ( 'NONE', *, *, #207, .T. ) ;
#56 = CYLINDRICAL_SURFACE ( 'NONE', #627, 5.799999999999999822 ) ;
#57 = DIRECTION ( 'NONE',  ( 1.000000000000000000, 0.000000000000000000, 0.000000000000000000 ) ) ;
#58 = CARTESIAN_POINT ( 'NONE',  ( 0.000000000000000000, 70.00000000000000000, 0.000000000000000000 ) ) ;
#59 = AXIS2_PLACEMENT_3D ( 'NONE', #798, #152, #440 ) ;
#60 = APPROVAL ( #308, '未' ) ;
#61 = LOCAL_TIME ( 6, 17, 2.000000000000000000, #255 ) ;
#62 = FACE_OUTER_BOUND ( 'NONE', #590, .T. ) ;
#63 = CARTESIAN_POINT ( 'NONE',  ( -20.85853893179025675, -0.000000000000000000, 10.51547649045640220 ) ) ;
#64 = LINE ( 'NONE', #118, #227 ) ;
#65 = CARTESIAN_POINT ( 'NONE',  ( -12.30000000000000071, 70.00000000000000000, -6.000000000000000152E-06 ) ) ;
#66 = ORIENTED_EDGE ( 'NONE', *, *, #579, .F. ) ;
#67 = DIRECTION ( 'NONE',  ( 0.000000000000000000, 0.000000000000000000, -1.000000000000000000 ) ) ;
#68 = EDGE_LOOP ( 'NONE', ( #140, #391, #634, #306 ) ) ;
#69 = CARTESIAN_POINT ( 'NONE',  ( 18.51560493047318801, 0.000000000000000000, 11.14151426980208015 ) ) ;
#70 = AXIS2_PLACEMENT_3D ( 'NONE', #665, #383, #865 ) ;
#71 = DIRECTION ( 'NONE',  ( 0.000000000000000000, 0.000000000000000000, 1.000000000000000000 ) ) ;
#72 = ORIENTED_EDGE ( 'NONE', *, *, #815, .T. ) ;
#73 = LINE ( 'NONE', #226, #899 ) ;
#74 = CARTESIAN_POINT ( 'NONE',  ( -21.04297226076289107, -0.000000000000000000, 13.36128909900357442 ) ) ;
#75 = VECTOR ( 'NONE', #338, 1000.000000000000000 ) ;
#76 = DIRECTION ( 'NONE',  ( 0.000000000000000000, 1.000000000000000000, 0.000000000000000000 ) ) ;
#77 = EDGE_CURVE ( 'NONE', #206, #896, #290, .T. ) ;
#78 = DIRECTION ( 'NONE',  ( 1.000000000000000000, 0.000000000000000000, 0.000000000000000000 ) ) ;
#79 = ORIENTED_EDGE ( 'NONE', *, *, #6, .F. ) ;
#80 = FACE_OUTER_BOUND ( 'NONE', #711, .T. ) ;
#81 = CARTESIAN_POINT ( 'NONE',  ( -20.85865392012706820, 0.000000000000000000, 13.48432534211531397 ) ) ;
#82 = EDGE_CURVE ( 'NONE', #873, #40, #602, .T. ) ;
#83 = CARTESIAN_POINT ( 'NONE',  ( -15.69999999999999929, 70.00000000000000000, -1.200000000000000030E-05 ) ) ;
#84 = ORIENTED_EDGE ( 'NONE', *, *, #296, .F. ) ;
#85 = CARTESIAN_POINT ( 'NONE',  ( -20.00000000000000000, -6.000000000000000152E-06, 13.70000000000000107 ) ) ;
#86 = LINE ( 'NONE', #237, #835 ) ;
#87 = CARTESIAN_POINT ( 'NONE',  ( 18.51547649045640753, -0.000000000000000000, 12.85853893179063867 ) ) ;
#88 = CARTESIAN_POINT ( 'NONE',  ( 12.95702773924156759, 68.63871090099310379, -0.000000000000000000 ) ) ;
#89 = VERTEX_POINT ( 'NONE', #807 ) ;
#90 = CARTESIAN_POINT ( 'NONE',  ( -12.30000000000000426, 69.77438419509134349, -0.000000000000000000 ) ) ;
#91 = EDGE_CURVE ( 'NONE', #203, #792, #581, .T. ) ;
#92 = CARTESIAN_POINT ( 'NONE',  ( 28.00000000000000000, 8.000000000000000000, 24.00000000000000000 ) ) ;
#93 = CARTESIAN_POINT ( 'NONE',  ( 14.22508399489168340, 71.69993048876642661, 0.000000000000000000 ) ) ;
#94 = DIRECTION ( 'NONE',  ( 0.000000000000000000, 0.000000000000000000, 1.000000000000000000 ) ) ;
#95 = EDGE_LOOP ( 'NONE', ( #833, #741 ) ) ;
#96 = PLANE ( 'NONE',  #260 ) ;
#97 = DATE_AND_TIME ( #238, #171 ) ;
#98 = CARTESIAN_POINT ( 'NONE',  ( 0.000000000000000000, 70.00000000000000000, 5.200000000000000178 ) ) ;
#99 = ORIENTED_EDGE ( 'NONE', *, *, #240, .F. ) ;
#100 = LINE ( 'NONE', #897, #15 ) ;
#101 = APPROVAL_STATUS ( 'not_yet_approved' ) ;
#102 = ADVANCED_FACE ( 'NONE', ( #713, #801 ), #96, .F. ) ;
#103 = ORIENTED_EDGE ( 'NONE', *, *, #6, .T. ) ;
#104 = VECTOR ( 'NONE', #795, 1000.000000000000000 ) ;
#105 = DIRECTION ( 'NONE',  ( 0.000000000000000000, 0.000000000000000000, -1.000000000000000000 ) ) ;
#106 = EDGE_CURVE ( 'NONE', #810, #272, #19, .T. ) ;
#107 = VERTEX_POINT ( 'NONE', #2 ) ;
#108 = DIRECTION ( 'NONE',  ( -1.000000000000000000, 0.000000000000000000, -0.000000000000000000 ) ) ;
#109 = AXIS2_PLACEMENT_3D ( 'NONE', #154, #161, #366 ) ;
#110 = PERSON_AND_ORGANIZATION_ROLE ( 'classification_officer' ) ;
#111 = ORIENTED_EDGE ( 'NONE', *, *, #708, .F. ) ;
#112 = LINE ( 'NONE', #903, #417 ) ;
#113 = ORIENTED_EDGE ( 'NONE', *, *, #106, .T. ) ;
#114 = CARTESIAN_POINT ( 'NONE',  ( -5.799999999999999822, 70.00000000000000000, -1.200000000000000030E-05 ) ) ;
#115 = ORIENTED_EDGE ( 'NONE', *, *, #425, .T. ) ;
#116 = CARTESIAN_POINT ( 'NONE',  ( -15.69993048876420616, 70.22508399488370401, 0.000000000000000000 ) ) ;
#117 = EDGE_CURVE ( 'NONE', #272, #824, #553, .T. ) ;
#118 = CARTESIAN_POINT ( 'NONE',  ( -28.00000000000000000, 0.000000000000000000, 24.00000000000000000 ) ) ;
#119 = DIRECTION ( 'NONE',  ( 0.000000000000000000, -0.000000000000000000, -1.000000000000000000 ) ) ;
#120 = AXIS2_PLACEMENT_3D ( 'NONE', #145, #78, #374 ) ;
#121 = CARTESIAN_POINT ( 'NONE',  ( -14.85848573020151342, 68.51560493047469436, 0.000000000000000000 ) ) ;
#122 = B_SPLINE_CURVE_WITH_KNOTS ( 'NONE', 3,
 ( #450, #733, #355, #594, #646, #877, #361, #720, #93, #229, #666, #21, #526, #812, #167, #866, #455, #640 ),
 .UNSPECIFIED., .F., .F.,
 ( 4, 2, 2, 2, 2, 2, 2, 2, 4 ),
 ( 0.000000000000000000, 0.06250000000000015266, 0.1250000000000001110, 0.1875000000000000833, 0.2500000000000000555, 0.3125000000000000555, 0.3750000000000000000, 0.4375000000000000000, 0.5000000000000000000 ),
 .UNSPECIFIED. ) ;
#123 = EDGE_CURVE ( 'NONE', #206, #300, #880, .T. ) ;
#124 = FACE_OUTER_BOUND ( 'NONE', #199, .T. ) ;
#125 = CARTESIAN_POINT ( 'NONE',  ( 22.00000000000000355, 8.000000000000000000, 0.000000000000000000 ) ) ;
#126 = CARTESIAN_POINT ( 'NONE',  ( -20.00000000000000000, 8.000000000000000000, 10.30000000000000071 ) ) ;
#127 = EDGE_CURVE ( 'NONE', #896, #393, #86, .T. ) ;
#128 = FACE_BOUND ( 'NONE', #829, .T. ) ;
#129 = PLANE ( 'NONE',  #253 ) ;
#130 = VECTOR ( 'NONE', #746, 1000.000000000000000 ) ;
#131 = VERTEX_POINT ( 'NONE', #531 ) ;
#132 = CARTESIAN_POINT ( 'NONE',  ( 15.48432534211531220, 69.14134607987517711, 0.000000000000000000 ) ) ;
#133 = CYLINDRICAL_SURFACE ( 'NONE', #497, 1.700000000000000178 ) ;
#134 = ORIENTED_EDGE ( 'NONE', *, *, #685, .F. ) ;
#135 = AXIS2_PLACEMENT_3D ( 'NONE', #929, #274, #784 ) ;
#136 = CARTESIAN_POINT ( 'NONE',  ( 14.00000000000000000, 70.00000000000000000, 8.000000000000000000 ) ) ;
#137 = VERTEX_POINT ( 'NONE', #737 ) ;
#138 = CARTESIAN_POINT ( 'NONE',  ( 15.36128909900199169, 68.95702773923554219, -0.000000000000000000 ) ) ;
#139 = LINE ( 'NONE', #197, #256 ) ;
#140 = ORIENTED_EDGE ( 'NONE', *, *, #604, .T. ) ;
#141 = CARTESIAN_POINT ( 'NONE',  ( -19.14151426980784976, 0.000000000000000000, 10.51560493047243305 ) ) ;
#142 = EDGE_CURVE ( 'NONE', #523, #436, #216, .T. ) ;
#143 = DIRECTION ( 'NONE',  ( -0.000000000000000000, -0.000000000000000000, -1.000000000000000000 ) ) ;
#144 = CARTESIAN_POINT ( 'NONE',  ( 0.000000000000000000, 70.00000000000000000, 5.200000000000000178 ) ) ;
#145 = CARTESIAN_POINT ( 'NONE',  ( -28.00000000000000000, 0.000000000000000000, 24.00000000000000000 ) ) ;
#146 = EDGE_LOOP ( 'NONE', ( #115, #173 ) ) ;
#147 = FACE_OUTER_BOUND ( 'NONE', #751, .T. ) ;
#148 = B_SPLINE_CURVE_WITH_KNOTS ( 'NONE', 3,
 ( #267, #485, #841, #262, #195, #495, #834, #52, #188, #638, #695, #567, #191, #769, #920, #419, #116, #552 ),
 .UNSPECIFIED., .F., .F.,
 ( 4, 2, 2, 2, 2, 2, 2, 2, 4 ),
 ( 0.000000000000000000, 0.06250000000000002776, 0.1250000000000000555, 0.1875000000000000833, 0.2500000000000001110, 0.3125000000000001110, 0.3750000000000001665, 0.4375000000000002220, 0.5000000000000000000 ),
 .UNSPECIFIED. ) ;
#149 = DIRECTION ( 'NONE',  ( 0.000000000000000000, 0.000000000000000000, 1.000000000000000000 ) ) ;
#150 = ADVANCED_FACE ( 'NONE', ( #431 ), #669, .F. ) ;
#151 =( LENGTH_UNIT ( ) NAMED_UNIT ( * ) SI_UNIT ( .MILLI., .METRE. ) );
#152 = DIRECTION ( 'NONE',  ( -0.000000000000000000, 1.000000000000000000, -0.000000000000000000 ) ) ;
#153 = ORIENTED_EDGE ( 'NONE', *, *, #273, .F. ) ;
#154 = CARTESIAN_POINT ( 'NONE',  ( 22.00000000000000000, 0.000000000000000000, 8.000000000000000000 ) ) ;
#155 = AXIS2_PLACEMENT_3D ( 'NONE', #599, #76, #727 ) ;
#156 = CARTESIAN_POINT ( 'NONE',  ( 0.000000000000000000, 70.00000000000000000, 5.200000000000000178 ) ) ;
#157 = DIRECTION ( 'NONE',  ( 0.000000000000000000, 0.000000000000000000, -1.000000000000000000 ) ) ;
#158 = CARTESIAN_POINT ( 'NONE',  ( -15.69999999999999929, 70.00000000000000000, -6.000000000000000152E-06 ) ) ;
#159 = ADVANCED_FACE ( 'NONE', ( #13 ), #285, .F. ) ;
#160 = ORIENTED_EDGE ( 'NONE', *, *, #251, .F. ) ;
#161 = DIRECTION ( 'NONE',  ( -1.000000000000000000, 0.000000000000000000, 0.000000000000000000 ) ) ;
#162 = CARTESIAN_POINT ( 'NONE',  ( -8.099999999999999645, 70.00000000000000000, 0.000000000000000000 ) ) ;
#163 = FACE_BOUND ( 'NONE', #146, .T. ) ;
#164 = DIRECTION ( 'NONE',  ( -0.000000000000000000, -0.000000000000000000, -1.000000000000000000 ) ) ;
#165 = ORIENTED_EDGE ( 'NONE', *, *, #321, .T. ) ;
#166 = DIRECTION ( 'NONE',  ( -0.000000000000000000, 1.000000000000000000, -0.000000000000000000 ) ) ;
#167 = CARTESIAN_POINT ( 'NONE',  ( 12.51560493047243305, 70.85848573019067942, 0.000000000000000000 ) ) ;
#168 = CARTESIAN_POINT ( 'NONE',  ( 28.00000000000000000, 0.000000000000000000, 0.000000000000000000 ) ) ;
#169 = ORIENTED_EDGE ( 'NONE', *, *, #175, .F. ) ;
#170 = CARTESIAN_POINT ( 'NONE',  ( 21.65679534101155568, -0.000000000000000000, 12.44263793984301714 ) ) ;
#171 = LOCAL_TIME ( 6, 17, 2.000000000000000000, #42 ) ;
#172 = PERSON_AND_ORGANIZATION_ROLE ( 'design_owner' ) ;
#173 = ORIENTED_EDGE ( 'NONE', *, *, #32, .T. ) ;
#174 = CARTESIAN_POINT ( 'NONE',  ( 21.36119079526788056, 0.000000000000000000, 10.95712604296694437 ) ) ;
#175 = EDGE_CURVE ( 'NONE', #884, #919, #8, .T. ) ;
#176 = ORIENTED_EDGE ( 'NONE', *, *, #743, .T. ) ;
#177 = FACE_BOUND ( 'NONE', #474, .T. ) ;
#178 = APPROVAL_STATUS ( 'not_yet_approved' ) ;
#179 = ORIENTED_EDGE ( 'NONE', *, *, #418, .T. ) ;
#180 = CARTESIAN_POINT ( 'NONE',  ( -22.00000000000000000, 0.000000000000000000, 8.000000000000000000 ) ) ;
#181 = CALENDAR_DATE ( 2026, 18, 9 ) ;
#182 = CIRCLE ( 'NONE', #681, 8.099999999999999645 ) ;
#183 = ORIENTED_EDGE ( 'NONE', *, *, #127, .T. ) ;
#184 = ADVANCED_FACE ( 'NONE', ( #177, #322, #831, #397 ), #749, .T. ) ;
#185 = CARTESIAN_POINT ( 'NONE',  ( 0.000000000000000000, 0.000000000000000000, 0.000000000000000000 ) ) ;
#186 = ORIENTED_EDGE ( 'NONE', *, *, #412, .T. ) ;
#187 = CC_DESIGN_PERSON_AND_ORGANIZATION_ASSIGNMENT ( #473, #319, ( #691 ) ) ;
#188 = CARTESIAN_POINT ( 'NONE',  ( -13.77491600510831482, 71.69993048876644082, 0.000000000000000000 ) ) ;
#189 = VECTOR ( 'NONE', #143, 1000.000000000000000 ) ;
#190 = DIRECTION ( 'NONE',  ( 0.000000000000000000, 0.000000000000000000, -1.000000000000000000 ) ) ;
#191 = CARTESIAN_POINT ( 'NONE',  ( -15.04287395703200048, 71.36119079527041720, 0.000000000000000000 ) ) ;
#192 = EDGE_CURVE ( 'NONE', #436, #884, #100, .T. ) ;
#193 = CARTESIAN_POINT ( 'NONE',  ( 5.799999999999999822, 70.00000000000000000, 8.000000000000000000 ) ) ;
#194 = APPROVAL_PERSON_ORGANIZATION ( #744, #325, #385 ) ;
#195 = CARTESIAN_POINT ( 'NONE',  ( -12.63880920472417735, 71.04287395702736774, 0.000000000000000000 ) ) ;
#196 = LINE ( 'NONE', #415, #208 ) ;
#197 = CARTESIAN_POINT ( 'NONE',  ( -28.00000000000000000, 0.000000000000000000, 24.00000000000000000 ) ) ;
#198 = DIRECTION ( 'NONE',  ( 0.000000000000000000, -0.000000000000000000, -1.000000000000000000 ) ) ;
#199 = EDGE_LOOP ( 'NONE', ( #783, #764, #863, #270 ) ) ;
#200 = FACE_OUTER_BOUND ( 'NONE', #709, .T. ) ;
#201 = ORIENTED_EDGE ( 'NONE', *, *, #425, .F. ) ;
#202 = DIRECTION ( 'NONE',  ( -0.000000000000000000, -0.000000000000000000, 1.000000000000000000 ) ) ;
#203 = VERTEX_POINT ( 'NONE', #246 ) ;
#204 = DIRECTION ( 'NONE',  ( 1.000000000000000000, 0.000000000000000000, 0.000000000000000000 ) ) ;
#205 = DIRECTION ( 'NONE',  ( -0.000000000000000000, -0.000000000000000000, 1.000000000000000000 ) ) ;
#206 = VERTEX_POINT ( 'NONE', #254 ) ;
#207 = EDGE_CURVE ( 'NONE', #107, #266, #112, .T. ) ;
#208 = VECTOR ( 'NONE', #777, 1000.000000000000000 ) ;
#209 = CARTESIAN_POINT ( 'NONE',  ( -19.77474804345268566, 0.000000000000000000, 13.69999999999999751 ) ) ;
#210 = ORIENTED_EDGE ( 'NONE', *, *, #535, .T. ) ;
#211 = CARTESIAN_POINT ( 'NONE',  ( 18.34320465898844077, -0.000000000000000000, 11.55736206015660983 ) ) ;
#212 = LINE ( 'NONE', #4, #619 ) ;
#213 = ORIENTED_EDGE ( 'NONE', *, *, #641, .F. ) ;
#214 = PRODUCT_RELATED_PRODUCT_CATEGORY ( 'detail', '', ( #774 ) ) ;
#215 = CARTESIAN_POINT ( 'NONE',  ( -13.55741526174398537, 68.34333309900759446, 0.000000000000000000 ) ) ;
#216 = LINE ( 'NONE', #525, #793 ) ;
#217 = CARTESIAN_POINT ( 'NONE',  ( 18.63871090099441830, -0.000000000000000000, 10.95702773923875206 ) ) ;
#218 = CARTESIAN_POINT ( 'NONE',  ( 22.00000000000000000, 84.00000000000000000, 0.000000000000000000 ) ) ;
#219 = ORIENTED_EDGE ( 'NONE', *, *, #439, .T. ) ;
#220 = CARTESIAN_POINT ( 'NONE',  ( 22.00000000000000000, 84.00000000000000000, 8.000000000000000000 ) ) ;
#221 = CARTESIAN_POINT ( 'NONE',  ( -21.69993048876420971, 0.000000000000000000, 11.77491600511370606 ) ) ;
#222 = EDGE_CURVE ( 'NONE', #547, #684, #544, .T. ) ;
#223 = CARTESIAN_POINT ( 'NONE',  ( -22.00000000000000000, 8.000000000000000000, 0.000000000000000000 ) ) ;
#224 = CARTESIAN_POINT ( 'NONE',  ( 8.099999999999999645, 70.00000000000000000, 5.200000000000000178 ) ) ;
#225 = EDGE_LOOP ( 'NONE', ( #466, #186 ) ) ;
#226 = CARTESIAN_POINT ( 'NONE',  ( 22.00000000000000000, 84.00000000000000000, 8.000000000000000000 ) ) ;
#227 = VECTOR ( 'NONE', #843, 1000.000000000000000 ) ;
#228 = CARTESIAN_POINT ( 'NONE',  ( -20.22561580490735267, -0.000000000000000000, 13.70000000000000284 ) ) ;
#229 = CARTESIAN_POINT ( 'NONE',  ( 13.77491600510831482, 71.70006951123355066, -0.000000000000000000 ) ) ;
#230 = EDGE_CURVE ( 'NONE', #706, #873, #853, .T. ) ;
#231 = FACE_OUTER_BOUND ( 'NONE', #68, .T. ) ;
#232 = ORIENTED_EDGE ( 'NONE', *, *, #433, .T. ) ;
#233 = CARTESIAN_POINT ( 'NONE',  ( -28.00000000000000000, 8.000000000000000000, 24.00000000000000000 ) ) ;
#234 = CYLINDRICAL_SURFACE ( 'NONE', #48, 8.099999999999999645 ) ;
#235 = CYLINDRICAL_SURFACE ( 'NONE', #516, 1.699999999999998401 ) ;
#236 = ORIENTED_EDGE ( 'NONE', *, *, #723, .F. ) ;
#237 = CARTESIAN_POINT ( 'NONE',  ( -28.00000000000000000, 8.000000000000000000, 0.000000000000000000 ) ) ;
#238 = CALENDAR_DATE ( 2026, 18, 9 ) ;
#239 = EDGE_LOOP ( 'NONE', ( #697, #510, #675, #457 ) ) ;
#240 = EDGE_CURVE ( 'NONE', #523, #393, #678, .T. ) ;
#241 = CARTESIAN_POINT ( 'NONE',  ( 22.00000000000000355, 8.000000000000000000, 24.00000000000000000 ) ) ;
#242 = LOCAL_TIME ( 6, 17, 2.000000000000000000, #670 ) ;
#243 = PERSON_AND_ORGANIZATION ( #839, #318 ) ;
#244 = EDGE_LOOP ( 'NONE', ( #327, #578, #66, #387, #601, #183, #99, #528 ) ) ;
#245 = EDGE_CURVE ( 'NONE', #376, #684, #758, .T. ) ;
#246 = CARTESIAN_POINT ( 'NONE',  ( -20.00000000000000000, -6.000000000000000152E-06, 10.30000000000000071 ) ) ;
#247 = PERSON_AND_ORGANIZATION ( #839, #318 ) ;
#248 = EDGE_LOOP ( 'NONE', ( #160, #930, #103, #370 ) ) ;
#249 = APPLICATION_CONTEXT ( 'configuration controlled 3d designs of mechanical parts and assemblies' ) ;
#250 = LINE ( 'NONE', #180, #479 ) ;
#251 = EDGE_CURVE ( 'NONE', #43, #137, #686, .T. ) ;
#252 = ORIENTED_EDGE ( 'NONE', *, *, #674, .F. ) ;
#253 = AXIS2_PLACEMENT_3D ( 'NONE', #633, #850, #334 ) ;
#254 = CARTESIAN_POINT ( 'NONE',  ( 28.00000000000000000, 8.000000000000000000, 24.00000000000000000 ) ) ;
#255 = COORDINATED_UNIVERSAL_TIME_OFFSET ( 5, 0, .BEHIND. ) ;
#256 = VECTOR ( 'NONE', #570, 1000.000000000000000 ) ;
#257 = ORIENTED_EDGE ( 'NONE', *, *, #564, .F. ) ;
#258 = CARTESIAN_POINT ( 'NONE',  ( 20.00000000000000000, 8.000000000000000000, 10.30000000000000071 ) ) ;
#259 = LINE ( 'NONE', #555, #605 ) ;
#260 = AXIS2_PLACEMENT_3D ( 'NONE', #156, #307, #367 ) ;
#261 = DIRECTION ( 'NONE',  ( -1.000000000000000000, 0.000000000000000000, 0.000000000000000000 ) ) ;
#262 = CARTESIAN_POINT ( 'NONE',  ( -12.51547649045471466, 70.85853893179005070, -0.000000000000000000 ) ) ;
#263 = CARTESIAN_POINT ( 'NONE',  ( 15.69999999999999929, 70.00000000000000000, -6.000000000000000152E-06 ) ) ;
#264 = AXIS2_PLACEMENT_3D ( 'NONE', #484, #190, #416 ) ;
#265 = DIRECTION ( 'NONE',  ( -0.000000000000000000, 1.000000000000000000, -0.000000000000000000 ) ) ;
#266 = VERTEX_POINT ( 'NONE', #543 ) ;
#267 = CARTESIAN_POINT ( 'NONE',  ( -12.30000000000000071, 70.00000000000000000, -6.000000000000000152E-06 ) ) ;
#268 = ORIENTED_EDGE ( 'NONE', *, *, #535, .F. ) ;
#269 = DIRECTION ( 'NONE',  ( 0.000000000000000000, 0.000000000000000000, 1.000000000000000000 ) ) ;
#270 = ORIENTED_EDGE ( 'NONE', *, *, #316, .F. ) ;
#271 = CARTESIAN_POINT ( 'NONE',  ( 0.000000000000000000, 70.00000000000000000, -1.200000000000000030E-05 ) ) ;
#272 = VERTEX_POINT ( 'NONE', #258 ) ;
#273 = EDGE_CURVE ( 'NONE', #756, #810, #375, .T. ) ;
#274 = DIRECTION ( 'NONE',  ( -0.000000000000000000, -0.000000000000000000, 1.000000000000000000 ) ) ;
#275 = ORIENTED_EDGE ( 'NONE', *, *, #685, .T. ) ;
#276 = DESIGN_CONTEXT ( 'detailed design', #546, 'design' ) ;
#277 = CYLINDRICAL_SURFACE ( 'NONE', #514, 1.700000000000000178 ) ;
#278 = EDGE_LOOP ( 'NONE', ( #668, #447, #421, #779 ) ) ;
#279 = CARTESIAN_POINT ( 'NONE',  ( 18.29993048876495010, -0.000000000000000000, 12.22508399488808628 ) ) ;
#280 = EDGE_CURVE ( 'NONE', #706, #571, #754, .T. ) ;
#281 = DIRECTION ( 'NONE',  ( 1.000000000000000000, 0.000000000000000000, 0.000000000000000000 ) ) ;
#282 = EDGE_LOOP ( 'NONE', ( #672, #921, #618, #891 ) ) ;
#283 = AXIS2_PLACEMENT_3D ( 'NONE', #583, #739, #94 ) ;
#284 = CARTESIAN_POINT ( 'NONE',  ( -14.00000000000000000, 70.00000000000000000, -1.200000000000000030E-05 ) ) ;
#285 = PLANE ( 'NONE',  #44 ) ;
#286 = DIRECTION ( 'NONE',  ( -0.000000000000000000, -1.000000000000000000, -0.000000000000000000 ) ) ;
#287 = CYLINDRICAL_SURFACE ( 'NONE', #59, 1.700000000000000178 ) ;
#288 = ORIENTED_EDGE ( 'NONE', *, *, #780, .T. ) ;
#289 = CARTESIAN_POINT ( 'NONE',  ( -18.95712604296878467, 0.000000000000000000, 13.36119079527010101 ) ) ;
#290 = LINE ( 'NONE', #92, #189 ) ;
#291 = B_SPLINE_CURVE_WITH_KNOTS ( 'NONE', 3,
 ( #85, #209, #437, #295, #289, #518, #869, #591, #806, #663, #505, #725, #500, #18, #141, #931, #301, #430 ),
 .UNSPECIFIED., .F., .F.,
 ( 4, 2, 2, 2, 2, 2, 2, 2, 4 ),
 ( 0.000000000000000000, 0.06250000000000000000, 0.1250000000000000000, 0.1875000000000000000, 0.2500000000000000000, 0.3125000000000000000, 0.3750000000000000000, 0.4375000000000000000, 0.5000000000000000000 ),
 .UNSPECIFIED. ) ;
#292 = CARTESIAN_POINT ( 'NONE',  ( 20.00000000000000000, -6.000000000000000152E-06, 10.30000000000000071 ) ) ;
#293 = DIRECTION ( 'NONE',  ( -0.000000000000000000, -1.000000000000000000, -0.000000000000000000 ) ) ;
#294 = ORIENTED_EDGE ( 'NONE', *, *, #310, .F. ) ;
#295 = CARTESIAN_POINT ( 'NONE',  ( -19.14146106821090143, -0.000000000000000000, 13.48452350954438650 ) ) ;
#296 = EDGE_CURVE ( 'NONE', #476, #547, #892, .T. ) ;
#297 = CARTESIAN_POINT ( 'NONE',  ( -21.48439506952757228, 0.000000000000000000, 11.14151426980747850 ) ) ;
#298 = DIRECTION ( 'NONE',  ( -1.000000000000000000, 0.000000000000000000, 0.000000000000000000 ) ) ;
#299 = CARTESIAN_POINT ( 'NONE',  ( 14.22508399489131214, 68.29993048876643513, -0.000000000000000000 ) ) ;
#300 = VERTEX_POINT ( 'NONE', #895 ) ;
#301 = CARTESIAN_POINT ( 'NONE',  ( -19.77491600511333658, -0.000000000000000000, 10.30006951123579206 ) ) ;
#302 = VECTOR ( 'NONE', #164, 1000.000000000000000 ) ;
#303 = CARTESIAN_POINT ( 'NONE',  ( -20.00000000000000000, -1.200000000000000030E-05, 10.30000000000000071 ) ) ;
#304 = CARTESIAN_POINT ( 'NONE',  ( 18.63880920472916003, 0.000000000000000000, 13.04287395703121177 ) ) ;
#305 = DIRECTION ( 'NONE',  ( 0.000000000000000000, 1.000000000000000000, 0.000000000000000000 ) ) ;
#306 = ORIENTED_EDGE ( 'NONE', *, *, #82, .F. ) ;
#307 = DIRECTION ( 'NONE',  ( 0.000000000000000000, 0.000000000000000000, 1.000000000000000000 ) ) ;
#308 = APPROVAL_STATUS ( 'not_yet_approved' ) ;
#309 = CARTESIAN_POINT ( 'NONE',  ( 20.00000000000000000, 8.000000000000000000, 12.00000000000000000 ) ) ;
#310 = EDGE_CURVE ( 'NONE', #884, #27, #250, .T. ) ;
#311 = ORIENTED_EDGE ( 'NONE', *, *, #117, .T. ) ;
#312 = AXIS2_PLACEMENT_3D ( 'NONE', #360, #592, #454 ) ;
#313 = CARTESIAN_POINT ( 'NONE',  ( 21.65666690099398650, 0.000000000000000000, 11.55741526174742262 ) ) ;
#314 =( NAMED_UNIT ( * ) PLANE_ANGLE_UNIT ( ) SI_UNIT ( $, .RADIAN. ) );
#315 = ORIENTED_EDGE ( 'NONE', *, *, #222, .T. ) ;
#316 = EDGE_CURVE ( 'NONE', #856, #131, #472, .T. ) ;
#317 = CARTESIAN_POINT ( 'NONE',  ( 21.04297226076638339, -0.000000000000000000, 10.63871090099879879 ) ) ;
#318 = ORGANIZATION ( '未', '未', '' ) ;
#319 = PERSON_AND_ORGANIZATION_ROLE ( 'design_supplier' ) ;
#320 = ORIENTED_EDGE ( 'NONE', *, *, #127, .F. ) ;
#321 = EDGE_CURVE ( 'NONE', #688, #206, #259, .T. ) ;
#322 = FACE_BOUND ( 'NONE', #490, .T. ) ;
#323 = EDGE_LOOP ( 'NONE', ( #845, #201, #729, #821 ) ) ;
#324 = DIRECTION ( 'NONE',  ( -1.000000000000000000, -0.000000000000000000, -0.000000000000000000 ) ) ;
#325 = APPROVAL ( #101, '未' ) ;
#326 = APPROVAL_DATE_TIME ( #687, #60 ) ;
#327 = ORIENTED_EDGE ( 'NONE', *, *, #433, .F. ) ;
#328 = CARTESIAN_POINT ( 'NONE',  ( 0.000000000000000000, 70.00000000000000000, 5.200000000000000178 ) ) ;
#329 = CYLINDRICAL_SURFACE ( 'NONE', #20, 1.700000000000000178 ) ;
#330 = CARTESIAN_POINT ( 'NONE',  ( -15.48452350954464762, 69.14146106820932403, -0.000000000000000000 ) ) ;
#331 = CARTESIAN_POINT ( 'NONE',  ( 15.70000000000000284, 69.77438419509041978, -0.000000000000000000 ) ) ;
#332 = ADVANCED_FACE ( 'NONE', ( #62 ), #129, .F. ) ;
#333 = FACE_BOUND ( 'NONE', #95, .T. ) ;
#334 = DIRECTION ( 'NONE',  ( -1.000000000000000000, 0.000000000000000000, -0.000000000000000000 ) ) ;
#335 = DIRECTION ( 'NONE',  ( -0.000000000000000000, -0.000000000000000000, 1.000000000000000000 ) ) ;
#336 = FACE_OUTER_BOUND ( 'NONE', #248, .T. ) ;
#337 = EDGE_LOOP ( 'NONE', ( #630, #153, #496, #427 ) ) ;
#338 = DIRECTION ( 'NONE',  ( -0.000000000000000000, 1.000000000000000000, -0.000000000000000000 ) ) ;
#339 = AXIS2_PLACEMENT_3D ( 'NONE', #478, #562, #481 ) ;
#340 = CARTESIAN_POINT ( 'NONE',  ( 15.69999999999999929, 70.00000000000000000, -1.200000000000000030E-05 ) ) ;
#341 = CIRCLE ( 'NONE', #350, 1.699999999999998401 ) ;
#342 = DIRECTION ( 'NONE',  ( -1.000000000000000000, 0.000000000000000000, -0.000000000000000000 ) ) ;
#343 = LOCAL_TIME ( 6, 17, 2.000000000000000000, #820 ) ;
#344 = UNCERTAINTY_MEASURE_WITH_UNIT (LENGTH_MEASURE( 1.000000000000000082E-05 ), #151, 'distance_accuracy_value', 'NONE');
#345 = FACE_OUTER_BOUND ( 'NONE', #542, .T. ) ;
#346 = EDGE_CURVE ( 'NONE', #636, #748, #148, .T. ) ;
#347 = ORIENTED_EDGE ( 'NONE', *, *, #477, .T. ) ;
#348 = CARTESIAN_POINT ( 'NONE',  ( 0.000000000000000000, 70.00000000000000000, 5.200000000000000178 ) ) ;
#349 = LINE ( 'NONE', #635, #302 ) ;
#350 = AXIS2_PLACEMENT_3D ( 'NONE', #800, #656, #12 ) ;
#351 = ORIENTED_EDGE ( 'NONE', *, *, #883, .F. ) ;
#352 = DIRECTION ( 'NONE',  ( -1.000000000000000000, 0.000000000000000000, 0.000000000000000000 ) ) ;
#353 = CARTESIAN_POINT ( 'NONE',  ( -20.44258473825104261, -0.000000000000000000, 10.34333309900522124 ) ) ;
#354 = EDGE_CURVE ( 'NONE', #40, #571, #406, .T. ) ;
#355 = CARTESIAN_POINT ( 'NONE',  ( 15.65666690099372360, 70.44258473825063049, -0.000000000000000000 ) ) ;
#356 = PLANE ( 'NONE',  #382 ) ;
#357 = EDGE_LOOP ( 'NONE', ( #494, #252 ) ) ;
#358 = DIRECTION ( 'NONE',  ( 1.000000000000000000, 0.000000000000000000, 0.000000000000000000 ) ) ;
#359 = VECTOR ( 'NONE', #540, 1000.000000000000000 ) ;
#360 = CARTESIAN_POINT ( 'NONE',  ( 20.00000000000000000, 8.000000000000000000, 12.00000000000000000 ) ) ;
#361 = CARTESIAN_POINT ( 'NONE',  ( 14.85848573020187935, 71.48439506952531985, 0.000000000000000000 ) ) ;
#362 = DIRECTION ( 'NONE',  ( 0.000000000000000000, 0.000000000000000000, -1.000000000000000000 ) ) ;
#363 = ADVANCED_FACE ( 'NONE', ( #345 ), #56, .F. ) ;
#364 = EDGE_LOOP ( 'NONE', ( #917, #113, #111, #852 ) ) ;
#365 = CIRCLE ( 'NONE', #264, 1.699999999999998401 ) ;
#366 = DIRECTION ( 'NONE',  ( 0.000000000000000000, 0.000000000000000000, 1.000000000000000000 ) ) ;
#367 = DIRECTION ( 'NONE',  ( 1.000000000000000000, 0.000000000000000000, -0.000000000000000000 ) ) ;
#368 = CARTESIAN_POINT ( 'NONE',  ( 18.30006951123504777, 0.000000000000000000, 11.77491600511191550 ) ) ;
#369 = CARTESIAN_POINT ( 'NONE',  ( 20.00000000000000000, -6.000000000000000152E-06, 13.70000000000000107 ) ) ;
#370 = ORIENTED_EDGE ( 'NONE', *, *, #400, .F. ) ;
#371 = LINE ( 'NONE', #875, #533 ) ;
#372 = CARTESIAN_POINT ( 'NONE',  ( -21.70006951123579242, -0.000000000000000000, 12.22508399488629038 ) ) ;
#373 = CARTESIAN_POINT ( 'NONE',  ( -8.099999999999999645, 70.00000000000000000, 5.200000000000000178 ) ) ;
#374 = DIRECTION ( 'NONE',  ( 0.000000000000000000, 0.000000000000000000, -1.000000000000000000 ) ) ;
#375 = B_SPLINE_CURVE_WITH_KNOTS ( 'NONE', 3,
 ( #41, #673, #819, #29, #682, #33, #816, #170, #742, #611, #313, #606, #174, #317, #613, #38, #888, #463 ),
 .UNSPECIFIED., .F., .F.,
 ( 4, 2, 2, 2, 2, 2, 2, 2, 4 ),
 ( 0.000000000000000000, 0.06250000000000000000, 0.1250000000000000000, 0.1875000000000000000, 0.2500000000000000000, 0.3125000000000000000, 0.3750000000000000000, 0.4375000000000000000, 0.5000000000000000000 ),
 .UNSPECIFIED. ) ;
#376 = VERTEX_POINT ( 'NONE', #629 ) ;
#377 = CARTESIAN_POINT ( 'NONE',  ( -13.77491600510868430, 68.29993048876644934, -0.000000000000000000 ) ) ;
#378 = DIRECTION ( 'NONE',  ( -0.000000000000000000, 1.000000000000000000, -0.000000000000000000 ) ) ;
#379 = CARTESIAN_POINT ( 'NONE',  ( 19.55741526174896094, -0.000000000000000000, 10.34333309900522124 ) ) ;
#380 = FACE_OUTER_BOUND ( 'NONE', #239, .T. ) ;
#381 = VERTEX_POINT ( 'NONE', #781 ) ;
#382 = AXIS2_PLACEMENT_3D ( 'NONE', #493, #778, #119 ) ;
#383 = DIRECTION ( 'NONE',  ( 0.000000000000000000, -1.000000000000000000, 0.000000000000000000 ) ) ;
#384 = EDGE_CURVE ( 'NONE', #879, #650, #698, .T. ) ;
#385 = APPROVAL_ROLE ( '' ) ;
#386 = CARTESIAN_POINT ( 'NONE',  ( 0.000000000000000000, 70.00000000000000000, 5.200000000000000178 ) ) ;
#387 = ORIENTED_EDGE ( 'NONE', *, *, #123, .F. ) ;
#388 = DIRECTION ( 'NONE',  ( -1.000000000000000000, 0.000000000000000000, 0.000000000000000000 ) ) ;
#389 = APPROVAL_DATE_TIME ( #25, #325 ) ;
#390 = CC_DESIGN_PERSON_AND_ORGANIZATION_ASSIGNMENT ( #616, #679, ( #730 ) ) ;
#391 = ORIENTED_EDGE ( 'NONE', *, *, #280, .T. ) ;
#392 = CARTESIAN_POINT ( 'NONE',  ( 5.799999999999999822, 70.00000000000000000, -1.200000000000000030E-05 ) ) ;
#393 = VERTEX_POINT ( 'NONE', #125 ) ;
#394 = VECTOR ( 'NONE', #557, 1000.000000000000000 ) ;
#395 = VECTOR ( 'NONE', #511, 1000.000000000000000 ) ;
#396 = AXIS2_PLACEMENT_3D ( 'NONE', #763, #205, #281 ) ;
#397 = FACE_BOUND ( 'NONE', #424, .T. ) ;
#398 = SHAPE_DEFINITION_REPRESENTATION ( #851, #676 ) ;
#399 = ORIENTED_EDGE ( 'NONE', *, *, #842, .T. ) ;
#400 = EDGE_CURVE ( 'NONE', #137, #504, #874, .T. ) ;
#401 = DIRECTION ( 'NONE',  ( 0.000000000000000000, 0.000000000000000000, 1.000000000000000000 ) ) ;
#402 = PERSON_AND_ORGANIZATION ( #839, #318 ) ;
#403 = ORIENTED_EDGE ( 'NONE', *, *, #604, .F. ) ;
#404 = DIRECTION ( 'NONE',  ( -0.000000000000000000, -0.000000000000000000, 1.000000000000000000 ) ) ;
#405 = ORIENTED_EDGE ( 'NONE', *, *, #240, .T. ) ;
#406 = CIRCLE ( 'NONE', #339, 8.099999999999999645 ) ;
#407 = CARTESIAN_POINT ( 'NONE',  ( -15.70006951123579420, 69.77491600511629599, 0.000000000000000000 ) ) ;
#408 = ADVANCED_FACE ( 'NONE', ( #915, #426, #701 ), #414, .F. ) ;
#409 = AXIS2_PLACEMENT_3D ( 'NONE', #642, #577, #342 ) ;
#410 = FACE_BOUND ( 'NONE', #859, .T. ) ;
#411 = CARTESIAN_POINT ( 'NONE',  ( -14.44263793983979838, 68.34320465898694863, -0.000000000000000000 ) ) ;
#412 = EDGE_CURVE ( 'NONE', #792, #131, #420, .T. ) ;
#413 = DIRECTION ( 'NONE',  ( 0.000000000000000000, 0.000000000000000000, 1.000000000000000000 ) ) ;
#414 = PLANE ( 'NONE',  #827 ) ;
#415 = CARTESIAN_POINT ( 'NONE',  ( 20.00000000000000000, -1.200000000000000030E-05, 13.70000000000000107 ) ) ;
#416 = DIRECTION ( 'NONE',  ( -1.000000000000000000, 0.000000000000000000, 0.000000000000000000 ) ) ;
#417 = VECTOR ( 'NONE', #475, 1000.000000000000000 ) ;
#418 = EDGE_CURVE ( 'NONE', #748, #636, #702, .T. ) ;
#419 = CARTESIAN_POINT ( 'NONE',  ( -15.65679534101080783, 70.44263793985066968, -0.000000000000000000 ) ) ;
#420 = CIRCLE ( 'NONE', #573, 1.700000000000000178 ) ;
#421 = ORIENTED_EDGE ( 'NONE', *, *, #82, .T. ) ;
#422 = VECTOR ( 'NONE', #456, 1000.000000000000000 ) ;
#423 = FACE_OUTER_BOUND ( 'NONE', #23, .T. ) ;
#424 = EDGE_LOOP ( 'NONE', ( #614, #288 ) ) ;
#425 = EDGE_CURVE ( 'NONE', #856, #203, #291, .T. ) ;
#426 = FACE_BOUND ( 'NONE', #799, .T. ) ;
#427 = ORIENTED_EDGE ( 'NONE', *, *, #117, .F. ) ;
#428 = CARTESIAN_POINT ( 'NONE',  ( -12.30000000000000071, 70.00000000000000000, -1.200000000000000030E-05 ) ) ;
#429 = VERTEX_POINT ( 'NONE', #586 ) ;
#430 = CARTESIAN_POINT ( 'NONE',  ( -20.00000000000000000, -6.000000000000000152E-06, 10.30000000000000071 ) ) ;
#431 = FACE_OUTER_BOUND ( 'NONE', #364, .T. ) ;
#432 = VECTOR ( 'NONE', #587, 1000.000000000000000 ) ;
#433 = EDGE_CURVE ( 'NONE', #879, #27, #371, .T. ) ;
#434 = CARTESIAN_POINT ( 'NONE',  ( 28.00000000000000000, 8.000000000000000000, 0.000000000000000000 ) ) ;
#435 = DIRECTION ( 'NONE',  ( 0.000000000000000000, 0.000000000000000000, -1.000000000000000000 ) ) ;
#436 = VERTEX_POINT ( 'NONE', #220 ) ;
#437 = CARTESIAN_POINT ( 'NONE',  ( -19.55741526174779210, -0.000000000000000000, 13.65666690099398828 ) ) ;
#438 = CARTESIAN_POINT ( 'NONE',  ( -21.65666690099477876, 0.000000000000000000, 12.44258473825066957 ) ) ;
#439 = EDGE_CURVE ( 'NONE', #436, #690, #73, .T. ) ;
#440 = DIRECTION ( 'NONE',  ( 0.000000000000000000, 0.000000000000000000, 1.000000000000000000 ) ) ;
#441 = ORIENTED_EDGE ( 'NONE', *, *, #175, .T. ) ;
#442 = VECTOR ( 'NONE', #838, 1000.000000000000000 ) ;
#443 = CARTESIAN_POINT ( 'NONE',  ( -13.14146106821471349, 68.51547649045403432, -0.000000000000000000 ) ) ;
#444 = CARTESIAN_POINT ( 'NONE',  ( 20.00000000000000000, -1.200000000000000030E-05, 10.30000000000000071 ) ) ;
#445 = FACE_OUTER_BOUND ( 'NONE', #886, .T. ) ;
#446 = CARTESIAN_POINT ( 'NONE',  ( -22.00000000000000000, 84.00000000000000000, 0.000000000000000000 ) ) ;
#447 = ORIENTED_EDGE ( 'NONE', *, *, #230, .T. ) ;
#448 = CARTESIAN_POINT ( 'NONE',  ( 0.000000000000000000, 70.00000000000000000, 8.000000000000000000 ) ) ;
#449 = CARTESIAN_POINT ( 'NONE',  ( -20.44246974991423471, -0.000000000000000000, 13.65686506842306436 ) ) ;
#450 = CARTESIAN_POINT ( 'NONE',  ( 15.69999999999999929, 70.00000000000000000, -6.000000000000000152E-06 ) ) ;
#451 = DIRECTION ( 'NONE',  ( 0.000000000000000000, -1.000000000000000000, 0.000000000000000000 ) ) ;
#452 = EDGE_LOOP ( 'NONE', ( #275, #169, #661, #219 ) ) ;
#453 = AXIS2_PLACEMENT_3D ( 'NONE', #328, #401, #620 ) ;
#454 = DIRECTION ( 'NONE',  ( 0.000000000000000000, 0.000000000000000000, -1.000000000000000000 ) ) ;
#455 = CARTESIAN_POINT ( 'NONE',  ( 12.30006951123579562, 70.22508399488370401, 0.000000000000000000 ) ) ;
#456 = DIRECTION ( 'NONE',  ( 0.000000000000000000, 1.000000000000000000, 0.000000000000000000 ) ) ;
#457 = ORIENTED_EDGE ( 'NONE', *, *, #579, .T. ) ;
#458 = CC_DESIGN_PERSON_AND_ORGANIZATION_ASSIGNMENT ( #247, #110, ( #459 ) ) ;
#459 = SECURITY_CLASSIFICATION ( '', '', #898 ) ;
#460 = DIRECTION ( 'NONE',  ( 0.000000000000000000, 0.000000000000000000, -1.000000000000000000 ) ) ;
#461 = PERSON_AND_ORGANIZATION ( #839, #318 ) ;
#462 = ORIENTED_EDGE ( 'NONE', *, *, #296, .T. ) ;
#463 = CARTESIAN_POINT ( 'NONE',  ( 20.00000000000000000, -6.000000000000000152E-06, 10.30000000000000071 ) ) ;
#464 = APPROVAL_DATE_TIME ( #755, #609 ) ;
#465 = ADVANCED_FACE ( 'NONE', ( #147 ), #277, .F. ) ;
#466 = ORIENTED_EDGE ( 'NONE', *, *, #46, .T. ) ;
#467 = CARTESIAN_POINT ( 'NONE',  ( 8.099999999999999645, 70.00000000000000000, 5.200000000000000178 ) ) ;
#468 = APPLICATION_PROTOCOL_DEFINITION ( 'international standard', 'config_control_design', 1994, #546 ) ;
#469 = ADVANCED_FACE ( 'NONE', ( #80 ), #580, .F. ) ;
#470 = ORIENTED_EDGE ( 'NONE', *, *, #273, .T. ) ;
#471 = AXIS2_PLACEMENT_3D ( 'NONE', #386, #26, #649 ) ;
#472 = LINE ( 'NONE', #925, #75 ) ;
#473 = PERSON_AND_ORGANIZATION ( #839, #318 ) ;
#474 = EDGE_LOOP ( 'NONE', ( #566, #643 ) ) ;
#475 = DIRECTION ( 'NONE',  ( -0.000000000000000000, -0.000000000000000000, -1.000000000000000000 ) ) ;
#476 = VERTEX_POINT ( 'NONE', #864 ) ;
#477 = EDGE_CURVE ( 'NONE', #27, #523, #651, .T. ) ;
#478 = CARTESIAN_POINT ( 'NONE',  ( 0.000000000000000000, 70.00000000000000000, 0.000000000000000000 ) ) ;
#479 = VECTOR ( 'NONE', #825, 1000.000000000000000 ) ;
#480 = LINE ( 'NONE', #428, #840 ) ;
#481 = DIRECTION ( 'NONE',  ( 1.000000000000000000, 0.000000000000000000, 0.000000000000000000 ) ) ;
#482 = EDGE_CURVE ( 'NONE', #534, #381, #341, .T. ) ;
#483 = VECTOR ( 'NONE', #520, 1000.000000000000000 ) ;
#484 = CARTESIAN_POINT ( 'NONE',  ( 14.00000000000000000, 70.00000000000000000, 8.000000000000000000 ) ) ;
#485 = CARTESIAN_POINT ( 'NONE',  ( -12.30000000000000071, 70.22525195654419861, 0.000000000000000000 ) ) ;
#486 = AXIS2_PLACEMENT_3D ( 'NONE', #448, #622, #855 ) ;
#487 = EDGE_CURVE ( 'NONE', #684, #547, #524, .T. ) ;
#488 = CYLINDRICAL_SURFACE ( 'NONE', #396, 1.699999999999998401 ) ;
#489 = CARTESIAN_POINT ( 'NONE',  ( -20.00000000000000000, 8.000000000000000000, 12.00000000000000000 ) ) ;
#490 = EDGE_LOOP ( 'NONE', ( #735, #179 ) ) ;
#491 = CARTESIAN_POINT ( 'NONE',  ( 20.00000000000000000, 8.000000000000000000, 13.70000000000000107 ) ) ;
#492 = CC_DESIGN_DATE_AND_TIME_ASSIGNMENT ( #97, #893, ( #730 ) ) ;
#493 = CARTESIAN_POINT ( 'NONE',  ( -22.00000000000000000, 84.00000000000000000, 8.000000000000000000 ) ) ;
#494 = ORIENTED_EDGE ( 'NONE', *, *, #836, .F. ) ;
#495 = CARTESIAN_POINT ( 'NONE',  ( -12.95702773924156759, 71.36128909900689621, -0.000000000000000000 ) ) ;
#496 = ORIENTED_EDGE ( 'NONE', *, *, #828, .T. ) ;
#497 = AXIS2_PLACEMENT_3D ( 'NONE', #626, #265, #560 ) ;
#498 = CYLINDRICAL_SURFACE ( 'NONE', #135, 5.799999999999999822 ) ;
#499 = ORIENTED_EDGE ( 'NONE', *, *, #836, .T. ) ;
#500 = CARTESIAN_POINT ( 'NONE',  ( -18.63880920472979241, 0.000000000000000000, 10.95712604296852177 ) ) ;
#501 = ORIENTED_EDGE ( 'NONE', *, *, #245, .T. ) ;
#502 = CARTESIAN_POINT ( 'NONE',  ( 18.95702773923658668, -0.000000000000000000, 13.36128909900305395 ) ) ;
#503 = FACE_OUTER_BOUND ( 'NONE', #337, .T. ) ;
#504 = VERTEX_POINT ( 'NONE', #923 ) ;
#505 = CARTESIAN_POINT ( 'NONE',  ( -18.34333309900548770, 0.000000000000000000, 11.55741526174869271 ) ) ;
#506 = ADVANCED_FACE ( 'NONE', ( #200 ), #848, .F. ) ;
#507 = B_SPLINE_CURVE_WITH_KNOTS ( 'NONE', 3,
 ( #292, #9, #379, #808, #588, #217, #69, #211, #368, #279, #797, #87, #304, #502, #653, #861, #575, #871 ),
 .UNSPECIFIED., .F., .F.,
 ( 4, 2, 2, 2, 2, 2, 2, 2, 4 ),
 ( 0.5000000000000000000, 0.5625000000000000000, 0.6250000000000000000, 0.6875000000000000000, 0.7500000000000000000, 0.8125000000000000000, 0.8750000000000000000, 0.9375000000000000000, 1.000000000000000000 ),
 .UNSPECIFIED. ) ;
#508 = CARTESIAN_POINT ( 'NONE',  ( -21.65679534101080961, -0.000000000000000000, 11.55736206015121326 ) ) ;
#509 = FACE_OUTER_BOUND ( 'NONE', #550, .T. ) ;
#510 = ORIENTED_EDGE ( 'NONE', *, *, #207, .F. ) ;
#511 = DIRECTION ( 'NONE',  ( 1.000000000000000000, 0.000000000000000000, 0.000000000000000000 ) ) ;
#512 = CARTESIAN_POINT ( 'NONE',  ( -20.00000000000000000, -6.000000000000000152E-06, 13.70000000000000107 ) ) ;
#513 = CARTESIAN_POINT ( 'NONE',  ( -28.00000000000000000, 0.000000000000000000, 0.000000000000000000 ) ) ;
#514 = AXIS2_PLACEMENT_3D ( 'NONE', #284, #718, #358 ) ;
#515 = LINE ( 'NONE', #168, #422 ) ;
#516 = AXIS2_PLACEMENT_3D ( 'NONE', #671, #527, #813 ) ;
#517 = ORIENTED_EDGE ( 'NONE', *, *, #142, .F. ) ;
#518 = CARTESIAN_POINT ( 'NONE',  ( -18.63871090099695493, -0.000000000000000000, 13.04297226076415939 ) ) ;
#519 = CARTESIAN_POINT ( 'NONE',  ( -21.04287395703121177, 0.000000000000000000, 10.63880920472952596 ) ) ;
#520 = DIRECTION ( 'NONE',  ( 1.000000000000000000, 0.000000000000000000, 0.000000000000000000 ) ) ;
#521 = LINE ( 'NONE', #83, #830 ) ;
#522 = ADVANCED_FACE ( 'NONE', ( #333, #128, #410, #768 ), #918, .F. ) ;
#523 = VERTEX_POINT ( 'NONE', #705 ) ;
#524 = CIRCLE ( 'NONE', #486, 5.799999999999999822 ) ;
#525 = CARTESIAN_POINT ( 'NONE',  ( 22.00000000000000000, 0.000000000000000000, 8.000000000000000000 ) ) ;
#526 = CARTESIAN_POINT ( 'NONE',  ( 12.95712604296800485, 71.36119079527043141, 0.000000000000000000 ) ) ;
#527 = DIRECTION ( 'NONE',  ( -0.000000000000000000, -0.000000000000000000, 1.000000000000000000 ) ) ;
#528 = ORIENTED_EDGE ( 'NONE', *, *, #477, .F. ) ;
#529 = ADVANCED_FACE ( 'NONE', ( #423 ), #498, .F. ) ;
#530 = VECTOR ( 'NONE', #105, 1000.000000000000000 ) ;
#531 = CARTESIAN_POINT ( 'NONE',  ( -20.00000000000000000, 8.000000000000000000, 13.70000000000000107 ) ) ;
#532 = CARTESIAN_POINT ( 'NONE',  ( 0.000000000000000000, 0.000000000000000000, 0.000000000000000000 ) ) ;
#533 = VECTOR ( 'NONE', #712, 1000.000000000000000 ) ;
#534 = VERTEX_POINT ( 'NONE', #844 ) ;
#535 = EDGE_CURVE ( 'NONE', #107, #688, #139, .T. ) ;
#536 = DIRECTION ( 'NONE',  ( -0.000000000000000000, -0.000000000000000000, 1.000000000000000000 ) ) ;
#537 = B_SPLINE_CURVE_WITH_KNOTS ( 'NONE', 3,
 ( #654, #10, #589, #728, #878, #88, #809, #660, #16, #299, #53, #770, #922, #138, #132, #911, #331, #263 ),
 .UNSPECIFIED., .F., .F.,
 ( 4, 2, 2, 2, 2, 2, 2, 2, 4 ),
 ( 0.5000000000000000000, 0.5625000000000000000, 0.6250000000000000000, 0.6875000000000000000, 0.7500000000000000000, 0.8125000000000000000, 0.8750000000000000000, 0.9375000000000000000, 1.000000000000000000 ),
 .UNSPECIFIED. ) ;
#538 = APPROVAL_ROLE ( '' ) ;
#539 = EDGE_LOOP ( 'NONE', ( #470, #399 ) ) ;
#540 = DIRECTION ( 'NONE',  ( -0.000000000000000000, -0.000000000000000000, 1.000000000000000000 ) ) ;
#541 =( NAMED_UNIT ( * ) SI_UNIT ( $, .STERADIAN. ) SOLID_ANGLE_UNIT ( ) );
#542 = EDGE_LOOP ( 'NONE', ( #499, #501, #574, #84 ) ) ;
#543 = CARTESIAN_POINT ( 'NONE',  ( -28.00000000000000000, 0.000000000000000000, 0.000000000000000000 ) ) ;
#544 = CIRCLE ( 'NONE', #776, 5.799999999999999822 ) ;
#545 = DATE_TIME_ROLE ( 'classification_date' ) ;
#546 = APPLICATION_CONTEXT ( 'configuration controlled 3d designs of mechanical parts and assemblies' ) ;
#547 = VERTEX_POINT ( 'NONE', #193 ) ;
#548 = CARTESIAN_POINT ( 'NONE',  ( 0.000000000000000000, 70.00000000000000000, 8.000000000000000000 ) ) ;
#549 = DIRECTION ( 'NONE',  ( 1.000000000000000000, 0.000000000000000000, 0.000000000000000000 ) ) ;
#550 = EDGE_LOOP ( 'NONE', ( #788, #603, #257, #79 ) ) ;
#551 = ADVANCED_FACE ( 'NONE', ( #336 ), #488, .F. ) ;
#552 = CARTESIAN_POINT ( 'NONE',  ( -15.69999999999999929, 70.00000000000000000, -6.000000000000000152E-06 ) ) ;
#553 = CIRCLE ( 'NONE', #312, 1.700000000000000178 ) ;
#554 = EDGE_CURVE ( 'NONE', #381, #534, #721, .T. ) ;
#555 = CARTESIAN_POINT ( 'NONE',  ( 28.00000000000000000, 0.000000000000000000, 24.00000000000000000 ) ) ;
#556 = CARTESIAN_POINT ( 'NONE',  ( 8.099999999999999645, 70.00000000000000000, 0.000000000000000000 ) ) ;
#557 = DIRECTION ( 'NONE',  ( -1.000000000000000000, -0.000000000000000000, -0.000000000000000000 ) ) ;
#558 = AXIS2_PLACEMENT_3D ( 'NONE', #348, #854, #204 ) ;
#559 = CARTESIAN_POINT ( 'NONE',  ( 20.00000000000000000, -6.000000000000000152E-06, 10.30000000000000071 ) ) ;
#560 = DIRECTION ( 'NONE',  ( 0.000000000000000000, 0.000000000000000000, 1.000000000000000000 ) ) ;
#561 = ORIENTED_EDGE ( 'NONE', *, *, #310, .T. ) ;
#562 = DIRECTION ( 'NONE',  ( 0.000000000000000000, 0.000000000000000000, 1.000000000000000000 ) ) ;
#563 = DIRECTION ( 'NONE',  ( -0.000000000000000000, -0.000000000000000000, 1.000000000000000000 ) ) ;
#564 = EDGE_CURVE ( 'NONE', #504, #137, #365, .T. ) ;
#565 = FACE_OUTER_BOUND ( 'NONE', #452, .T. ) ;
#566 = ORIENTED_EDGE ( 'NONE', *, *, #354, .T. ) ;
#567 = CARTESIAN_POINT ( 'NONE',  ( -14.85853893179126928, 71.48452350954335088, -0.000000000000000000 ) ) ;
#568 = ORIENTED_EDGE ( 'NONE', *, *, #883, .T. ) ;
#569 = FACE_OUTER_BOUND ( 'NONE', #282, .T. ) ;
#570 = DIRECTION ( 'NONE',  ( 1.000000000000000000, 0.000000000000000000, 0.000000000000000000 ) ) ;
#571 = VERTEX_POINT ( 'NONE', #556 ) ;
#572 = CARTESIAN_POINT ( 'NONE',  ( -12.95712604296626047, 68.63880920473465608, 0.000000000000000000 ) ) ;
#573 = AXIS2_PLACEMENT_3D ( 'NONE', #489, #692, #67 ) ;
#574 = ORIENTED_EDGE ( 'NONE', *, *, #222, .F. ) ;
#575 = CARTESIAN_POINT ( 'NONE',  ( 19.77438419509190837, -0.000000000000000000, 13.70000000000000284 ) ) ;
#576 = LOCAL_TIME ( 6, 17, 2.000000000000000000, #683 ) ;
#577 = DIRECTION ( 'NONE',  ( 0.000000000000000000, 0.000000000000000000, -1.000000000000000000 ) ) ;
#578 = ORIENTED_EDGE ( 'NONE', *, *, #384, .T. ) ;
#579 = EDGE_CURVE ( 'NONE', #300, #650, #699, .T. ) ;
#580 = PLANE ( 'NONE',  #109 ) ;
#581 = LINE ( 'NONE', #303, #432 ) ;
#582 = CARTESIAN_POINT ( 'NONE',  ( -22.00000000000000000, 84.00000000000000000, 0.000000000000000000 ) ) ;
#583 = CARTESIAN_POINT ( 'NONE',  ( 20.00000000000000000, -1.200000000000000030E-05, 12.00000000000000000 ) ) ;
#584 = ORIENTED_EDGE ( 'NONE', *, *, #723, .T. ) ;
#585 = EDGE_CURVE ( 'NONE', #636, #534, #480, .T. ) ;
#586 = CARTESIAN_POINT ( 'NONE',  ( 15.69999999999999929, 70.00000000000000000, -6.000000000000000152E-06 ) ) ;
#587 = DIRECTION ( 'NONE',  ( -0.000000000000000000, 1.000000000000000000, -0.000000000000000000 ) ) ;
#588 = CARTESIAN_POINT ( 'NONE',  ( 18.95712604297132842, 0.000000000000000000, 10.63880920472698577 ) ) ;
#589 = CARTESIAN_POINT ( 'NONE',  ( 12.34333309900628173, 69.55741526174936951, -0.000000000000000000 ) ) ;
#590 = EDGE_LOOP ( 'NONE', ( #72, #210, #165, #11 ) ) ;
#591 = CARTESIAN_POINT ( 'NONE',  ( -18.34320465898919394, -0.000000000000000000, 12.44263793984841193 ) ) ;
#592 = DIRECTION ( 'NONE',  ( 0.000000000000000000, -1.000000000000000000, 0.000000000000000000 ) ) ;
#593 = EDGE_CURVE ( 'NONE', #571, #40, #36, .T. ) ;
#594 = CARTESIAN_POINT ( 'NONE',  ( 15.48452350954465118, 70.85853893179071861, -0.000000000000000000 ) ) ;
#595 = CYLINDRICAL_SURFACE ( 'NONE', #901, 8.099999999999999645 ) ;
#596 = AXIS2_PLACEMENT_3D ( 'NONE', #908, #772, #261 ) ;
#597 = ORIENTED_EDGE ( 'NONE', *, *, #142, .T. ) ;
#598 = CARTESIAN_POINT ( 'NONE',  ( -21.36119079527136932, 0.000000000000000000, 13.04287395703068952 ) ) ;
#599 = CARTESIAN_POINT ( 'NONE',  ( -28.00000000000000000, 0.000000000000000000, 24.00000000000000000 ) ) ;
#600 = PLANE ( 'NONE',  #120 ) ;
#601 = ORIENTED_EDGE ( 'NONE', *, *, #77, .T. ) ;
#602 = LINE ( 'NONE', #658, #623 ) ;
#603 = ORIENTED_EDGE ( 'NONE', *, *, #251, .T. ) ;
#604 = EDGE_CURVE ( 'NONE', #873, #706, #182, .T. ) ;
#605 = VECTOR ( 'NONE', #773, 1000.000000000000000 ) ;
#606 = CARTESIAN_POINT ( 'NONE',  ( 21.48452350954438472, -0.000000000000000000, 11.14146106821127091 ) ) ;
#607 = PERSON_AND_ORGANIZATION ( #839, #318 ) ;
#608 = EDGE_LOOP ( 'NONE', ( #403, #818 ) ) ;
#609 = APPROVAL ( #178, '未' ) ;
#610 = AXIS2_PLACEMENT_3D ( 'NONE', #532, #832, #549 ) ;
#611 = CARTESIAN_POINT ( 'NONE',  ( 21.70006951123505345, -0.000000000000000000, 11.77491600511191550 ) ) ;
#612 = ORIENTED_EDGE ( 'NONE', *, *, #245, .F. ) ;
#613 = CARTESIAN_POINT ( 'NONE',  ( 20.85848573019066876, 0.000000000000000000, 10.51560493047243128 ) ) ;
#614 = ORIENTED_EDGE ( 'NONE', *, *, #909, .T. ) ;
#615 = DIRECTION ( 'NONE',  ( 0.000000000000000000, 0.000000000000000000, -1.000000000000000000 ) ) ;
#616 = PERSON_AND_ORGANIZATION ( #839, #318 ) ;
#617 = ADVANCED_FACE ( 'NONE', ( #565 ), #356, .F. ) ;
#618 = ORIENTED_EDGE ( 'NONE', *, *, #585, .T. ) ;
#619 = VECTOR ( 'NONE', #293, 1000.000000000000000 ) ;
#620 = DIRECTION ( 'NONE',  ( 1.000000000000000000, 0.000000000000000000, 0.000000000000000000 ) ) ;
#621 = CARTESIAN_POINT ( 'NONE',  ( -15.36119079527556153, 68.95712604297240489, 0.000000000000000000 ) ) ;
#622 = DIRECTION ( 'NONE',  ( 0.000000000000000000, 0.000000000000000000, -1.000000000000000000 ) ) ;
#623 = VECTOR ( 'NONE', #870, 1000.000000000000000 ) ;
#624 = ADVANCED_FACE ( 'NONE', ( #124 ), #133, .F. ) ;
#625 = DIRECTION ( 'NONE',  ( 0.000000000000000000, 0.000000000000000000, -1.000000000000000000 ) ) ;
#626 = CARTESIAN_POINT ( 'NONE',  ( -20.00000000000000000, -1.200000000000000030E-05, 12.00000000000000000 ) ) ;
#627 = AXIS2_PLACEMENT_3D ( 'NONE', #271, #202, #707 ) ;
#628 = ORIENTED_EDGE ( 'NONE', *, *, #77, .F. ) ;
#629 = CARTESIAN_POINT ( 'NONE',  ( -5.799999999999999822, 70.00000000000000000, 5.200000000000000178 ) ) ;
#630 = ORIENTED_EDGE ( 'NONE', *, *, #106, .F. ) ;
#631 = CC_DESIGN_APPROVAL ( #609, ( #459 ) ) ;
#632 = DIRECTION ( 'NONE',  ( 1.000000000000000000, 0.000000000000000000, 0.000000000000000000 ) ) ;
#633 = CARTESIAN_POINT ( 'NONE',  ( 0.000000000000000000, 0.000000000000000000, 24.00000000000000000 ) ) ;
#634 = ORIENTED_EDGE ( 'NONE', *, *, #354, .F. ) ;
#635 = CARTESIAN_POINT ( 'NONE',  ( 28.00000000000000000, 0.000000000000000000, 24.00000000000000000 ) ) ;
#636 = VERTEX_POINT ( 'NONE', #65 ) ;
#637 = VECTOR ( 'NONE', #563, 1000.000000000000000 ) ;
#638 = CARTESIAN_POINT ( 'NONE',  ( -14.22508399489168873, 71.70006951123355066, -0.000000000000000000 ) ) ;
#639 = CARTESIAN_POINT ( 'NONE',  ( -22.00000000000000000, 8.000000000000000000, 8.000000000000000000 ) ) ;
#640 = CARTESIAN_POINT ( 'NONE',  ( 12.30000000000000249, 70.00000000000000000, -6.000000000000000152E-06 ) ) ;
#641 = EDGE_CURVE ( 'NONE', #688, #89, #349, .T. ) ;
#642 = CARTESIAN_POINT ( 'NONE',  ( 0.000000000000000000, 0.000000000000000000, 8.000000000000000000 ) ) ;
#643 = ORIENTED_EDGE ( 'NONE', *, *, #593, .T. ) ;
#644 = CARTESIAN_POINT ( 'NONE',  ( -12.34313493157694097, 69.55753025008442592, -0.000000000000000000 ) ) ;
#645 = CARTESIAN_POINT ( 'NONE',  ( 20.00000000000000000, -1.200000000000000030E-05, 12.00000000000000000 ) ) ;
#646 = CARTESIAN_POINT ( 'NONE',  ( 15.36119079527582620, 71.04287395702736774, 0.000000000000000000 ) ) ;
#647 = CC_DESIGN_APPROVAL ( #60, ( #730 ) ) ;
#648 = ADVANCED_FACE ( 'NONE', ( #380 ), #600, .F. ) ;
#649 = DIRECTION ( 'NONE',  ( 1.000000000000000000, 0.000000000000000000, 0.000000000000000000 ) ) ;
#650 = VERTEX_POINT ( 'NONE', #882 ) ;
#651 = LINE ( 'NONE', #7, #395 ) ;
#652 = DIRECTION ( 'NONE',  ( 1.000000000000000000, 0.000000000000000000, 0.000000000000000000 ) ) ;
#653 = CARTESIAN_POINT ( 'NONE',  ( 19.14134607987366721, 0.000000000000000000, 13.48432534211531397 ) ) ;
#654 = CARTESIAN_POINT ( 'NONE',  ( 12.30000000000000249, 70.00000000000000000, -6.000000000000000152E-06 ) ) ;
#655 = ORIENTED_EDGE ( 'NONE', *, *, #674, .T. ) ;
#656 = DIRECTION ( 'NONE',  ( 0.000000000000000000, 0.000000000000000000, -1.000000000000000000 ) ) ;
#657 = ADVANCED_FACE ( 'NONE', ( #503 ), #872, .F. ) ;
#658 = CARTESIAN_POINT ( 'NONE',  ( -8.099999999999999645, 70.00000000000000000, 5.200000000000000178 ) ) ;
#659 = PLANE ( 'NONE',  #155 ) ;
#660 = CARTESIAN_POINT ( 'NONE',  ( 13.55736206016057466, 68.34320465898694863, -0.000000000000000000 ) ) ;
#661 = ORIENTED_EDGE ( 'NONE', *, *, #192, .F. ) ;
#662 = VECTOR ( 'NONE', #404, 1000.000000000000000 ) ;
#663 = CARTESIAN_POINT ( 'NONE',  ( -18.29993048876421113, -0.000000000000000000, 11.77491600511370429 ) ) ;
#664 = ADVANCED_FACE ( 'NONE', ( #231 ), #595, .F. ) ;
#665 = CARTESIAN_POINT ( 'NONE',  ( -20.00000000000000000, 8.000000000000000000, 12.00000000000000000 ) ) ;
#666 = CARTESIAN_POINT ( 'NONE',  ( 13.55741526174995926, 71.65666690099503455, 0.000000000000000000 ) ) ;
#667 = DIRECTION ( 'NONE',  ( -1.000000000000000000, -0.000000000000000000, -0.000000000000000000 ) ) ;
#668 = ORIENTED_EDGE ( 'NONE', *, *, #280, .F. ) ;
#669 = CYLINDRICAL_SURFACE ( 'NONE', #927, 1.700000000000000178 ) ;
#670 = COORDINATED_UNIVERSAL_TIME_OFFSET ( 5, 0, .BEHIND. ) ;
#671 = CARTESIAN_POINT ( 'NONE',  ( 14.00000000000000000, 70.00000000000000000, -1.200000000000000030E-05 ) ) ;
#672 = ORIENTED_EDGE ( 'NONE', *, *, #743, .F. ) ;
#673 = CARTESIAN_POINT ( 'NONE',  ( 20.22525195654657182, 0.000000000000000000, 13.69999999999999751 ) ) ;
#674 = EDGE_CURVE ( 'NONE', #376, #476, #914, .T. ) ;
#675 = ORIENTED_EDGE ( 'NONE', *, *, #815, .F. ) ;
#676 = ADVANCED_BREP_SHAPE_REPRESENTATION ( 'V2_02_bearing_tower', ( #789, #610 ), #740 ) ;
#677 = AXIS2_PLACEMENT_3D ( 'NONE', #185, #615, #108 ) ;
#678 = LINE ( 'NONE', #241, #530 ) ;
#679 = PERSON_AND_ORGANIZATION_ROLE ( 'creator' ) ;
#680 = ORIENTED_EDGE ( 'NONE', *, *, #487, .F. ) ;
#681 = AXIS2_PLACEMENT_3D ( 'NONE', #50, #269, #696 ) ;
#682 = CARTESIAN_POINT ( 'NONE',  ( 21.04287395702867514, 0.000000000000000000, 13.36119079527264830 ) ) ;
#683 = COORDINATED_UNIVERSAL_TIME_OFFSET ( 5, 0, .BEHIND. ) ;
#684 = VERTEX_POINT ( 'NONE', #22 ) ;
#685 = EDGE_CURVE ( 'NONE', #690, #919, #716, .T. ) ;
#686 = LINE ( 'NONE', #689, #762 ) ;
#687 = DATE_AND_TIME ( #181, #576 ) ;
#688 = VERTEX_POINT ( 'NONE', #734 ) ;
#689 = CARTESIAN_POINT ( 'NONE',  ( 12.30000000000000249, 70.00000000000000000, -1.200000000000000030E-05 ) ) ;
#690 = VERTEX_POINT ( 'NONE', #218 ) ;
#691 = PRODUCT_DEFINITION_FORMATION_WITH_SPECIFIED_SOURCE ( '�', '', #774, .NOT_KNOWN. ) ;
#692 = DIRECTION ( 'NONE',  ( 0.000000000000000000, -1.000000000000000000, 0.000000000000000000 ) ) ;
#693 = EDGE_CURVE ( 'NONE', #393, #690, #867, .T. ) ;
#694 = DIRECTION ( 'NONE',  ( -1.000000000000000000, 0.000000000000000000, 0.000000000000000000 ) ) ;
#695 = CARTESIAN_POINT ( 'NONE',  ( -14.44258473825003897, 71.65666690099503455, 0.000000000000000000 ) ) ;
#696 = DIRECTION ( 'NONE',  ( 1.000000000000000000, 0.000000000000000000, 0.000000000000000000 ) ) ;
#697 = ORIENTED_EDGE ( 'NONE', *, *, #916, .T. ) ;
#698 = LINE ( 'NONE', #837, #394 ) ;
#699 = LINE ( 'NONE', #912, #442 ) ;
#700 = AXIS2_PLACEMENT_3D ( 'NONE', #136, #625, #352 ) ;
#701 = FACE_OUTER_BOUND ( 'NONE', #244, .T. ) ;
#702 = B_SPLINE_CURVE_WITH_KNOTS ( 'NONE', 3,
 ( #761, #407, #49, #330, #621, #906, #121, #411, #910, #377, #215, #443, #572, #731, #857, #644, #90, #787 ),
 .UNSPECIFIED., .F., .F.,
 ( 4, 2, 2, 2, 2, 2, 2, 2, 4 ),
 ( 0.5000000000000000000, 0.5625000000000000000, 0.6250000000000000000, 0.6875000000000000000, 0.7500000000000000000, 0.8125000000000000000, 0.8750000000000000000, 0.9375000000000000000, 1.000000000000000000 ),
 .UNSPECIFIED. ) ;
#703 = CIRCLE ( 'NONE', #35, 1.700000000000000178 ) ;
#704 = CARTESIAN_POINT ( 'NONE',  ( -20.22508399488666697, 0.000000000000000000, 10.29993048876420936 ) ) ;
#705 = CARTESIAN_POINT ( 'NONE',  ( 22.00000000000000000, 7.999999999999996447, 8.000000000000000000 ) ) ;
#706 = VERTEX_POINT ( 'NONE', #224 ) ;
#707 = DIRECTION ( 'NONE',  ( 1.000000000000000000, 0.000000000000000000, 0.000000000000000000 ) ) ;
#708 = EDGE_CURVE ( 'NONE', #824, #272, #703, .T. ) ;
#709 = EDGE_LOOP ( 'NONE', ( #584, #628, #900, #926 ) ) ;
#710 = DIRECTION ( 'NONE',  ( -0.000000000000000000, -0.000000000000000000, 1.000000000000000000 ) ) ;
#711 = EDGE_LOOP ( 'NONE', ( #517, #405, #760, #17 ) ) ;
#712 = DIRECTION ( 'NONE',  ( -0.000000000000000000, 0.000000000000000000, 1.000000000000000000 ) ) ;
#713 = FACE_OUTER_BOUND ( 'NONE', #608, .T. ) ;
#714 = ADVANCED_FACE ( 'NONE', ( #509 ), #235, .F. ) ;
#715 = FACE_BOUND ( 'NONE', #539, .T. ) ;
#716 = LINE ( 'NONE', #446, #890 ) ;
#717 = ORIENTED_EDGE ( 'NONE', *, *, #693, .F. ) ;
#718 = DIRECTION ( 'NONE',  ( -0.000000000000000000, -0.000000000000000000, 1.000000000000000000 ) ) ;
#719 = CARTESIAN_POINT ( 'NONE',  ( 12.30000000000000249, 70.00000000000000000, -6.000000000000000152E-06 ) ) ;
#720 = CARTESIAN_POINT ( 'NONE',  ( 14.44263793983941824, 71.65679534101303716, -0.000000000000000000 ) ) ;
#721 = CIRCLE ( 'NONE', #596, 1.699999999999998401 ) ;
#722 = FACE_OUTER_BOUND ( 'NONE', #323, .T. ) ;
#723 = EDGE_CURVE ( 'NONE', #89, #896, #515, .T. ) ;
#724 = ORIENTED_EDGE ( 'NONE', *, *, #482, .F. ) ;
#725 = CARTESIAN_POINT ( 'NONE',  ( -18.51547649045614108, -0.000000000000000000, 11.14146106821000437 ) ) ;
#726 = CARTESIAN_POINT ( 'NONE',  ( -21.48452350954359247, -0.000000000000000000, 12.85853893179063512 ) ) ;
#727 = DIRECTION ( 'NONE',  ( 0.000000000000000000, -0.000000000000000000, 1.000000000000000000 ) ) ;
#728 = CARTESIAN_POINT ( 'NONE',  ( 12.51547649045534705, 69.14146106820930981, -0.000000000000000000 ) ) ;
#729 = ORIENTED_EDGE ( 'NONE', *, *, #316, .T. ) ;
#730 = PRODUCT_DEFINITION ( '�', '', #691, #276 ) ;
#731 = CARTESIAN_POINT ( 'NONE',  ( -12.63871090099948091, 68.95702773923107998, -0.000000000000000000 ) ) ;
#732 = CARTESIAN_POINT ( 'NONE',  ( -21.36128909900304862, -0.000000000000000000, 10.95702773923621010 ) ) ;
#733 = CARTESIAN_POINT ( 'NONE',  ( 15.70000000000000284, 70.22525195654509389, 0.000000000000000000 ) ) ;
#734 = CARTESIAN_POINT ( 'NONE',  ( 28.00000000000000000, 0.000000000000000000, 24.00000000000000000 ) ) ;
#735 = ORIENTED_EDGE ( 'NONE', *, *, #346, .T. ) ;
#736 = VECTOR ( 'NONE', #45, 1000.000000000000000 ) ;
#737 = CARTESIAN_POINT ( 'NONE',  ( 12.30000000000000249, 70.00000000000000000, 8.000000000000000000 ) ) ;
#738 = APPLICATION_PROTOCOL_DEFINITION ( 'international standard', 'config_control_design', 1994, #249 ) ;
#739 = DIRECTION ( 'NONE',  ( -0.000000000000000000, 1.000000000000000000, -0.000000000000000000 ) ) ;
#740 =( GEOMETRIC_REPRESENTATION_CONTEXT ( 3 ) GLOBAL_UNCERTAINTY_ASSIGNED_CONTEXT ( ( #344 ) ) GLOBAL_UNIT_ASSIGNED_CONTEXT ( ( #151, #314, #541 ) ) REPRESENTATION_CONTEXT ( 'NONE', 'WORKASPACE' ) );
#741 = ORIENTED_EDGE ( 'NONE', *, *, #400, .T. ) ;
#742 = CARTESIAN_POINT ( 'NONE',  ( 21.69993048876495223, 0.000000000000000000, 12.22508399488808628 ) ) ;
#743 = EDGE_CURVE ( 'NONE', #748, #381, #521, .T. ) ;
#744 = PERSON_AND_ORGANIZATION ( #839, #318 ) ;
#745 = ORIENTED_EDGE ( 'NONE', *, *, #384, .F. ) ;
#746 = DIRECTION ( 'NONE',  ( 0.000000000000000000, 0.000000000000000000, -1.000000000000000000 ) ) ;
#747 = EDGE_CURVE ( 'NONE', #919, #879, #212, .T. ) ;
#748 = VERTEX_POINT ( 'NONE', #158 ) ;
#749 = PLANE ( 'NONE',  #677 ) ;
#750 = PERSON_AND_ORGANIZATION_ROLE ( 'creator' ) ;
#751 = EDGE_LOOP ( 'NONE', ( #868, #176, #724, #913 ) ) ;
#752 = ADVANCED_FACE ( 'NONE', ( #722 ), #287, .F. ) ;
#753 = B_SPLINE_CURVE_WITH_KNOTS ( 'NONE', 3,
 ( #847, #704, #353, #63, #519, #732, #297, #508, #221, #372, #438, #726, #598, #74, #81, #449, #228, #512 ),
 .UNSPECIFIED., .F., .F.,
 ( 4, 2, 2, 2, 2, 2, 2, 2, 4 ),
 ( 0.5000000000000000000, 0.5625000000000000000, 0.6250000000000000000, 0.6875000000000000000, 0.7500000000000000000, 0.8125000000000000000, 0.8750000000000000000, 0.9375000000000000000, 1.000000000000000000 ),
 .UNSPECIFIED. ) ;
#754 = LINE ( 'NONE', #467, #130 ) ;
#755 = DATE_AND_TIME ( #39, #343 ) ;
#756 = VERTEX_POINT ( 'NONE', #369 ) ;
#757 = CC_DESIGN_PERSON_AND_ORGANIZATION_ASSIGNMENT ( #607, #750, ( #691 ) ) ;
#758 = LINE ( 'NONE', #114, #662 ) ;
#759 = CIRCLE ( 'NONE', #70, 1.700000000000000178 ) ;
#760 = ORIENTED_EDGE ( 'NONE', *, *, #693, .T. ) ;
#761 = CARTESIAN_POINT ( 'NONE',  ( -15.69999999999999929, 70.00000000000000000, -6.000000000000000152E-06 ) ) ;
#762 = VECTOR ( 'NONE', #536, 1000.000000000000000 ) ;
#763 = CARTESIAN_POINT ( 'NONE',  ( 14.00000000000000000, 70.00000000000000000, -1.200000000000000030E-05 ) ) ;
#764 = ORIENTED_EDGE ( 'NONE', *, *, #91, .T. ) ;
#765 = CC_DESIGN_APPROVAL ( #325, ( #691 ) ) ;
#766 = CARTESIAN_POINT ( 'NONE',  ( -28.00000000000000000, 8.000000000000000000, 24.00000000000000000 ) ) ;
#767 = CC_DESIGN_DATE_AND_TIME_ASSIGNMENT ( #823, #545, ( #459 ) ) ;
#768 = FACE_OUTER_BOUND ( 'NONE', #805, .T. ) ;
#769 = CARTESIAN_POINT ( 'NONE',  ( -15.36128909900226169, 71.04297226076383254, -0.000000000000000000 ) ) ;
#770 = CARTESIAN_POINT ( 'NONE',  ( 14.85853893179036689, 68.51547649045612332, -0.000000000000000000 ) ) ;
#771 = AXIS2_PLACEMENT_3D ( 'NONE', #54, #694, #413 ) ;
#772 = DIRECTION ( 'NONE',  ( 0.000000000000000000, 0.000000000000000000, -1.000000000000000000 ) ) ;
#773 = DIRECTION ( 'NONE',  ( 0.000000000000000000, 1.000000000000000000, 0.000000000000000000 ) ) ;
#774 = PRODUCT ( 'V2_02_bearing_tower', 'V2_02_bearing_tower', '', ( #826 ) ) ;
#775 = ORIENTED_EDGE ( 'NONE', *, *, #747, .T. ) ;
#776 = AXIS2_PLACEMENT_3D ( 'NONE', #548, #460, #388 ) ;
#777 = DIRECTION ( 'NONE',  ( -0.000000000000000000, 1.000000000000000000, -0.000000000000000000 ) ) ;
#778 = DIRECTION ( 'NONE',  ( 0.000000000000000000, -1.000000000000000000, 0.000000000000000000 ) ) ;
#779 = ORIENTED_EDGE ( 'NONE', *, *, #593, .F. ) ;
#780 = EDGE_CURVE ( 'NONE', #43, #429, #537, .T. ) ;
#781 = CARTESIAN_POINT ( 'NONE',  ( -15.70000000000000284, 70.00000000000000000, 8.000000000000000000 ) ) ;
#782 = AXIS2_PLACEMENT_3D ( 'NONE', #58, #71, #632 ) ;
#783 = ORIENTED_EDGE ( 'NONE', *, *, #32, .F. ) ;
#784 = DIRECTION ( 'NONE',  ( 1.000000000000000000, 0.000000000000000000, 0.000000000000000000 ) ) ;
#785 = ORIENTED_EDGE ( 'NONE', *, *, #554, .T. ) ;
#786 = CC_DESIGN_PERSON_AND_ORGANIZATION_ASSIGNMENT ( #402, #172, ( #774 ) ) ;
#787 = CARTESIAN_POINT ( 'NONE',  ( -12.30000000000000071, 70.00000000000000000, -6.000000000000000152E-06 ) ) ;
#788 = ORIENTED_EDGE ( 'NONE', *, *, #780, .F. ) ;
#789 = MANIFOLD_SOLID_BREP ( 'Foot_M3_through', #28 ) ;
#790 = CARTESIAN_POINT ( 'NONE',  ( -20.00000000000000000, -6.000000000000000152E-06, 13.70000000000000107 ) ) ;
#791 = CARTESIAN_POINT ( 'NONE',  ( 22.00000000000000000, 0.000000000000000000, 0.000000000000000000 ) ) ;
#792 = VERTEX_POINT ( 'NONE', #126 ) ;
#793 = VECTOR ( 'NONE', #811, 1000.000000000000000 ) ;
#794 = DIRECTION ( 'NONE',  ( -0.000000000000000000, -0.000000000000000000, -1.000000000000000000 ) ) ;
#795 = DIRECTION ( 'NONE',  ( -1.000000000000000000, -0.000000000000000000, -0.000000000000000000 ) ) ;
#796 = ADVANCED_FACE ( 'NONE', ( #569 ), #329, .F. ) ;
#797 = CARTESIAN_POINT ( 'NONE',  ( 18.34333309900522480, 0.000000000000000000, 12.44258473825066780 ) ) ;
#798 = CARTESIAN_POINT ( 'NONE',  ( -20.00000000000000000, -1.200000000000000030E-05, 12.00000000000000000 ) ) ;
#799 = EDGE_LOOP ( 'NONE', ( #814, #311 ) ) ;
#800 = CARTESIAN_POINT ( 'NONE',  ( -14.00000000000000000, 70.00000000000000000, 8.000000000000000000 ) ) ;
#801 = FACE_BOUND ( 'NONE', #357, .T. ) ;
#802 = CIRCLE ( 'NONE', #558, 5.799999999999999822 ) ;
#803 = CARTESIAN_POINT ( 'NONE',  ( -22.00000000000000000, 84.00000000000000000, 8.000000000000000000 ) ) ;
#804 = DIRECTION ( 'NONE',  ( -1.000000000000000000, 0.000000000000000000, 0.000000000000000000 ) ) ;
#805 = EDGE_LOOP ( 'NONE', ( #561, #347, #597, #849 ) ) ;
#806 = CARTESIAN_POINT ( 'NONE',  ( -18.30006951123579384, 0.000000000000000000, 12.22508399488629394 ) ) ;
#807 = CARTESIAN_POINT ( 'NONE',  ( 28.00000000000000000, 0.000000000000000000, 0.000000000000000000 ) ) ;
#808 = CARTESIAN_POINT ( 'NONE',  ( 19.14146106820973614, -0.000000000000000000, 10.51547649045640043 ) ) ;
#809 = CARTESIAN_POINT ( 'NONE',  ( 13.14151426979811887, 68.51560493047468015, 0.000000000000000000 ) ) ;
#810 = VERTEX_POINT ( 'NONE', #559 ) ;
#811 = DIRECTION ( 'NONE',  ( 0.000000000000000000, 1.000000000000000000, 0.000000000000000000 ) ) ;
#812 = CARTESIAN_POINT ( 'NONE',  ( 12.63871090099773831, 71.04297226076383254, -0.000000000000000000 ) ) ;
#813 = DIRECTION ( 'NONE',  ( 1.000000000000000000, 0.000000000000000000, 0.000000000000000000 ) ) ;
#814 = ORIENTED_EDGE ( 'NONE', *, *, #708, .T. ) ;
#815 = EDGE_CURVE ( 'NONE', #300, #107, #64, .T. ) ;
#816 = CARTESIAN_POINT ( 'NONE',  ( 21.48439506952681555, 0.000000000000000000, 12.85848573019829111 ) ) ;
#817 = VECTOR ( 'NONE', #305, 1000.000000000000000 ) ;
#818 = ORIENTED_EDGE ( 'NONE', *, *, #230, .F. ) ;
#819 = CARTESIAN_POINT ( 'NONE',  ( 20.44258473825274791, -0.000000000000000000, 13.65666690099345892 ) ) ;
#820 = COORDINATED_UNIVERSAL_TIME_OFFSET ( 5, 0, .BEHIND. ) ;
#821 = ORIENTED_EDGE ( 'NONE', *, *, #412, .F. ) ;
#822 = CARTESIAN_POINT ( 'NONE',  ( -22.00000000000000000, 84.00000000000000000, 8.000000000000000000 ) ) ;
#823 = DATE_AND_TIME ( #889, #61 ) ;
#824 = VERTEX_POINT ( 'NONE', #491 ) ;
#825 = DIRECTION ( 'NONE',  ( -0.000000000000000000, -1.000000000000000000, -0.000000000000000000 ) ) ;
#826 = MECHANICAL_CONTEXT ( 'NONE', #249, 'mechanical' ) ;
#827 = AXIS2_PLACEMENT_3D ( 'NONE', #766, #846, #198 ) ;
#828 = EDGE_CURVE ( 'NONE', #756, #824, #196, .T. ) ;
#829 = EDGE_LOOP ( 'NONE', ( #924, #785 ) ) ;
#830 = VECTOR ( 'NONE', #862, 1000.000000000000000 ) ;
#831 = FACE_OUTER_BOUND ( 'NONE', #5, .T. ) ;
#832 = DIRECTION ( 'NONE',  ( 0.000000000000000000, 0.000000000000000000, 1.000000000000000000 ) ) ;
#833 = ORIENTED_EDGE ( 'NONE', *, *, #564, .T. ) ;
#834 = CARTESIAN_POINT ( 'NONE',  ( -13.14151426979812065, 71.48439506952533407, 0.000000000000000000 ) ) ;
#835 = VECTOR ( 'NONE', #885, 1000.000000000000000 ) ;
#836 = EDGE_CURVE ( 'NONE', #476, #376, #802, .T. ) ;
#837 = CARTESIAN_POINT ( 'NONE',  ( -28.00000000000000000, 8.000000000000000000, 0.000000000000000000 ) ) ;
#838 = DIRECTION ( 'NONE',  ( -0.000000000000000000, -0.000000000000000000, -1.000000000000000000 ) ) ;
#839 = PERSON ( '未', '未', '未', ('未'), ('未'), ('未') ) ;
#840 = VECTOR ( 'NONE', #710, 1000.000000000000000 ) ;
#841 = CARTESIAN_POINT ( 'NONE',  ( -12.34333309900690878, 70.44258473825124156, -0.000000000000000000 ) ) ;
#842 = EDGE_CURVE ( 'NONE', #810, #756, #507, .T. ) ;
#843 = DIRECTION ( 'NONE',  ( -0.000000000000000000, -1.000000000000000000, -0.000000000000000000 ) ) ;
#844 = CARTESIAN_POINT ( 'NONE',  ( -12.30000000000000071, 70.00000000000000000, 8.000000000000000000 ) ) ;
#845 = ORIENTED_EDGE ( 'NONE', *, *, #91, .F. ) ;
#846 = DIRECTION ( 'NONE',  ( 0.000000000000000000, -1.000000000000000000, 0.000000000000000000 ) ) ;
#847 = CARTESIAN_POINT ( 'NONE',  ( -20.00000000000000000, -6.000000000000000152E-06, 10.30000000000000071 ) ) ;
#848 = PLANE ( 'NONE',  #771 ) ;
#849 = ORIENTED_EDGE ( 'NONE', *, *, #192, .T. ) ;
#850 = DIRECTION ( 'NONE',  ( 0.000000000000000000, 0.000000000000000000, -1.000000000000000000 ) ) ;
#851 = PRODUCT_DEFINITION_SHAPE ( 'NONE', 'NONE',  #730 ) ;
#852 = ORIENTED_EDGE ( 'NONE', *, *, #828, .F. ) ;
#853 = CIRCLE ( 'NONE', #453, 8.099999999999999645 ) ;
#854 = DIRECTION ( 'NONE',  ( -0.000000000000000000, -0.000000000000000000, -1.000000000000000000 ) ) ;
#855 = DIRECTION ( 'NONE',  ( -1.000000000000000000, 0.000000000000000000, 0.000000000000000000 ) ) ;
#856 = VERTEX_POINT ( 'NONE', #790 ) ;
#857 = CARTESIAN_POINT ( 'NONE',  ( -12.51567465788468958, 69.14134607987428183, 0.000000000000000000 ) ) ;
#858 = APPROVAL_PERSON_ORGANIZATION ( #461, #60, #30 ) ;
#859 = EDGE_LOOP ( 'NONE', ( #315, #31 ) ) ;
#860 = APPROVAL_PERSON_ORGANIZATION ( #243, #609, #538 ) ;
#861 = CARTESIAN_POINT ( 'NONE',  ( 19.55753025008501567, -0.000000000000000000, 13.65686506842306436 ) ) ;
#862 = DIRECTION ( 'NONE',  ( -0.000000000000000000, -0.000000000000000000, 1.000000000000000000 ) ) ;
#863 = ORIENTED_EDGE ( 'NONE', *, *, #46, .F. ) ;
#864 = CARTESIAN_POINT ( 'NONE',  ( 5.799999999999999822, 70.00000000000000000, 5.200000000000000178 ) ) ;
#865 = DIRECTION ( 'NONE',  ( 0.000000000000000000, 0.000000000000000000, -1.000000000000000000 ) ) ;
#866 = CARTESIAN_POINT ( 'NONE',  ( 12.34320465898919394, 70.44263793985065547, -0.000000000000000000 ) ) ;
#867 = LINE ( 'NONE', #791, #817 ) ;
#868 = ORIENTED_EDGE ( 'NONE', *, *, #418, .F. ) ;
#869 = CARTESIAN_POINT ( 'NONE',  ( -18.51560493047243128, 0.000000000000000000, 12.85848573019289454 ) ) ;
#870 = DIRECTION ( 'NONE',  ( 0.000000000000000000, 0.000000000000000000, -1.000000000000000000 ) ) ;
#871 = CARTESIAN_POINT ( 'NONE',  ( 20.00000000000000000, -6.000000000000000152E-06, 13.70000000000000107 ) ) ;
#872 = CYLINDRICAL_SURFACE ( 'NONE', #283, 1.700000000000000178 ) ;
#873 = VERTEX_POINT ( 'NONE', #373 ) ;
#874 = CIRCLE ( 'NONE', #700, 1.699999999999998401 ) ;
#875 = CARTESIAN_POINT ( 'NONE',  ( -22.00000000000000000, 8.000000000000000000, 24.00000000000000000 ) ) ;
#876 = CARTESIAN_POINT ( 'NONE',  ( -22.00000000000000000, 0.000000000000000000, 8.000000000000000000 ) ) ;
#877 = CARTESIAN_POINT ( 'NONE',  ( 15.04297226075843419, 71.36128909900689621, -0.000000000000000000 ) ) ;
#878 = CARTESIAN_POINT ( 'NONE',  ( 12.63880920472417557, 68.95712604297266068, 0.000000000000000000 ) ) ;
#879 = VERTEX_POINT ( 'NONE', #223 ) ;
#880 = LINE ( 'NONE', #233, #104 ) ;
#881 = LINE ( 'NONE', #513, #483 ) ;
#882 = CARTESIAN_POINT ( 'NONE',  ( -28.00000000000000000, 8.000000000000000000, 0.000000000000000000 ) ) ;
#883 = EDGE_CURVE ( 'NONE', #266, #89, #881, .T. ) ;
#884 = VERTEX_POINT ( 'NONE', #803 ) ;
#885 = DIRECTION ( 'NONE',  ( -1.000000000000000000, -0.000000000000000000, -0.000000000000000000 ) ) ;
#886 = EDGE_LOOP ( 'NONE', ( #568, #213, #268, #55 ) ) ;
#887 = ADVANCED_FACE ( 'NONE', ( #14 ), #234, .F. ) ;
#888 = CARTESIAN_POINT ( 'NONE',  ( 20.22508399488666697, -0.000000000000000000, 10.30006951123579206 ) ) ;
#889 = CALENDAR_DATE ( 2026, 18, 9 ) ;
#890 = VECTOR ( 'NONE', #667, 1000.000000000000000 ) ;
#891 = ORIENTED_EDGE ( 'NONE', *, *, #554, .F. ) ;
#892 = LINE ( 'NONE', #392, #359 ) ;
#893 = DATE_TIME_ROLE ( 'creation_date' ) ;
#894 = ORIENTED_EDGE ( 'NONE', *, *, #747, .F. ) ;
#895 = CARTESIAN_POINT ( 'NONE',  ( -28.00000000000000000, 8.000000000000000000, 24.00000000000000000 ) ) ;
#896 = VERTEX_POINT ( 'NONE', #434 ) ;
#897 = CARTESIAN_POINT ( 'NONE',  ( -22.00000000000000000, 84.00000000000000000, 8.000000000000000000 ) ) ;
#898 = SECURITY_CLASSIFICATION_LEVEL ( 'unclassified' ) ;
#899 = VECTOR ( 'NONE', #794, 1000.000000000000000 ) ;
#900 = ORIENTED_EDGE ( 'NONE', *, *, #321, .F. ) ;
#901 = AXIS2_PLACEMENT_3D ( 'NONE', #98, #435, #804 ) ;
#902 = CC_DESIGN_SECURITY_CLASSIFICATION ( #459, ( #691 ) ) ;
#903 = CARTESIAN_POINT ( 'NONE',  ( -28.00000000000000000, 0.000000000000000000, 24.00000000000000000 ) ) ;
#904 = CARTESIAN_POINT ( 'NONE',  ( -14.00000000000000000, 70.00000000000000000, -1.200000000000000030E-05 ) ) ;
#905 = ADVANCED_FACE ( 'NONE', ( #163, #715, #445 ), #659, .F. ) ;
#906 = CARTESIAN_POINT ( 'NONE',  ( -15.04297226075870242, 68.63871090099335959, -0.000000000000000000 ) ) ;
#907 = VECTOR ( 'NONE', #378, 1000.000000000000000 ) ;
#908 = CARTESIAN_POINT ( 'NONE',  ( -14.00000000000000000, 70.00000000000000000, 8.000000000000000000 ) ) ;
#909 = EDGE_CURVE ( 'NONE', #429, #43, #122, .T. ) ;
#910 = CARTESIAN_POINT ( 'NONE',  ( -14.22508399489131214, 68.30006951123358760, 0.000000000000000000 ) ) ;
#911 = CARTESIAN_POINT ( 'NONE',  ( 15.65686506842306791, 69.55753025008354484, -0.000000000000000000 ) ) ;
#912 = CARTESIAN_POINT ( 'NONE',  ( -28.00000000000000000, 8.000000000000000000, 24.00000000000000000 ) ) ;
#913 = ORIENTED_EDGE ( 'NONE', *, *, #585, .F. ) ;
#914 = CIRCLE ( 'NONE', #471, 5.799999999999999822 ) ;
#915 = FACE_BOUND ( 'NONE', #225, .T. ) ;
#916 = EDGE_CURVE ( 'NONE', #650, #266, #928, .T. ) ;
#917 = ORIENTED_EDGE ( 'NONE', *, *, #842, .F. ) ;
#918 = PLANE ( 'NONE',  #409 ) ;
#919 = VERTEX_POINT ( 'NONE', #582 ) ;
#920 = CARTESIAN_POINT ( 'NONE',  ( -15.48439506952757050, 70.85848573019067942, 0.000000000000000000 ) ) ;
#921 = ORIENTED_EDGE ( 'NONE', *, *, #346, .F. ) ;
#922 = CARTESIAN_POINT ( 'NONE',  ( 15.04287395703226338, 68.63880920473022229, 0.000000000000000000 ) ) ;
#923 = CARTESIAN_POINT ( 'NONE',  ( 15.69999999999999929, 70.00000000000000000, 8.000000000000000000 ) ) ;
#924 = ORIENTED_EDGE ( 'NONE', *, *, #482, .T. ) ;
#925 = CARTESIAN_POINT ( 'NONE',  ( -20.00000000000000000, -1.200000000000000030E-05, 13.70000000000000107 ) ) ;
#926 = ORIENTED_EDGE ( 'NONE', *, *, #641, .T. ) ;
#927 = AXIS2_PLACEMENT_3D ( 'NONE', #645, #166, #149 ) ;
#928 = LINE ( 'NONE', #3, #1 ) ;
#929 = CARTESIAN_POINT ( 'NONE',  ( 0.000000000000000000, 70.00000000000000000, -1.200000000000000030E-05 ) ) ;
#930 = ORIENTED_EDGE ( 'NONE', *, *, #909, .F. ) ;
#931 = CARTESIAN_POINT ( 'NONE',  ( -19.55736206015084022, -0.000000000000000000, 10.34320465898919217 ) ) ;
ENDSEC;
END-ISO-10303-21;
