ISO-10303-21;
HEADER;
FILE_DESCRIPTION (( 'STEP AP203' ),
    '1' );
FILE_NAME ('02_bearing_tower.STEP',
    '2026-09-17T16:01:19',
    ( '15300530775@163.com' ),
    ( '' ),
    'SwSTEP 2.0',
    'SolidWorks 2026',
    '' );
FILE_SCHEMA (( 'CONFIG_CONTROL_DESIGN' ));
ENDSEC;

DATA;
#1 = CARTESIAN_POINT ( 'NONE',  ( -14.44263793984699440, 58.34320465898993291, -0.000000000000000000 ) ) ;
#2 = CARTESIAN_POINT ( 'NONE',  ( 28.00000000000000000, 0.000000000000000000, 24.00000000000000000 ) ) ;
#3 = VERTEX_POINT ( 'NONE', #786 ) ;
#4 = DIRECTION ( 'NONE',  ( 0.000000000000000000, 0.000000000000000000, -1.000000000000000000 ) ) ;
#5 = DIRECTION ( 'NONE',  ( 0.000000000000000000, 0.000000000000000000, 1.000000000000000000 ) ) ;
#6 = CARTESIAN_POINT ( 'NONE',  ( -22.00000000000000000, 0.000000000000000000, 8.000000000000000000 ) ) ;
#7 = EDGE_CURVE ( 'NONE', #58, #450, #749, .T. ) ;
#8 = EDGE_LOOP ( 'NONE', ( #707, #910 ) ) ;
#9 = CC_DESIGN_PERSON_AND_ORGANIZATION_ASSIGNMENT ( #268, #609, ( #772 ) ) ;
#10 = DIRECTION ( 'NONE',  ( -1.000000000000000000, 0.000000000000000000, -0.000000000000000000 ) ) ;
#11 = CARTESIAN_POINT ( 'NONE',  ( -15.69999999999999929, 60.00000000000000000, -1.200000000000000030E-05 ) ) ;
#12 = CARTESIAN_POINT ( 'NONE',  ( -12.30000000000000071, 60.00000000000000000, -1.200000000000000030E-05 ) ) ;
#13 = ORIENTED_EDGE ( 'NONE', *, *, #325, .T. ) ;
#14 = CARTESIAN_POINT ( 'NONE',  ( -20.00000000000000000, -6.000000000000000152E-06, 13.70000000000000107 ) ) ;
#15 = DIRECTION ( 'NONE',  ( -1.000000000000000000, 0.000000000000000000, 0.000000000000000000 ) ) ;
#16 = VERTEX_POINT ( 'NONE', #163 ) ;
#17 = AXIS2_PLACEMENT_3D ( 'NONE', #357, #858, #430 ) ;
#18 = LOCAL_TIME ( 12, 1, 19.00000000000000000, #253 ) ;
#19 = EDGE_CURVE ( 'NONE', #893, #720, #799, .T. ) ;
#20 = CARTESIAN_POINT ( 'NONE',  ( 15.69999999999999929, 60.00000000000000000, -1.200000000000000030E-05 ) ) ;
#21 = CARTESIAN_POINT ( 'NONE',  ( 0.000000000000000000, 0.000000000000000000, 0.000000000000000000 ) ) ;
#22 = LINE ( 'NONE', #113, #261 ) ;
#23 = ORIENTED_EDGE ( 'NONE', *, *, #376, .F. ) ;
#24 = CC_DESIGN_PERSON_AND_ORGANIZATION_ASSIGNMENT ( #322, #185, ( #292 ) ) ;
#25 = FACE_BOUND ( 'NONE', #397, .T. ) ;
#26 = LINE ( 'NONE', #463, #768 ) ;
#27 = VERTEX_POINT ( 'NONE', #575 ) ;
#28 = MANIFOLD_SOLID_BREP ( 'Foot_M3_through', #916 ) ;
#29 = CARTESIAN_POINT ( 'NONE',  ( 0.000000000000000000, 60.00000000000000000, 5.200000000000000178 ) ) ;
#30 = DIRECTION ( 'NONE',  ( 0.000000000000000000, 0.000000000000000000, 1.000000000000000000 ) ) ;
#31 = ORIENTED_EDGE ( 'NONE', *, *, #728, .T. ) ;
#32 = AXIS2_PLACEMENT_3D ( 'NONE', #183, #894, #111 ) ;
#33 = AXIS2_PLACEMENT_3D ( 'NONE', #660, #462, #518 ) ;
#34 = LINE ( 'NONE', #20, #829 ) ;
#35 = B_SPLINE_CURVE_WITH_KNOTS ( 'NONE', 3,
 ( #312, #818, #526, #281, #620, #774, #131, #778, #912, #56, #549, #629, #53, #559, #699, #494, #410, #267 ),
 .UNSPECIFIED., .F., .F.,
 ( 4, 2, 2, 2, 2, 2, 2, 2, 4 ),
 ( 0.5000000000000000000, 0.5625000000000000000, 0.6250000000000000000, 0.6875000000000000000, 0.7500000000000000000, 0.8125000000000000000, 0.8750000000000000000, 0.9375000000000000000, 1.000000000000000000 ),
 .UNSPECIFIED. ) ;
#36 = CARTESIAN_POINT ( 'NONE',  ( 14.00000000000000000, 60.00000000000000000, -1.200000000000000030E-05 ) ) ;
#37 = ORIENTED_EDGE ( 'NONE', *, *, #407, .T. ) ;
#38 = EDGE_CURVE ( 'NONE', #538, #436, #517, .T. ) ;
#39 = EDGE_CURVE ( 'NONE', #893, #800, #286, .T. ) ;
#40 = DIRECTION ( 'NONE',  ( 0.000000000000000000, 0.000000000000000000, -1.000000000000000000 ) ) ;
#41 = SECURITY_CLASSIFICATION_LEVEL ( 'unclassified' ) ;
#42 = DIRECTION ( 'NONE',  ( 1.000000000000000000, 0.000000000000000000, 0.000000000000000000 ) ) ;
#43 = EDGE_LOOP ( 'NONE', ( #606, #213, #623, #871 ) ) ;
#44 = DIRECTION ( 'NONE',  ( 0.000000000000000000, 0.000000000000000000, 1.000000000000000000 ) ) ;
#45 = CARTESIAN_POINT ( 'NONE',  ( 15.04287395703016017, 58.63880920472809777, 0.000000000000000000 ) ) ;
#46 = EDGE_LOOP ( 'NONE', ( #23, #245, #422, #299 ) ) ;
#47 = AXIS2_PLACEMENT_3D ( 'NONE', #135, #370, #848 ) ;
#48 = CARTESIAN_POINT ( 'NONE',  ( -21.65679534101080961, -0.000000000000000000, 11.55736206015121326 ) ) ;
#49 = APPROVAL_STATUS ( 'not_yet_approved' ) ;
#50 = B_SPLINE_CURVE_WITH_KNOTS ( 'NONE', 3,
 ( #14, #864, #854, #859, #215, #499, #146, #710, #82, #929, #641, #285, #504, #713, #71, #868, #223, #798 ),
 .UNSPECIFIED., .F., .F.,
 ( 4, 2, 2, 2, 2, 2, 2, 2, 4 ),
 ( 0.000000000000000000, 0.06250000000000000000, 0.1250000000000000000, 0.1875000000000000000, 0.2500000000000000000, 0.3125000000000000000, 0.3750000000000000000, 0.4375000000000000000, 0.5000000000000000000 ),
 .UNSPECIFIED. ) ;
#51 = CARTESIAN_POINT ( 'NONE',  ( 13.14151426980890314, 58.51560493047168876, 0.000000000000000000 ) ) ;
#52 = ORIENTED_EDGE ( 'NONE', *, *, #773, .T. ) ;
#53 = CARTESIAN_POINT ( 'NONE',  ( 18.63880920472916003, 0.000000000000000000, 13.04287395703121177 ) ) ;
#54 = CARTESIAN_POINT ( 'NONE',  ( -28.00000000000000000, 8.000000000000000000, 24.00000000000000000 ) ) ;
#55 = ORIENTED_EDGE ( 'NONE', *, *, #673, .T. ) ;
#56 = CARTESIAN_POINT ( 'NONE',  ( 18.29993048876495010, -0.000000000000000000, 12.22508399488808628 ) ) ;
#57 = LINE ( 'NONE', #482, #320 ) ;
#58 = VERTEX_POINT ( 'NONE', #451 ) ;
#59 = FACE_OUTER_BOUND ( 'NONE', #529, .T. ) ;
#60 = VECTOR ( 'NONE', #795, 1000.000000000000000 ) ;
#61 = CARTESIAN_POINT ( 'NONE',  ( -21.70006951123579242, -0.000000000000000000, 12.22508399488629038 ) ) ;
#62 = AXIS2_PLACEMENT_3D ( 'NONE', #424, #919, #836 ) ;
#63 = DIRECTION ( 'NONE',  ( -1.000000000000000000, -0.000000000000000000, -0.000000000000000000 ) ) ;
#64 = EDGE_LOOP ( 'NONE', ( #902, #216, #164, #13 ) ) ;
#65 = AXIS2_PLACEMENT_3D ( 'NONE', #779, #692, #845 ) ;
#66 = EDGE_CURVE ( 'NONE', #177, #199, #587, .T. ) ;
#67 = CYLINDRICAL_SURFACE ( 'NONE', #17, 5.799999999999999822 ) ;
#68 = CARTESIAN_POINT ( 'NONE',  ( -15.69999999999999929, 60.00000000000000000, -6.000000000000000152E-06 ) ) ;
#69 = ORIENTED_EDGE ( 'NONE', *, *, #923, .F. ) ;
#70 = EDGE_CURVE ( 'NONE', #107, #807, #200, .T. ) ;
#71 = CARTESIAN_POINT ( 'NONE',  ( -19.14151426980784976, 0.000000000000000000, 10.51560493047243305 ) ) ;
#72 = CARTESIAN_POINT ( 'NONE',  ( 0.000000000000000000, 60.00000000000000000, -1.200000000000000030E-05 ) ) ;
#73 = CARTESIAN_POINT ( 'NONE',  ( -13.77491600511550551, 61.69993048876346364, 0.000000000000000000 ) ) ;
#74 = ORIENTED_EDGE ( 'NONE', *, *, #178, .T. ) ;
#75 = EDGE_CURVE ( 'NONE', #711, #543, #184, .T. ) ;
#76 = CARTESIAN_POINT ( 'NONE',  ( -12.30000000000000071, 60.00000000000000000, -6.000000000000000152E-06 ) ) ;
#77 = CARTESIAN_POINT ( 'NONE',  ( 15.36119079527072806, 61.04287395703093466, 0.000000000000000000 ) ) ;
#78 = CARTESIAN_POINT ( 'NONE',  ( -12.30000000000000071, 60.00000000000000000, -6.000000000000000152E-06 ) ) ;
#79 = ORIENTED_EDGE ( 'NONE', *, *, #911, .T. ) ;
#80 = AXIS2_PLACEMENT_3D ( 'NONE', #737, #315, #599 ) ;
#81 = CC_DESIGN_APPROVAL ( #716, ( #790 ) ) ;
#82 = CARTESIAN_POINT ( 'NONE',  ( -18.30006951123579384, 0.000000000000000000, 12.22508399488629394 ) ) ;
#83 = CARTESIAN_POINT ( 'NONE',  ( 13.77491600511551084, 61.70006951123652783, -0.000000000000000000 ) ) ;
#84 = ORIENTED_EDGE ( 'NONE', *, *, #758, .T. ) ;
#85 = CARTESIAN_POINT ( 'NONE',  ( -15.48452350954359424, 59.14146106820972904, -0.000000000000000000 ) ) ;
#86 = CARTESIAN_POINT ( 'NONE',  ( 13.55741526174742262, 61.65666690099398295, 0.000000000000000000 ) ) ;
#87 = ORIENTED_EDGE ( 'NONE', *, *, #744, .F. ) ;
#88 = FACE_OUTER_BOUND ( 'NONE', #555, .T. ) ;
#89 = ADVANCED_FACE ( 'NONE', ( #718 ), #808, .F. ) ;
#90 = DIRECTION ( 'NONE',  ( 0.000000000000000000, 0.000000000000000000, -1.000000000000000000 ) ) ;
#91 = ORIENTED_EDGE ( 'NONE', *, *, #758, .F. ) ;
#92 = CIRCLE ( 'NONE', #648, 1.700000000000000178 ) ;
#93 = CIRCLE ( 'NONE', #618, 8.099999999999999645 ) ;
#94 = CARTESIAN_POINT ( 'NONE',  ( 0.000000000000000000, 0.000000000000000000, 0.000000000000000000 ) ) ;
#95 = CARTESIAN_POINT ( 'NONE',  ( -15.69999999999999929, 60.00000000000000000, -6.000000000000000152E-06 ) ) ;
#96 = DIRECTION ( 'NONE',  ( -0.000000000000000000, -0.000000000000000000, -1.000000000000000000 ) ) ;
#97 = ORIENTED_EDGE ( 'NONE', *, *, #607, .T. ) ;
#98 = EDGE_CURVE ( 'NONE', #834, #507, #168, .T. ) ;
#99 = CARTESIAN_POINT ( 'NONE',  ( -28.00000000000000000, 8.000000000000000000, 24.00000000000000000 ) ) ;
#100 = CARTESIAN_POINT ( 'NONE',  ( 22.00000000000000000, 74.00000000000000000, 8.000000000000000000 ) ) ;
#101 = DIRECTION ( 'NONE',  ( 0.000000000000000000, 0.000000000000000000, -1.000000000000000000 ) ) ;
#102 = ORIENTED_EDGE ( 'NONE', *, *, #831, .F. ) ;
#103 = LINE ( 'NONE', #327, #889 ) ;
#104 = EDGE_CURVE ( 'NONE', #627, #167, #294, .T. ) ;
#105 = PERSON_AND_ORGANIZATION ( #903, #753 ) ;
#106 = DIRECTION ( 'NONE',  ( -1.000000000000000000, 0.000000000000000000, 0.000000000000000000 ) ) ;
#107 = VERTEX_POINT ( 'NONE', #369 ) ;
#108 = VECTOR ( 'NONE', #282, 1000.000000000000000 ) ;
#109 = ADVANCED_FACE ( 'NONE', ( #220 ), #714, .F. ) ;
#110 = APPROVAL_PERSON_ORGANIZATION ( #485, #196, #767 ) ;
#111 = DIRECTION ( 'NONE',  ( 0.000000000000000000, 0.000000000000000000, 1.000000000000000000 ) ) ;
#112 = DATE_AND_TIME ( #621, #128 ) ;
#113 = CARTESIAN_POINT ( 'NONE',  ( 28.00000000000000000, 8.000000000000000000, 24.00000000000000000 ) ) ;
#114 = ORIENTED_EDGE ( 'NONE', *, *, #139, .T. ) ;
#115 = CARTESIAN_POINT ( 'NONE',  ( -21.36128909900304862, -0.000000000000000000, 10.95702773923621010 ) ) ;
#116 = APPROVAL_ROLE ( '' ) ;
#117 = DIRECTION ( 'NONE',  ( 0.000000000000000000, -1.000000000000000000, 0.000000000000000000 ) ) ;
#118 = ORIENTED_EDGE ( 'NONE', *, *, #152, .F. ) ;
#119 = EDGE_CURVE ( 'NONE', #371, #418, #581, .T. ) ;
#120 = CARTESIAN_POINT ( 'NONE',  ( -28.00000000000000000, 0.000000000000000000, 24.00000000000000000 ) ) ;
#121 = COORDINATED_UNIVERSAL_TIME_OFFSET ( 5, 0, .BEHIND. ) ;
#122 = CARTESIAN_POINT ( 'NONE',  ( 14.22508399488412145, 58.29993048876345085, -0.000000000000000000 ) ) ;
#123 = ORIENTED_EDGE ( 'NONE', *, *, #415, .T. ) ;
#124 = EDGE_CURVE ( 'NONE', #876, #588, #654, .T. ) ;
#125 = AXIS2_PLACEMENT_3D ( 'NONE', #785, #653, #794 ) ;
#126 = DIRECTION ( 'NONE',  ( 0.000000000000000000, -1.000000000000000000, 0.000000000000000000 ) ) ;
#127 = APPLICATION_CONTEXT ( 'configuration controlled 3d designs of mechanical parts and assemblies' ) ;
#128 = LOCAL_TIME ( 12, 1, 19.00000000000000000, #763 ) ;
#129 = PLANE ( 'NONE',  #474 ) ;
#130 = ORIENTED_EDGE ( 'NONE', *, *, #300, .F. ) ;
#131 = CARTESIAN_POINT ( 'NONE',  ( 18.51560493047318801, 0.000000000000000000, 11.14151426980208015 ) ) ;
#132 = ADVANCED_FACE ( 'NONE', ( #875, #232 ), #825, .F. ) ;
#133 = DIRECTION ( 'NONE',  ( 0.000000000000000000, -0.000000000000000000, -1.000000000000000000 ) ) ;
#134 = ORIENTED_EDGE ( 'NONE', *, *, #104, .T. ) ;
#135 = CARTESIAN_POINT ( 'NONE',  ( 0.000000000000000000, 0.000000000000000000, 8.000000000000000000 ) ) ;
#136 = CARTESIAN_POINT ( 'NONE',  ( -21.04287395703121177, 0.000000000000000000, 10.63880920472952596 ) ) ;
#137 = CARTESIAN_POINT ( 'NONE',  ( 12.30000000000000249, 60.00000000000000000, -6.000000000000000152E-06 ) ) ;
#138 = ORIENTED_EDGE ( 'NONE', *, *, #535, .F. ) ;
#139 = EDGE_CURVE ( 'NONE', #807, #199, #103, .T. ) ;
#140 = LINE ( 'NONE', #209, #847 ) ;
#141 = AXIS2_PLACEMENT_3D ( 'NONE', #879, #731, #865 ) ;
#142 = CARTESIAN_POINT ( 'NONE',  ( 0.000000000000000000, 60.00000000000000000, 0.000000000000000000 ) ) ;
#143 = CC_DESIGN_DATE_AND_TIME_ASSIGNMENT ( #202, #683, ( #429 ) ) ;
#144 = VECTOR ( 'NONE', #96, 1000.000000000000000 ) ;
#145 = VECTOR ( 'NONE', #851, 1000.000000000000000 ) ;
#146 = CARTESIAN_POINT ( 'NONE',  ( -18.51560493047243128, 0.000000000000000000, 12.85848573019289454 ) ) ;
#147 = ORIENTED_EDGE ( 'NONE', *, *, #673, .F. ) ;
#148 = CARTESIAN_POINT ( 'NONE',  ( 0.000000000000000000, 60.00000000000000000, 5.200000000000000178 ) ) ;
#149 = CARTESIAN_POINT ( 'NONE',  ( -12.30000000000000426, 59.77438419509430645, -0.000000000000000000 ) ) ;
#150 = CARTESIAN_POINT ( 'NONE',  ( 12.30006951123579917, 60.22508399488667408, 0.000000000000000000 ) ) ;
#151 = ORIENTED_EDGE ( 'NONE', *, *, #925, .F. ) ;
#152 = EDGE_CURVE ( 'NONE', #107, #177, #34, .T. ) ;
#153 = FACE_OUTER_BOUND ( 'NONE', #655, .T. ) ;
#154 = CARTESIAN_POINT ( 'NONE',  ( 14.00000000000000000, 60.00000000000000000, 8.000000000000000000 ) ) ;
#155 = VERTEX_POINT ( 'NONE', #99 ) ;
#156 = FACE_BOUND ( 'NONE', #425, .T. ) ;
#157 = CARTESIAN_POINT ( 'NONE',  ( 22.00000000000000000, 0.000000000000000000, 8.000000000000000000 ) ) ;
#158 = DIRECTION ( 'NONE',  ( 1.000000000000000000, 0.000000000000000000, 0.000000000000000000 ) ) ;
#159 = CIRCLE ( 'NONE', #349, 1.700000000000000178 ) ;
#160 = ORIENTED_EDGE ( 'NONE', *, *, #210, .F. ) ;
#161 = LOCAL_TIME ( 12, 1, 19.00000000000000000, #895 ) ;
#162 = CARTESIAN_POINT ( 'NONE',  ( 28.00000000000000000, 8.000000000000000000, 24.00000000000000000 ) ) ;
#163 = CARTESIAN_POINT ( 'NONE',  ( -8.099999999999999645, 60.00000000000000000, 0.000000000000000000 ) ) ;
#164 = ORIENTED_EDGE ( 'NONE', *, *, #38, .T. ) ;
#165 = CARTESIAN_POINT ( 'NONE',  ( 12.63871090099669203, 61.04297226076425176, -0.000000000000000000 ) ) ;
#166 =( LENGTH_UNIT ( ) NAMED_UNIT ( * ) SI_UNIT ( .MILLI., .METRE. ) );
#167 = VERTEX_POINT ( 'NONE', #751 ) ;
#168 = CIRCLE ( 'NONE', #395, 5.799999999999999822 ) ;
#169 = CARTESIAN_POINT ( 'NONE',  ( 20.44258473825274791, -0.000000000000000000, 13.65666690099345892 ) ) ;
#170 = VECTOR ( 'NONE', #373, 1000.000000000000000 ) ;
#171 = CARTESIAN_POINT ( 'NONE',  ( 28.00000000000000000, 0.000000000000000000, 24.00000000000000000 ) ) ;
#172 = ORIENTED_EDGE ( 'NONE', *, *, #899, .T. ) ;
#173 = VECTOR ( 'NONE', #90, 1000.000000000000000 ) ;
#174 = EDGE_CURVE ( 'NONE', #3, #27, #321, .T. ) ;
#175 = DIRECTION ( 'NONE',  ( -1.000000000000000000, 0.000000000000000000, 0.000000000000000000 ) ) ;
#176 = DIRECTION ( 'NONE',  ( -0.000000000000000000, 1.000000000000000000, -0.000000000000000000 ) ) ;
#177 = VERTEX_POINT ( 'NONE', #461 ) ;
#178 = EDGE_CURVE ( 'NONE', #507, #834, #399, .T. ) ;
#179 = CARTESIAN_POINT ( 'NONE',  ( 21.48439506952681555, 0.000000000000000000, 12.85848573019829111 ) ) ;
#180 = APPROVAL_STATUS ( 'not_yet_approved' ) ;
#181 = DIRECTION ( 'NONE',  ( -0.000000000000000000, 1.000000000000000000, -0.000000000000000000 ) ) ;
#182 = ORIENTED_EDGE ( 'NONE', *, *, #724, .T. ) ;
#183 = CARTESIAN_POINT ( 'NONE',  ( 20.00000000000000000, -1.200000000000000030E-05, 12.00000000000000000 ) ) ;
#184 = CIRCLE ( 'NONE', #455, 5.799999999999999822 ) ;
#185 = PERSON_AND_ORGANIZATION_ROLE ( 'design_owner' ) ;
#186 = LINE ( 'NONE', #323, #173 ) ;
#187 = ORIENTED_EDGE ( 'NONE', *, *, #7, .T. ) ;
#188 = APPROVAL_PERSON_ORGANIZATION ( #822, #716, #116 ) ;
#189 = FACE_BOUND ( 'NONE', #479, .T. ) ;
#190 = APPROVAL_ROLE ( '' ) ;
#191 = CARTESIAN_POINT ( 'NONE',  ( -28.00000000000000000, 8.000000000000000000, 24.00000000000000000 ) ) ;
#192 = ORIENTED_EDGE ( 'NONE', *, *, #730, .F. ) ;
#193 = ADVANCED_FACE ( 'NONE', ( #522 ), #891, .F. ) ;
#194 = EDGE_CURVE ( 'NONE', #680, #884, #469, .T. ) ;
#195 = FACE_OUTER_BOUND ( 'NONE', #855, .T. ) ;
#196 = APPROVAL ( #541, '未' ) ;
#197 = PERSON_AND_ORGANIZATION_ROLE ( 'classification_officer' ) ;
#198 = CARTESIAN_POINT ( 'NONE',  ( 12.34333309900522657, 59.55741526174895739, -0.000000000000000000 ) ) ;
#199 = VERTEX_POINT ( 'NONE', #401 ) ;
#200 = B_SPLINE_CURVE_WITH_KNOTS ( 'NONE', 3,
 ( #869, #727, #229, #379, #77, #290, #224, #723, #792, #83, #86, #659, #304, #165, #591, #804, #150, #237 ),
 .UNSPECIFIED., .F., .F.,
 ( 4, 2, 2, 2, 2, 2, 2, 2, 4 ),
 ( 0.000000000000000000, 0.06250000000000016653, 0.1250000000000001388, 0.1875000000000001110, 0.2500000000000000555, 0.3125000000000000555, 0.3750000000000000555, 0.4375000000000000555, 0.5000000000000000000 ),
 .UNSPECIFIED. ) ;
#201 = CARTESIAN_POINT ( 'NONE',  ( -20.44246974991423471, -0.000000000000000000, 13.65686506842306436 ) ) ;
#202 = DATE_AND_TIME ( #550, #161 ) ;
#203 = CARTESIAN_POINT ( 'NONE',  ( -28.00000000000000000, 0.000000000000000000, 24.00000000000000000 ) ) ;
#204 = VERTEX_POINT ( 'NONE', #394 ) ;
#205 = VECTOR ( 'NONE', #796, 1000.000000000000000 ) ;
#206 = FACE_OUTER_BOUND ( 'NONE', #761, .T. ) ;
#207 = FACE_BOUND ( 'NONE', #810, .T. ) ;
#208 = ORIENTED_EDGE ( 'NONE', *, *, #702, .T. ) ;
#209 = CARTESIAN_POINT ( 'NONE',  ( -22.00000000000000000, 74.00000000000000000, 8.000000000000000000 ) ) ;
#210 = EDGE_CURVE ( 'NONE', #343, #58, #390, .T. ) ;
#211 = LINE ( 'NONE', #704, #878 ) ;
#212 = CARTESIAN_POINT ( 'NONE',  ( 15.48432534211531220, 59.14134607987219283, 0.000000000000000000 ) ) ;
#213 = ORIENTED_EDGE ( 'NONE', *, *, #789, .F. ) ;
#214 = CARTESIAN_POINT ( 'NONE',  ( 22.00000000000000000, 0.000000000000000000, 8.000000000000000000 ) ) ;
#215 = CARTESIAN_POINT ( 'NONE',  ( -18.95712604296878467, 0.000000000000000000, 13.36119079527010101 ) ) ;
#216 = ORIENTED_EDGE ( 'NONE', *, *, #802, .T. ) ;
#217 = CARTESIAN_POINT ( 'NONE',  ( -14.44258473825003364, 61.65666690099504166, 0.000000000000000000 ) ) ;
#218 = AXIS2_PLACEMENT_3D ( 'NONE', #741, #812, #158 ) ;
#219 = CARTESIAN_POINT ( 'NONE',  ( 22.00000000000000355, 8.000000000000000000, 24.00000000000000000 ) ) ;
#220 = FACE_OUTER_BOUND ( 'NONE', #881, .T. ) ;
#221 = ORIENTED_EDGE ( 'NONE', *, *, #194, .F. ) ;
#222 = EDGE_CURVE ( 'NONE', #347, #319, #530, .T. ) ;
#223 = CARTESIAN_POINT ( 'NONE',  ( -19.77491600511333658, -0.000000000000000000, 10.30006951123579206 ) ) ;
#224 = CARTESIAN_POINT ( 'NONE',  ( 14.85848573019109686, 61.48439506952831124, 0.000000000000000000 ) ) ;
#225 = CARTESIAN_POINT ( 'NONE',  ( -14.85853893179127461, 61.48452350954331536, -0.000000000000000000 ) ) ;
#226 = EDGE_LOOP ( 'NONE', ( #74, #725 ) ) ;
#227 = DESIGN_CONTEXT ( 'detailed design', #127, 'design' ) ;
#228 = CARTESIAN_POINT ( 'NONE',  ( -15.70006951123579775, 59.77491600511331882, 0.000000000000000000 ) ) ;
#229 = CARTESIAN_POINT ( 'NONE',  ( 15.65666690099477876, 60.44258473825102840, -0.000000000000000000 ) ) ;
#230 = ORIENTED_EDGE ( 'NONE', *, *, #246, .F. ) ;
#231 = PLANE ( 'NONE',  #458 ) ;
#232 = FACE_BOUND ( 'NONE', #906, .T. ) ;
#233 = APPLICATION_PROTOCOL_DEFINITION ( 'international standard', 'config_control_design', 1994, #368 ) ;
#234 = ORIENTED_EDGE ( 'NONE', *, *, #276, .T. ) ;
#235 = VECTOR ( 'NONE', #791, 1000.000000000000000 ) ;
#236 = EDGE_CURVE ( 'NONE', #347, #371, #628, .T. ) ;
#237 = CARTESIAN_POINT ( 'NONE',  ( 12.30000000000000249, 60.00000000000000000, -6.000000000000000152E-06 ) ) ;
#238 = ORIENTED_EDGE ( 'NONE', *, *, #728, .F. ) ;
#239 = CARTESIAN_POINT ( 'NONE',  ( 21.70006951123505345, -0.000000000000000000, 11.77491600511191550 ) ) ;
#240 = CARTESIAN_POINT ( 'NONE',  ( 22.00000000000000000, 74.00000000000000000, 8.000000000000000000 ) ) ;
#241 = ORIENTED_EDGE ( 'NONE', *, *, #236, .F. ) ;
#242 = ADVANCED_FACE ( 'NONE', ( #25, #189, #88, #243 ), #736, .T. ) ;
#243 = FACE_BOUND ( 'NONE', #279, .T. ) ;
#244 = CARTESIAN_POINT ( 'NONE',  ( -28.00000000000000000, 8.000000000000000000, 0.000000000000000000 ) ) ;
#245 = ORIENTED_EDGE ( 'NONE', *, *, #773, .F. ) ;
#246 = EDGE_CURVE ( 'NONE', #371, #347, #35, .T. ) ;
#247 = VECTOR ( 'NONE', #449, 1000.000000000000000 ) ;
#248 = CARTESIAN_POINT ( 'NONE',  ( -22.00000000000000000, 8.000000000000000000, 24.00000000000000000 ) ) ;
#249 = PERSON_AND_ORGANIZATION ( #903, #753 ) ;
#250 = CARTESIAN_POINT ( 'NONE',  ( 0.000000000000000000, 60.00000000000000000, 5.200000000000000178 ) ) ;
#251 = ORIENTED_EDGE ( 'NONE', *, *, #276, .F. ) ;
#252 = DIRECTION ( 'NONE',  ( -1.000000000000000000, 0.000000000000000000, -0.000000000000000000 ) ) ;
#253 = COORDINATED_UNIVERSAL_TIME_OFFSET ( 5, 0, .BEHIND. ) ;
#254 = FACE_OUTER_BOUND ( 'NONE', #734, .T. ) ;
#255 = ORIENTED_EDGE ( 'NONE', *, *, #407, .F. ) ;
#256 = EDGE_CURVE ( 'NONE', #680, #627, #211, .T. ) ;
#257 = CARTESIAN_POINT ( 'NONE',  ( 20.85853893178856922, -0.000000000000000000, 13.48452350954491585 ) ) ;
#258 = CALENDAR_DATE ( 2026, 17, 9 ) ;
#259 = DIRECTION ( 'NONE',  ( -0.000000000000000000, -0.000000000000000000, 1.000000000000000000 ) ) ;
#260 = ORIENTED_EDGE ( 'NONE', *, *, #806, .T. ) ;
#261 = VECTOR ( 'NONE', #610, 1000.000000000000000 ) ;
#262 = AXIS2_PLACEMENT_3D ( 'NONE', #495, #412, #687 ) ;
#263 = CC_DESIGN_SECURITY_CLASSIFICATION ( #429, ( #772 ) ) ;
#264 = CARTESIAN_POINT ( 'NONE',  ( -20.00000000000000000, -6.000000000000000152E-06, 13.70000000000000107 ) ) ;
#265 = CARTESIAN_POINT ( 'NONE',  ( -15.70000000000000284, 60.00000000000000000, 8.000000000000000000 ) ) ;
#266 = ORIENTED_EDGE ( 'NONE', *, *, #124, .T. ) ;
#267 = CARTESIAN_POINT ( 'NONE',  ( 20.00000000000000000, -6.000000000000000152E-06, 13.70000000000000107 ) ) ;
#268 = PERSON_AND_ORGANIZATION ( #903, #753 ) ;
#269 = CARTESIAN_POINT ( 'NONE',  ( 12.29993048876420936, 59.77491600511333303, 0.000000000000000000 ) ) ;
#270 = ORIENTED_EDGE ( 'NONE', *, *, #842, .F. ) ;
#271 = CARTESIAN_POINT ( 'NONE',  ( -20.85853893179025675, -0.000000000000000000, 10.51547649045640220 ) ) ;
#272 = B_SPLINE_CURVE_WITH_KNOTS ( 'NONE', 3,
 ( #341, #416, #405, #271, #136, #115, #423, #48, #330, #61, #918, #838, #625, #336, #553, #201, #766, #564 ),
 .UNSPECIFIED., .F., .F.,
 ( 4, 2, 2, 2, 2, 2, 2, 2, 4 ),
 ( 0.5000000000000000000, 0.5625000000000000000, 0.6250000000000000000, 0.6875000000000000000, 0.7500000000000000000, 0.8125000000000000000, 0.8750000000000000000, 0.9375000000000000000, 1.000000000000000000 ),
 .UNSPECIFIED. ) ;
#273 = PLANE ( 'NONE',  #62 ) ;
#274 = ORIENTED_EDGE ( 'NONE', *, *, #657, .F. ) ;
#275 = CARTESIAN_POINT ( 'NONE',  ( -12.63880920472672287, 61.04287395702841224, 0.000000000000000000 ) ) ;
#276 = EDGE_CURVE ( 'NONE', #578, #343, #272, .T. ) ;
#277 = DIRECTION ( 'NONE',  ( -1.000000000000000000, 0.000000000000000000, 0.000000000000000000 ) ) ;
#278 = CARTESIAN_POINT ( 'NONE',  ( 13.55736206014979217, 58.34320465898993291, -0.000000000000000000 ) ) ;
#279 = EDGE_LOOP ( 'NONE', ( #676, #496 ) ) ;
#280 = CARTESIAN_POINT ( 'NONE',  ( -15.65679534101080783, 60.44263793984767830, -0.000000000000000000 ) ) ;
#281 = CARTESIAN_POINT ( 'NONE',  ( 19.14146106820973614, -0.000000000000000000, 10.51547649045640043 ) ) ;
#282 = DIRECTION ( 'NONE',  ( -1.000000000000000000, -0.000000000000000000, -0.000000000000000000 ) ) ;
#283 = ORIENTED_EDGE ( 'NONE', *, *, #70, .F. ) ;
#284 = LINE ( 'NONE', #709, #303 ) ;
#285 = CARTESIAN_POINT ( 'NONE',  ( -18.51547649045614108, -0.000000000000000000, 11.14146106821000437 ) ) ;
#286 = LINE ( 'NONE', #448, #60 ) ;
#287 = B_SPLINE_CURVE_WITH_KNOTS ( 'NONE', 3,
 ( #68, #228, #447, #85, #302, #433, #717, #1, #803, #658, #516, #358, #289, #570, #443, #293, #149, #76 ),
 .UNSPECIFIED., .F., .F.,
 ( 4, 2, 2, 2, 2, 2, 2, 2, 4 ),
 ( 0.5000000000000000000, 0.5625000000000000000, 0.6250000000000000000, 0.6875000000000000000, 0.7500000000000000000, 0.8125000000000000000, 0.8750000000000000000, 0.9375000000000000000, 1.000000000000000000 ),
 .UNSPECIFIED. ) ;
#288 = AXIS2_PLACEMENT_3D ( 'NONE', #214, #759, #44 ) ;
#289 = CARTESIAN_POINT ( 'NONE',  ( -12.95712604297047577, 58.63880920472746539, 0.000000000000000000 ) ) ;
#290 = CARTESIAN_POINT ( 'NONE',  ( 15.04297226076352700, 61.36128909900328665, -0.000000000000000000 ) ) ;
#291 = ORIENTED_EDGE ( 'NONE', *, *, #326, .F. ) ;
#292 = PRODUCT ( '02_bearing_tower', '02_bearing_tower', '', ( #674 ) ) ;
#293 = CARTESIAN_POINT ( 'NONE',  ( -12.34313493157694097, 59.55753025008741020, -0.000000000000000000 ) ) ;
#294 = LINE ( 'NONE', #571, #917 ) ;
#295 = CARTESIAN_POINT ( 'NONE',  ( 28.00000000000000000, 0.000000000000000000, 0.000000000000000000 ) ) ;
#296 = ORIENTED_EDGE ( 'NONE', *, *, #635, .T. ) ;
#297 = DIRECTION ( 'NONE',  ( -0.000000000000000000, -0.000000000000000000, 1.000000000000000000 ) ) ;
#298 = CARTESIAN_POINT ( 'NONE',  ( 20.00000000000000000, -1.200000000000000030E-05, 12.00000000000000000 ) ) ;
#299 = ORIENTED_EDGE ( 'NONE', *, *, #398, .F. ) ;
#300 = EDGE_CURVE ( 'NONE', #319, #418, #159, .T. ) ;
#301 = ADVANCED_FACE ( 'NONE', ( #636 ), #924, .F. ) ;
#302 = CARTESIAN_POINT ( 'NONE',  ( -15.36119079527301601, 58.95712604297132486, 0.000000000000000000 ) ) ;
#303 = VECTOR ( 'NONE', #181, 1000.000000000000000 ) ;
#304 = CARTESIAN_POINT ( 'NONE',  ( 12.95712604296905113, 61.36119079526999798, 0.000000000000000000 ) ) ;
#305 = FACE_OUTER_BOUND ( 'NONE', #693, .T. ) ;
#306 = AXIS2_PLACEMENT_3D ( 'NONE', #171, #733, #30 ) ;
#307 = ORIENTED_EDGE ( 'NONE', *, *, #601, .F. ) ;
#308 = APPROVAL_PERSON_ORGANIZATION ( #839, #877, #190 ) ;
#309 = CARTESIAN_POINT ( 'NONE',  ( 20.00000000000000000, -1.200000000000000030E-05, 13.70000000000000107 ) ) ;
#310 = CARTESIAN_POINT ( 'NONE',  ( 20.00000000000000000, 8.000000000000000000, 10.30000000000000071 ) ) ;
#311 = ORIENTED_EDGE ( 'NONE', *, *, #565, .T. ) ;
#312 = CARTESIAN_POINT ( 'NONE',  ( 20.00000000000000000, -6.000000000000000152E-06, 10.30000000000000071 ) ) ;
#313 = ADVANCED_FACE ( 'NONE', ( #206 ), #850, .F. ) ;
#314 = CARTESIAN_POINT ( 'NONE',  ( 28.00000000000000000, 0.000000000000000000, 24.00000000000000000 ) ) ;
#315 = DIRECTION ( 'NONE',  ( 0.000000000000000000, 0.000000000000000000, -1.000000000000000000 ) ) ;
#316 = ORIENTED_EDGE ( 'NONE', *, *, #222, .F. ) ;
#317 = DIRECTION ( 'NONE',  ( -0.000000000000000000, -0.000000000000000000, 1.000000000000000000 ) ) ;
#318 = CYLINDRICAL_SURFACE ( 'NONE', #602, 1.700000000000000178 ) ;
#319 = VERTEX_POINT ( 'NONE', #696 ) ;
#320 = VECTOR ( 'NONE', #63, 1000.000000000000000 ) ;
#321 = LINE ( 'NONE', #608, #488 ) ;
#322 = PERSON_AND_ORGANIZATION ( #903, #753 ) ;
#323 = CARTESIAN_POINT ( 'NONE',  ( 8.099999999999999645, 60.00000000000000000, 5.200000000000000178 ) ) ;
#324 = ORIENTED_EDGE ( 'NONE', *, *, #899, .F. ) ;
#325 = EDGE_CURVE ( 'NONE', #436, #695, #615, .T. ) ;
#326 = EDGE_CURVE ( 'NONE', #409, #588, #427, .T. ) ;
#327 = CARTESIAN_POINT ( 'NONE',  ( 12.30000000000000249, 60.00000000000000000, -1.200000000000000030E-05 ) ) ;
#328 = CARTESIAN_POINT ( 'NONE',  ( -12.30000000000000071, 60.00000000000000000, 8.000000000000000000 ) ) ;
#329 = EDGE_LOOP ( 'NONE', ( #404, #464 ) ) ;
#330 = CARTESIAN_POINT ( 'NONE',  ( -21.69993048876420971, 0.000000000000000000, 11.77491600511370606 ) ) ;
#331 = VECTOR ( 'NONE', #642, 1000.000000000000000 ) ;
#332 = DATE_AND_TIME ( #258, #681 ) ;
#333 = FACE_OUTER_BOUND ( 'NONE', #515, .T. ) ;
#334 = ORIENTED_EDGE ( 'NONE', *, *, #657, .T. ) ;
#335 = VECTOR ( 'NONE', #595, 1000.000000000000000 ) ;
#336 = CARTESIAN_POINT ( 'NONE',  ( -21.04297226076289107, -0.000000000000000000, 13.36128909900357442 ) ) ;
#337 = DATE_TIME_ROLE ( 'creation_date' ) ;
#338 = CARTESIAN_POINT ( 'NONE',  ( 15.69999999999999929, 60.00000000000000000, -6.000000000000000152E-06 ) ) ;
#339 = ORIENTED_EDGE ( 'NONE', *, *, #548, .F. ) ;
#340 = ORIENTED_EDGE ( 'NONE', *, *, #256, .F. ) ;
#341 = CARTESIAN_POINT ( 'NONE',  ( -20.00000000000000000, -6.000000000000000152E-06, 10.30000000000000071 ) ) ;
#342 = LINE ( 'NONE', #191, #665 ) ;
#343 = VERTEX_POINT ( 'NONE', #264 ) ;
#344 = ADVANCED_FACE ( 'NONE', ( #545, #835, #195 ), #762, .F. ) ;
#345 = CARTESIAN_POINT ( 'NONE',  ( -22.00000000000000000, 74.00000000000000000, 8.000000000000000000 ) ) ;
#346 = LINE ( 'NONE', #913, #475 ) ;
#347 = VERTEX_POINT ( 'NONE', #498 ) ;
#348 = CARTESIAN_POINT ( 'NONE',  ( -12.95702773923902029, 61.36128909900584461, -0.000000000000000000 ) ) ;
#349 = AXIS2_PLACEMENT_3D ( 'NONE', #853, #126, #351 ) ;
#350 = AXIS2_PLACEMENT_3D ( 'NONE', #94, #387, #252 ) ;
#351 = DIRECTION ( 'NONE',  ( 0.000000000000000000, 0.000000000000000000, -1.000000000000000000 ) ) ;
#352 = DIRECTION ( 'NONE',  ( -1.000000000000000000, 0.000000000000000000, 0.000000000000000000 ) ) ;
#353 = EDGE_LOOP ( 'NONE', ( #84, #389, #147, #270 ) ) ;
#354 = CARTESIAN_POINT ( 'NONE',  ( -12.51547649045576804, 60.85853893178962437, -0.000000000000000000 ) ) ;
#355 = ADVANCED_BREP_SHAPE_REPRESENTATION ( '02_bearing_tower', ( #28, #921 ), #721 ) ;
#356 = ADVANCED_FACE ( 'NONE', ( #569 ), #67, .F. ) ;
#357 = CARTESIAN_POINT ( 'NONE',  ( 0.000000000000000000, 60.00000000000000000, -1.200000000000000030E-05 ) ) ;
#358 = CARTESIAN_POINT ( 'NONE',  ( -13.14146106820962601, 58.51547649045615174, -0.000000000000000000 ) ) ;
#359 = DIRECTION ( 'NONE',  ( -1.000000000000000000, 0.000000000000000000, 0.000000000000000000 ) ) ;
#360 = CARTESIAN_POINT ( 'NONE',  ( -15.48439506952757050, 60.85848573019363528, 0.000000000000000000 ) ) ;
#361 = LINE ( 'NONE', #431, #235 ) ;
#362 = DIRECTION ( 'NONE',  ( -0.000000000000000000, -0.000000000000000000, 1.000000000000000000 ) ) ;
#363 = CARTESIAN_POINT ( 'NONE',  ( -15.69993048876420616, 60.22508399488668118, 0.000000000000000000 ) ) ;
#364 = ORIENTED_EDGE ( 'NONE', *, *, #178, .F. ) ;
#365 = CIRCLE ( 'NONE', #735, 1.699999999999998401 ) ;
#366 = VECTOR ( 'NONE', #703, 1000.000000000000000 ) ;
#367 = CARTESIAN_POINT ( 'NONE',  ( 0.000000000000000000, 0.000000000000000000, 24.00000000000000000 ) ) ;
#368 = APPLICATION_CONTEXT ( 'configuration controlled 3d designs of mechanical parts and assemblies' ) ;
#369 = CARTESIAN_POINT ( 'NONE',  ( 15.69999999999999929, 60.00000000000000000, -6.000000000000000152E-06 ) ) ;
#370 = DIRECTION ( 'NONE',  ( 0.000000000000000000, 0.000000000000000000, -1.000000000000000000 ) ) ;
#371 = VERTEX_POINT ( 'NONE', #784 ) ;
#372 = FACE_BOUND ( 'NONE', #329, .T. ) ;
#373 = DIRECTION ( 'NONE',  ( -0.000000000000000000, 1.000000000000000000, -0.000000000000000000 ) ) ;
#374 = EDGE_CURVE ( 'NONE', #770, #16, #862, .T. ) ;
#375 = ORIENTED_EDGE ( 'NONE', *, *, #831, .T. ) ;
#376 = EDGE_CURVE ( 'NONE', #578, #450, #284, .T. ) ;
#377 = CC_DESIGN_DATE_AND_TIME_ASSIGNMENT ( #332, #337, ( #790 ) ) ;
#378 = CARTESIAN_POINT ( 'NONE',  ( -28.00000000000000000, 0.000000000000000000, 0.000000000000000000 ) ) ;
#379 = CARTESIAN_POINT ( 'NONE',  ( 15.48452350954359247, 60.85853893179023544, -0.000000000000000000 ) ) ;
#380 = ORIENTED_EDGE ( 'NONE', *, *, #702, .F. ) ;
#381 = AXIS2_PLACEMENT_3D ( 'NONE', #603, #40, #175 ) ;
#382 = CARTESIAN_POINT ( 'NONE',  ( 21.48452350954438472, -0.000000000000000000, 11.14146106821127091 ) ) ;
#383 = VECTOR ( 'NONE', #297, 1000.000000000000000 ) ;
#384 = PLANE ( 'NONE',  #428 ) ;
#385 = EDGE_LOOP ( 'NONE', ( #52, #234 ) ) ;
#386 = ADVANCED_FACE ( 'NONE', ( #472 ), #670, .F. ) ;
#387 = DIRECTION ( 'NONE',  ( 0.000000000000000000, 0.000000000000000000, -1.000000000000000000 ) ) ;
#388 = DIRECTION ( 'NONE',  ( 0.000000000000000000, 0.000000000000000000, 1.000000000000000000 ) ) ;
#389 = ORIENTED_EDGE ( 'NONE', *, *, #548, .T. ) ;
#390 = LINE ( 'NONE', #612, #750 ) ;
#391 = DATE_AND_TIME ( #466, #18 ) ;
#392 = CARTESIAN_POINT ( 'NONE',  ( -12.30000000000000071, 60.00000000000000000, -6.000000000000000152E-06 ) ) ;
#393 = ORIENTED_EDGE ( 'NONE', *, *, #712, .F. ) ;
#394 = CARTESIAN_POINT ( 'NONE',  ( -22.00000000000000000, 74.00000000000000000, 0.000000000000000000 ) ) ;
#395 = AXIS2_PLACEMENT_3D ( 'NONE', #509, #645, #359 ) ;
#396 = CARTESIAN_POINT ( 'NONE',  ( -20.00000000000000000, 8.000000000000000000, 10.30000000000000071 ) ) ;
#397 = EDGE_LOOP ( 'NONE', ( #55, #738 ) ) ;
#398 = EDGE_CURVE ( 'NONE', #450, #58, #92, .T. ) ;
#399 = CIRCLE ( 'NONE', #381, 5.799999999999999822 ) ;
#400 = CIRCLE ( 'NONE', #890, 5.799999999999999822 ) ;
#401 = CARTESIAN_POINT ( 'NONE',  ( 12.30000000000000249, 60.00000000000000000, 8.000000000000000000 ) ) ;
#402 = PERSON_AND_ORGANIZATION_ROLE ( 'creator' ) ;
#403 = DIRECTION ( 'NONE',  ( -0.000000000000000000, -1.000000000000000000, -0.000000000000000000 ) ) ;
#404 = ORIENTED_EDGE ( 'NONE', *, *, #326, .T. ) ;
#405 = CARTESIAN_POINT ( 'NONE',  ( -20.44258473825104261, -0.000000000000000000, 10.34333309900522124 ) ) ;
#406 = CALENDAR_DATE ( 2026, 17, 9 ) ;
#407 = EDGE_CURVE ( 'NONE', #720, #852, #22, .T. ) ;
#408 = CYLINDRICAL_SURFACE ( 'NONE', #262, 1.700000000000000178 ) ;
#409 = VERTEX_POINT ( 'NONE', #328 ) ;
#410 = CARTESIAN_POINT ( 'NONE',  ( 19.77438419509190837, -0.000000000000000000, 13.70000000000000284 ) ) ;
#411 = APPROVAL_DATE_TIME ( #832, #716 ) ;
#412 = DIRECTION ( 'NONE',  ( -0.000000000000000000, 1.000000000000000000, -0.000000000000000000 ) ) ;
#413 = VERTEX_POINT ( 'NONE', #392 ) ;
#414 = AXIS2_PLACEMENT_3D ( 'NONE', #54, #117, #133 ) ;
#415 = EDGE_CURVE ( 'NONE', #487, #167, #742, .T. ) ;
#416 = CARTESIAN_POINT ( 'NONE',  ( -20.22508399488666697, 0.000000000000000000, 10.29993048876420936 ) ) ;
#417 = FACE_OUTER_BOUND ( 'NONE', #814, .T. ) ;
#418 = VERTEX_POINT ( 'NONE', #310 ) ;
#419 = CC_DESIGN_PERSON_AND_ORGANIZATION_ASSIGNMENT ( #690, #752, ( #790 ) ) ;
#420 = DIRECTION ( 'NONE',  ( -0.000000000000000000, -0.000000000000000000, 1.000000000000000000 ) ) ;
#421 = CARTESIAN_POINT ( 'NONE',  ( -22.00000000000000000, 74.00000000000000000, 8.000000000000000000 ) ) ;
#422 = ORIENTED_EDGE ( 'NONE', *, *, #210, .T. ) ;
#423 = CARTESIAN_POINT ( 'NONE',  ( -21.48439506952757228, 0.000000000000000000, 11.14151426980747850 ) ) ;
#424 = CARTESIAN_POINT ( 'NONE',  ( -22.00000000000000000, 74.00000000000000000, 8.000000000000000000 ) ) ;
#425 = EDGE_LOOP ( 'NONE', ( #765, #334 ) ) ;
#426 = DIRECTION ( 'NONE',  ( 0.000000000000000000, 0.000000000000000000, -1.000000000000000000 ) ) ;
#427 = CIRCLE ( 'NONE', #677, 1.699999999999998401 ) ;
#428 = AXIS2_PLACEMENT_3D ( 'NONE', #537, #675, #101 ) ;
#429 = SECURITY_CLASSIFICATION ( '', '', #41 ) ;
#430 = DIRECTION ( 'NONE',  ( 1.000000000000000000, 0.000000000000000000, 0.000000000000000000 ) ) ;
#431 = CARTESIAN_POINT ( 'NONE',  ( -28.00000000000000000, 0.000000000000000000, 24.00000000000000000 ) ) ;
#432 = ORIENTED_EDGE ( 'NONE', *, *, #757, .F. ) ;
#433 = CARTESIAN_POINT ( 'NONE',  ( -15.04297226076124794, 58.63871090099441119, -0.000000000000000000 ) ) ;
#434 = CARTESIAN_POINT ( 'NONE',  ( 0.000000000000000000, 60.00000000000000000, 5.200000000000000178 ) ) ;
#435 = B_SPLINE_CURVE_WITH_KNOTS ( 'NONE', 3,
 ( #78, #639, #646, #354, #275, #348, #497, #506, #73, #510, #217, #225, #572, #501, #360, #280, #363, #562 ),
 .UNSPECIFIED., .F., .F.,
 ( 4, 2, 2, 2, 2, 2, 2, 2, 4 ),
 ( 0.000000000000000000, 0.06250000000000002776, 0.1250000000000000555, 0.1875000000000000833, 0.2500000000000001110, 0.3125000000000001110, 0.3750000000000001665, 0.4375000000000002220, 0.5000000000000000000 ),
 .UNSPECIFIED. ) ;
#436 = VERTEX_POINT ( 'NONE', #240 ) ;
#437 = DIRECTION ( 'NONE',  ( 0.000000000000000000, 0.000000000000000000, -1.000000000000000000 ) ) ;
#438 = DIRECTION ( 'NONE',  ( 0.000000000000000000, 1.000000000000000000, 0.000000000000000000 ) ) ;
#439 = CARTESIAN_POINT ( 'NONE',  ( -5.799999999999999822, 60.00000000000000000, 8.000000000000000000 ) ) ;
#440 = VERTEX_POINT ( 'NONE', #524 ) ;
#441 = ADVANCED_FACE ( 'NONE', ( #254 ), #318, .F. ) ;
#442 = VECTOR ( 'NONE', #651, 1000.000000000000000 ) ;
#443 = CARTESIAN_POINT ( 'NONE',  ( -12.51567465788468958, 59.14134607987129044, 0.000000000000000000 ) ) ;
#444 = DIRECTION ( 'NONE',  ( 0.000000000000000000, 0.000000000000000000, -1.000000000000000000 ) ) ;
#445 =( NAMED_UNIT ( * ) PLANE_ANGLE_UNIT ( ) SI_UNIT ( $, .RADIAN. ) );
#446 = ORIENTED_EDGE ( 'NONE', *, *, #415, .F. ) ;
#447 = CARTESIAN_POINT ( 'NONE',  ( -15.65666690099478231, 59.55741526174897160, -0.000000000000000000 ) ) ;
#448 = CARTESIAN_POINT ( 'NONE',  ( 28.00000000000000000, 0.000000000000000000, 24.00000000000000000 ) ) ;
#449 = DIRECTION ( 'NONE',  ( -0.000000000000000000, -1.000000000000000000, -0.000000000000000000 ) ) ;
#450 = VERTEX_POINT ( 'NONE', #396 ) ;
#451 = CARTESIAN_POINT ( 'NONE',  ( -20.00000000000000000, 8.000000000000000000, 13.70000000000000107 ) ) ;
#452 = CYLINDRICAL_SURFACE ( 'NONE', #80, 8.099999999999999645 ) ;
#453 = ORIENTED_EDGE ( 'NONE', *, *, #635, .F. ) ;
#454 = EDGE_CURVE ( 'NONE', #204, #680, #26, .T. ) ;
#455 = AXIS2_PLACEMENT_3D ( 'NONE', #434, #860, #520 ) ;
#456 = VECTOR ( 'NONE', #598, 1000.000000000000000 ) ;
#457 = CARTESIAN_POINT ( 'NONE',  ( 20.00000000000000000, -6.000000000000000152E-06, 10.30000000000000071 ) ) ;
#458 = AXIS2_PLACEMENT_3D ( 'NONE', #367, #437, #10 ) ;
#459 = CARTESIAN_POINT ( 'NONE',  ( -28.00000000000000000, 0.000000000000000000, 24.00000000000000000 ) ) ;
#460 = EDGE_LOOP ( 'NONE', ( #491, #521, #151, #375 ) ) ;
#461 = CARTESIAN_POINT ( 'NONE',  ( 15.69999999999999929, 60.00000000000000000, 8.000000000000000000 ) ) ;
#462 = DIRECTION ( 'NONE',  ( 0.000000000000000000, 0.000000000000000000, -1.000000000000000000 ) ) ;
#463 = CARTESIAN_POINT ( 'NONE',  ( -22.00000000000000000, 0.000000000000000000, 0.000000000000000000 ) ) ;
#464 = ORIENTED_EDGE ( 'NONE', *, *, #470, .T. ) ;
#465 = CARTESIAN_POINT ( 'NONE',  ( 21.36119079526788056, 0.000000000000000000, 10.95712604296694437 ) ) ;
#466 = CALENDAR_DATE ( 2026, 17, 9 ) ;
#467 = CARTESIAN_POINT ( 'NONE',  ( 5.799999999999999822, 60.00000000000000000, 8.000000000000000000 ) ) ;
#468 = ORIENTED_EDGE ( 'NONE', *, *, #454, .F. ) ;
#469 = LINE ( 'NONE', #248, #456 ) ;
#470 = EDGE_CURVE ( 'NONE', #588, #409, #365, .T. ) ;
#471 = APPLICATION_PROTOCOL_DEFINITION ( 'international standard', 'config_control_design', 1994, #127 ) ;
#472 = FACE_OUTER_BOUND ( 'NONE', #611, .T. ) ;
#473 = EDGE_LOOP ( 'NONE', ( #230, #552, #130, #316 ) ) ;
#474 = AXIS2_PLACEMENT_3D ( 'NONE', #203, #630, #560 ) ;
#475 = VECTOR ( 'NONE', #700, 1000.000000000000000 ) ;
#476 = CARTESIAN_POINT ( 'NONE',  ( 21.69993048876495223, 0.000000000000000000, 12.22508399488808628 ) ) ;
#477 = DIRECTION ( 'NONE',  ( 1.000000000000000000, 0.000000000000000000, 0.000000000000000000 ) ) ;
#478 = FACE_OUTER_BOUND ( 'NONE', #500, .T. ) ;
#479 = EDGE_LOOP ( 'NONE', ( #867, #614 ) ) ;
#480 = DIRECTION ( 'NONE',  ( 0.000000000000000000, 0.000000000000000000, -1.000000000000000000 ) ) ;
#481 = COORDINATED_UNIVERSAL_TIME_OFFSET ( 5, 0, .BEHIND. ) ;
#482 = CARTESIAN_POINT ( 'NONE',  ( -28.00000000000000000, 8.000000000000000000, 24.00000000000000000 ) ) ;
#483 = ORIENTED_EDGE ( 'NONE', *, *, #577, .F. ) ;
#484 = DIRECTION ( 'NONE',  ( -1.000000000000000000, -0.000000000000000000, -0.000000000000000000 ) ) ;
#485 = PERSON_AND_ORGANIZATION ( #903, #753 ) ;
#486 = CARTESIAN_POINT ( 'NONE',  ( 12.51547649045640220, 59.14146106820974325, -0.000000000000000000 ) ) ;
#487 = VERTEX_POINT ( 'NONE', #459 ) ;
#488 = VECTOR ( 'NONE', #672, 1000.000000000000000 ) ;
#489 = CARTESIAN_POINT ( 'NONE',  ( -14.00000000000000000, 60.00000000000000000, 8.000000000000000000 ) ) ;
#490 = FACE_OUTER_BOUND ( 'NONE', #46, .T. ) ;
#491 = ORIENTED_EDGE ( 'NONE', *, *, #454, .T. ) ;
#492 = B_SPLINE_CURVE_WITH_KNOTS ( 'NONE', 3,
 ( #137, #269, #198, #486, #551, #764, #51, #278, #626, #122, #546, #566, #45, #840, #212, #769, #616, #338 ),
 .UNSPECIFIED., .F., .F.,
 ( 4, 2, 2, 2, 2, 2, 2, 2, 4 ),
 ( 0.5000000000000000000, 0.5625000000000000000, 0.6250000000000000000, 0.6875000000000000000, 0.7500000000000000000, 0.8125000000000000000, 0.8750000000000000000, 0.9375000000000000000, 1.000000000000000000 ),
 .UNSPECIFIED. ) ;
#493 = CARTESIAN_POINT ( 'NONE',  ( -28.00000000000000000, 0.000000000000000000, 24.00000000000000000 ) ) ;
#494 = CARTESIAN_POINT ( 'NONE',  ( 19.55753025008501567, -0.000000000000000000, 13.65686506842306436 ) ) ;
#495 = CARTESIAN_POINT ( 'NONE',  ( -20.00000000000000000, -1.200000000000000030E-05, 12.00000000000000000 ) ) ;
#496 = ORIENTED_EDGE ( 'NONE', *, *, #577, .T. ) ;
#497 = CARTESIAN_POINT ( 'NONE',  ( -13.14151426980531312, 61.48439506952831124, 0.000000000000000000 ) ) ;
#498 = CARTESIAN_POINT ( 'NONE',  ( 20.00000000000000000, -6.000000000000000152E-06, 13.70000000000000107 ) ) ;
#499 = CARTESIAN_POINT ( 'NONE',  ( -18.63871090099695493, -0.000000000000000000, 13.04297226076415939 ) ) ;
#500 = EDGE_LOOP ( 'NONE', ( #134, #446, #238, #97 ) ) ;
#501 = CARTESIAN_POINT ( 'NONE',  ( -15.36128909900436312, 61.04297226076172223, -0.000000000000000000 ) ) ;
#502 = AXIS2_PLACEMENT_3D ( 'NONE', #843, #420, #686 ) ;
#503 = AXIS2_PLACEMENT_3D ( 'NONE', #554, #706, #352 ) ;
#504 = CARTESIAN_POINT ( 'NONE',  ( -18.63880920472979241, 0.000000000000000000, 10.95712604296852177 ) ) ;
#505 = DIRECTION ( 'NONE',  ( -0.000000000000000000, 1.000000000000000000, -0.000000000000000000 ) ) ;
#506 = CARTESIAN_POINT ( 'NONE',  ( -13.55736206015338752, 61.65679534101006709, -0.000000000000000000 ) ) ;
#507 = VERTEX_POINT ( 'NONE', #467 ) ;
#508 = CARTESIAN_POINT ( 'NONE',  ( 5.799999999999999822, 60.00000000000000000, -1.200000000000000030E-05 ) ) ;
#509 = CARTESIAN_POINT ( 'NONE',  ( 0.000000000000000000, 60.00000000000000000, 8.000000000000000000 ) ) ;
#510 = CARTESIAN_POINT ( 'NONE',  ( -14.22508399488449626, 61.70006951123652783, -0.000000000000000000 ) ) ;
#511 = ORIENTED_EDGE ( 'NONE', *, *, #724, .F. ) ;
#512 = ADVANCED_FACE ( 'NONE', ( #679 ), #384, .F. ) ;
#513 = LINE ( 'NONE', #508, #383 ) ;
#514 = CARTESIAN_POINT ( 'NONE',  ( 20.00000000000000000, -1.200000000000000030E-05, 10.30000000000000071 ) ) ;
#515 = EDGE_LOOP ( 'NONE', ( #208, #102, #888, #172 ) ) ;
#516 = CARTESIAN_POINT ( 'NONE',  ( -13.55741526174907108, 58.34333309900549835, 0.000000000000000000 ) ) ;
#517 = LINE ( 'NONE', #157, #873 ) ;
#518 = DIRECTION ( 'NONE',  ( -1.000000000000000000, 0.000000000000000000, 0.000000000000000000 ) ) ;
#519 = ORIENTED_EDGE ( 'NONE', *, *, #38, .F. ) ;
#520 = DIRECTION ( 'NONE',  ( 1.000000000000000000, 0.000000000000000000, 0.000000000000000000 ) ) ;
#521 = ORIENTED_EDGE ( 'NONE', *, *, #194, .T. ) ;
#522 = FACE_OUTER_BOUND ( 'NONE', #841, .T. ) ;
#523 = LINE ( 'NONE', #12, #442 ) ;
#524 = CARTESIAN_POINT ( 'NONE',  ( -8.099999999999999645, 60.00000000000000000, 5.200000000000000178 ) ) ;
#525 = EDGE_LOOP ( 'NONE', ( #260, #296, #364, #87 ) ) ;
#526 = CARTESIAN_POINT ( 'NONE',  ( 19.55741526174896094, -0.000000000000000000, 10.34333309900522124 ) ) ;
#527 = CIRCLE ( 'NONE', #503, 1.699999999999998401 ) ;
#528 = FACE_OUTER_BOUND ( 'NONE', #43, .T. ) ;
#529 = EDGE_LOOP ( 'NONE', ( #339, #688, #671, #846 ) ) ;
#530 = LINE ( 'NONE', #309, #557 ) ;
#531 = APPROVAL_DATE_TIME ( #391, #196 ) ;
#532 = CARTESIAN_POINT ( 'NONE',  ( 22.00000000000000000, 8.000000000000000000, 8.000000000000000000 ) ) ;
#533 = ORIENTED_EDGE ( 'NONE', *, *, #398, .T. ) ;
#534 = ADVANCED_FACE ( 'NONE', ( #813 ), #667, .F. ) ;
#535 = EDGE_CURVE ( 'NONE', #914, #440, #801, .T. ) ;
#536 = DIRECTION ( 'NONE',  ( 1.000000000000000000, 0.000000000000000000, -0.000000000000000000 ) ) ;
#537 = CARTESIAN_POINT ( 'NONE',  ( -22.00000000000000000, 0.000000000000000000, 8.000000000000000000 ) ) ;
#538 = VERTEX_POINT ( 'NONE', #532 ) ;
#539 = PRODUCT_RELATED_PRODUCT_CATEGORY ( 'detail', '', ( #292 ) ) ;
#540 = CARTESIAN_POINT ( 'NONE',  ( 21.36128909900559592, -0.000000000000000000, 13.04297226076161920 ) ) ;
#541 = APPROVAL_STATUS ( 'not_yet_approved' ) ;
#542 = DIRECTION ( 'NONE',  ( 1.000000000000000000, 0.000000000000000000, 0.000000000000000000 ) ) ;
#543 = VERTEX_POINT ( 'NONE', #819 ) ;
#544 = AXIS2_PLACEMENT_3D ( 'NONE', #901, #259, #542 ) ;
#545 = FACE_BOUND ( 'NONE', #385, .T. ) ;
#546 = CARTESIAN_POINT ( 'NONE',  ( 14.44258473825093425, 58.34333309900549835, 0.000000000000000000 ) ) ;
#547 = ORIENTED_EDGE ( 'NONE', *, *, #856, .T. ) ;
#548 = EDGE_CURVE ( 'NONE', #914, #770, #186, .T. ) ;
#549 = CARTESIAN_POINT ( 'NONE',  ( 18.34333309900522480, 0.000000000000000000, 12.44258473825066780 ) ) ;
#550 = CALENDAR_DATE ( 2026, 17, 9 ) ;
#551 = CARTESIAN_POINT ( 'NONE',  ( 12.63880920472926839, 58.95712604296905113, 0.000000000000000000 ) ) ;
#552 = ORIENTED_EDGE ( 'NONE', *, *, #119, .T. ) ;
#553 = CARTESIAN_POINT ( 'NONE',  ( -20.85865392012706820, 0.000000000000000000, 13.48432534211531397 ) ) ;
#554 = CARTESIAN_POINT ( 'NONE',  ( 14.00000000000000000, 60.00000000000000000, 8.000000000000000000 ) ) ;
#555 = EDGE_LOOP ( 'NONE', ( #662, #192, #583, #340, #468, #380, #561, #729 ) ) ;
#556 = LINE ( 'NONE', #493, #366 ) ;
#557 = VECTOR ( 'NONE', #682, 1000.000000000000000 ) ;
#558 = ADVANCED_FACE ( 'NONE', ( #528 ), #823, .F. ) ;
#559 = CARTESIAN_POINT ( 'NONE',  ( 18.95702773923658668, -0.000000000000000000, 13.36128909900305395 ) ) ;
#560 = DIRECTION ( 'NONE',  ( 0.000000000000000000, 0.000000000000000000, -1.000000000000000000 ) ) ;
#561 = ORIENTED_EDGE ( 'NONE', *, *, #174, .F. ) ;
#562 = CARTESIAN_POINT ( 'NONE',  ( -15.69999999999999929, 60.00000000000000000, -6.000000000000000152E-06 ) ) ;
#563 = ADVANCED_FACE ( 'NONE', ( #833 ), #452, .F. ) ;
#564 = CARTESIAN_POINT ( 'NONE',  ( -20.00000000000000000, -6.000000000000000152E-06, 13.70000000000000107 ) ) ;
#565 = EDGE_CURVE ( 'NONE', #852, #3, #887, .T. ) ;
#566 = CARTESIAN_POINT ( 'NONE',  ( 14.85853893179037222, 58.51547649045613753, -0.000000000000000000 ) ) ;
#567 = ORIENTED_EDGE ( 'NONE', *, *, #39, .F. ) ;
#568 = PLANE ( 'NONE',  #47 ) ;
#569 = FACE_OUTER_BOUND ( 'NONE', #525, .T. ) ;
#570 = CARTESIAN_POINT ( 'NONE',  ( -12.63871090099526384, 58.95702773923827777, -0.000000000000000000 ) ) ;
#571 = CARTESIAN_POINT ( 'NONE',  ( -28.00000000000000000, 0.000000000000000000, 0.000000000000000000 ) ) ;
#572 = CARTESIAN_POINT ( 'NONE',  ( -15.04287395702989727, 61.36119079527254172, 0.000000000000000000 ) ) ;
#573 = CIRCLE ( 'NONE', #65, 8.099999999999999645 ) ;
#574 = DIRECTION ( 'NONE',  ( 1.000000000000000000, 0.000000000000000000, 0.000000000000000000 ) ) ;
#575 = CARTESIAN_POINT ( 'NONE',  ( 22.00000000000000000, 74.00000000000000000, 0.000000000000000000 ) ) ;
#576 = CARTESIAN_POINT ( 'NONE',  ( 28.00000000000000000, 0.000000000000000000, 0.000000000000000000 ) ) ;
#577 = EDGE_CURVE ( 'NONE', #807, #107, #492, .T. ) ;
#578 = VERTEX_POINT ( 'NONE', #905 ) ;
#579 = UNCERTAINTY_MEASURE_WITH_UNIT (LENGTH_MEASURE( 1.000000000000000082E-05 ), #166, 'distance_accuracy_value', 'NONE');
#580 = LINE ( 'NONE', #378, #771 ) ;
#581 = LINE ( 'NONE', #514, #170 ) ;
#582 = LINE ( 'NONE', #295, #335 ) ;
#583 = ORIENTED_EDGE ( 'NONE', *, *, #104, .F. ) ;
#584 = CARTESIAN_POINT ( 'NONE',  ( -5.799999999999999822, 60.00000000000000000, 5.200000000000000178 ) ) ;
#585 = DIRECTION ( 'NONE',  ( -0.000000000000000000, -0.000000000000000000, 1.000000000000000000 ) ) ;
#586 = CARTESIAN_POINT ( 'NONE',  ( -22.00000000000000000, 8.000000000000000000, 8.000000000000000000 ) ) ;
#587 = CIRCLE ( 'NONE', #661, 1.699999999999998401 ) ;
#588 = VERTEX_POINT ( 'NONE', #265 ) ;
#589 = AXIS2_PLACEMENT_3D ( 'NONE', #120, #689, #907 ) ;
#590 = ADVANCED_FACE ( 'NONE', ( #478 ), #129, .F. ) ;
#591 = CARTESIAN_POINT ( 'NONE',  ( 12.51560493047243128, 60.85848573019364238, 0.000000000000000000 ) ) ;
#592 = CYLINDRICAL_SURFACE ( 'NONE', #218, 1.700000000000000178 ) ;
#593 = ORIENTED_EDGE ( 'NONE', *, *, #246, .T. ) ;
#594 = DIRECTION ( 'NONE',  ( -0.000000000000000000, -0.000000000000000000, 1.000000000000000000 ) ) ;
#595 = DIRECTION ( 'NONE',  ( 0.000000000000000000, 1.000000000000000000, 0.000000000000000000 ) ) ;
#596 = CARTESIAN_POINT ( 'NONE',  ( -20.00000000000000000, 8.000000000000000000, 12.00000000000000000 ) ) ;
#597 = ORIENTED_EDGE ( 'NONE', *, *, #75, .F. ) ;
#598 = DIRECTION ( 'NONE',  ( -0.000000000000000000, 0.000000000000000000, 1.000000000000000000 ) ) ;
#599 = DIRECTION ( 'NONE',  ( -1.000000000000000000, 0.000000000000000000, 0.000000000000000000 ) ) ;
#600 = ORIENTED_EDGE ( 'NONE', *, *, #174, .T. ) ;
#601 = EDGE_CURVE ( 'NONE', #720, #155, #57, .T. ) ;
#602 = AXIS2_PLACEMENT_3D ( 'NONE', #754, #176, #388 ) ;
#603 = CARTESIAN_POINT ( 'NONE',  ( 0.000000000000000000, 60.00000000000000000, 8.000000000000000000 ) ) ;
#604 = CIRCLE ( 'NONE', #125, 1.700000000000000178 ) ;
#605 = DIRECTION ( 'NONE',  ( 0.000000000000000000, 0.000000000000000000, 1.000000000000000000 ) ) ;
#606 = ORIENTED_EDGE ( 'NONE', *, *, #124, .F. ) ;
#607 = EDGE_CURVE ( 'NONE', #155, #627, #342, .T. ) ;
#608 = CARTESIAN_POINT ( 'NONE',  ( 22.00000000000000000, 0.000000000000000000, 0.000000000000000000 ) ) ;
#609 = PERSON_AND_ORGANIZATION_ROLE ( 'design_supplier' ) ;
#610 = DIRECTION ( 'NONE',  ( -0.000000000000000000, -0.000000000000000000, -1.000000000000000000 ) ) ;
#611 = EDGE_LOOP ( 'NONE', ( #897, #283, #617, #274 ) ) ;
#612 = CARTESIAN_POINT ( 'NONE',  ( -20.00000000000000000, -1.200000000000000030E-05, 13.70000000000000107 ) ) ;
#613 = CARTESIAN_POINT ( 'NONE',  ( -14.00000000000000000, 60.00000000000000000, 8.000000000000000000 ) ) ;
#614 = ORIENTED_EDGE ( 'NONE', *, *, #757, .T. ) ;
#615 = LINE ( 'NONE', #345, #691 ) ;
#616 = CARTESIAN_POINT ( 'NONE',  ( 15.70000000000000284, 59.77438419509339695, -0.000000000000000000 ) ) ;
#617 = ORIENTED_EDGE ( 'NONE', *, *, #152, .T. ) ;
#618 = AXIS2_PLACEMENT_3D ( 'NONE', #649, #644, #574 ) ;
#619 = FACE_BOUND ( 'NONE', #226, .T. ) ;
#620 = CARTESIAN_POINT ( 'NONE',  ( 18.95712604297132842, 0.000000000000000000, 10.63880920472698577 ) ) ;
#621 = CALENDAR_DATE ( 2026, 17, 9 ) ;
#622 = DIRECTION ( 'NONE',  ( -0.000000000000000000, -0.000000000000000000, -1.000000000000000000 ) ) ;
#623 = ORIENTED_EDGE ( 'NONE', *, *, #923, .T. ) ;
#624 = ORIENTED_EDGE ( 'NONE', *, *, #66, .F. ) ;
#625 = CARTESIAN_POINT ( 'NONE',  ( -21.36119079527136932, 0.000000000000000000, 13.04287395703068952 ) ) ;
#626 = CARTESIAN_POINT ( 'NONE',  ( 13.77491600511588032, 58.30006951123653636, 0.000000000000000000 ) ) ;
#627 = VERTEX_POINT ( 'NONE', #909 ) ;
#628 = B_SPLINE_CURVE_WITH_KNOTS ( 'NONE', 3,
 ( #669, #900, #169, #257, #821, #540, #179, #882, #476, #239, #811, #382, #465, #745, #666, #678, #830, #457 ),
 .UNSPECIFIED., .F., .F.,
 ( 4, 2, 2, 2, 2, 2, 2, 2, 4 ),
 ( 0.000000000000000000, 0.06250000000000000000, 0.1250000000000000000, 0.1875000000000000000, 0.2500000000000000000, 0.3125000000000000000, 0.3750000000000000000, 0.4375000000000000000, 0.5000000000000000000 ),
 .UNSPECIFIED. ) ;
#629 = CARTESIAN_POINT ( 'NONE',  ( 18.51547649045640753, -0.000000000000000000, 12.85853893179063867 ) ) ;
#630 = DIRECTION ( 'NONE',  ( 1.000000000000000000, 0.000000000000000000, 0.000000000000000000 ) ) ;
#631 = ORIENTED_EDGE ( 'NONE', *, *, #744, .T. ) ;
#632 = CARTESIAN_POINT ( 'NONE',  ( 28.00000000000000000, 8.000000000000000000, 0.000000000000000000 ) ) ;
#633 = ADVANCED_FACE ( 'NONE', ( #207, #760, #417 ), #697, .F. ) ;
#634 = VECTOR ( 'NONE', #805, 1000.000000000000000 ) ;
#635 = EDGE_CURVE ( 'NONE', #711, #834, #346, .T. ) ;
#636 = FACE_OUTER_BOUND ( 'NONE', #776, .T. ) ;
#637 = LINE ( 'NONE', #926, #108 ) ;
#638 = ORIENTED_EDGE ( 'NONE', *, *, #39, .T. ) ;
#639 = CARTESIAN_POINT ( 'NONE',  ( -12.30000000000000249, 60.22525195654715446, 0.000000000000000000 ) ) ;
#640 = DIRECTION ( 'NONE',  ( 0.000000000000000000, 0.000000000000000000, 1.000000000000000000 ) ) ;
#641 = CARTESIAN_POINT ( 'NONE',  ( -18.34333309900548770, 0.000000000000000000, 11.55741526174869271 ) ) ;
#642 = DIRECTION ( 'NONE',  ( 0.000000000000000000, 1.000000000000000000, 0.000000000000000000 ) ) ;
#643 = CARTESIAN_POINT ( 'NONE',  ( -28.00000000000000000, 8.000000000000000000, 8.000000000000000000 ) ) ;
#644 = DIRECTION ( 'NONE',  ( 0.000000000000000000, 0.000000000000000000, 1.000000000000000000 ) ) ;
#645 = DIRECTION ( 'NONE',  ( 0.000000000000000000, 0.000000000000000000, -1.000000000000000000 ) ) ;
#646 = CARTESIAN_POINT ( 'NONE',  ( -12.34333309900585718, 60.44258473825166789, -0.000000000000000000 ) ) ;
#647 = ORIENTED_EDGE ( 'NONE', *, *, #75, .T. ) ;
#648 = AXIS2_PLACEMENT_3D ( 'NONE', #596, #684, #883 ) ;
#649 = CARTESIAN_POINT ( 'NONE',  ( 0.000000000000000000, 60.00000000000000000, 5.200000000000000178 ) ) ;
#650 = DIRECTION ( 'NONE',  ( 1.000000000000000000, 0.000000000000000000, 0.000000000000000000 ) ) ;
#651 = DIRECTION ( 'NONE',  ( -0.000000000000000000, -0.000000000000000000, 1.000000000000000000 ) ) ;
#652 = ORIENTED_EDGE ( 'NONE', *, *, #222, .T. ) ;
#653 = DIRECTION ( 'NONE',  ( 0.000000000000000000, -1.000000000000000000, 0.000000000000000000 ) ) ;
#654 = LINE ( 'NONE', #11, #708 ) ;
#655 = EDGE_LOOP ( 'NONE', ( #31, #547, #685, #780 ) ) ;
#656 = ADVANCED_FACE ( 'NONE', ( #333 ), #273, .F. ) ;
#657 = EDGE_CURVE ( 'NONE', #199, #177, #527, .T. ) ;
#658 = CARTESIAN_POINT ( 'NONE',  ( -13.77491600511588032, 58.29993048876345085, -0.000000000000000000 ) ) ;
#659 = CARTESIAN_POINT ( 'NONE',  ( 13.14146106821127269, 61.48452350954438828, -0.000000000000000000 ) ) ;
#660 = CARTESIAN_POINT ( 'NONE',  ( 0.000000000000000000, 60.00000000000000000, 5.200000000000000178 ) ) ;
#661 = AXIS2_PLACEMENT_3D ( 'NONE', #154, #444, #15 ) ;
#662 = ORIENTED_EDGE ( 'NONE', *, *, #911, .F. ) ;
#663 = ADVANCED_FACE ( 'NONE', ( #490 ), #408, .F. ) ;
#664 = AXIS2_PLACEMENT_3D ( 'NONE', #36, #896, #42 ) ;
#665 = VECTOR ( 'NONE', #622, 1000.000000000000000 ) ;
#666 = CARTESIAN_POINT ( 'NONE',  ( 20.85848573019066876, 0.000000000000000000, 10.51560493047243128 ) ) ;
#667 = PLANE ( 'NONE',  #306 ) ;
#668 = ORIENTED_EDGE ( 'NONE', *, *, #856, .F. ) ;
#669 = CARTESIAN_POINT ( 'NONE',  ( 20.00000000000000000, -6.000000000000000152E-06, 13.70000000000000107 ) ) ;
#670 = CYLINDRICAL_SURFACE ( 'NONE', #664, 1.699999999999998401 ) ;
#671 = ORIENTED_EDGE ( 'NONE', *, *, #842, .T. ) ;
#672 = DIRECTION ( 'NONE',  ( 0.000000000000000000, 1.000000000000000000, 0.000000000000000000 ) ) ;
#673 = EDGE_CURVE ( 'NONE', #16, #770, #573, .T. ) ;
#674 = MECHANICAL_CONTEXT ( 'NONE', #368, 'mechanical' ) ;
#675 = DIRECTION ( 'NONE',  ( 1.000000000000000000, 0.000000000000000000, 0.000000000000000000 ) ) ;
#676 = ORIENTED_EDGE ( 'NONE', *, *, #70, .T. ) ;
#677 = AXIS2_PLACEMENT_3D ( 'NONE', #489, #480, #277 ) ;
#678 = CARTESIAN_POINT ( 'NONE',  ( 20.44263793985065192, -0.000000000000000000, 10.34320465898919217 ) ) ;
#679 = FACE_OUTER_BOUND ( 'NONE', #460, .T. ) ;
#680 = VERTEX_POINT ( 'NONE', #775 ) ;
#681 = LOCAL_TIME ( 12, 1, 19.00000000000000000, #481 ) ;
#682 = DIRECTION ( 'NONE',  ( -0.000000000000000000, 1.000000000000000000, -0.000000000000000000 ) ) ;
#683 = DATE_TIME_ROLE ( 'classification_date' ) ;
#684 = DIRECTION ( 'NONE',  ( 0.000000000000000000, -1.000000000000000000, 0.000000000000000000 ) ) ;
#685 = ORIENTED_EDGE ( 'NONE', *, *, #19, .T. ) ;
#686 = DIRECTION ( 'NONE',  ( 1.000000000000000000, 0.000000000000000000, 0.000000000000000000 ) ) ;
#687 = DIRECTION ( 'NONE',  ( 0.000000000000000000, 0.000000000000000000, 1.000000000000000000 ) ) ;
#688 = ORIENTED_EDGE ( 'NONE', *, *, #535, .T. ) ;
#689 = DIRECTION ( 'NONE',  ( 0.000000000000000000, 1.000000000000000000, 0.000000000000000000 ) ) ;
#690 = PERSON_AND_ORGANIZATION ( #903, #753 ) ;
#691 = VECTOR ( 'NONE', #904, 1000.000000000000000 ) ;
#692 = DIRECTION ( 'NONE',  ( 0.000000000000000000, 0.000000000000000000, 1.000000000000000000 ) ) ;
#693 = EDGE_LOOP ( 'NONE', ( #432, #266, #291, #69 ) ) ;
#694 = VECTOR ( 'NONE', #426, 1000.000000000000000 ) ;
#695 = VERTEX_POINT ( 'NONE', #421 ) ;
#696 = CARTESIAN_POINT ( 'NONE',  ( 20.00000000000000000, 8.000000000000000000, 13.70000000000000107 ) ) ;
#697 = PLANE ( 'NONE',  #414 ) ;
#698 = ORIENTED_EDGE ( 'NONE', *, *, #236, .T. ) ;
#699 = CARTESIAN_POINT ( 'NONE',  ( 19.14134607987366721, 0.000000000000000000, 13.48432534211531397 ) ) ;
#700 = DIRECTION ( 'NONE',  ( -0.000000000000000000, -0.000000000000000000, 1.000000000000000000 ) ) ;
#701 = ORIENTED_EDGE ( 'NONE', *, *, #19, .F. ) ;
#702 = EDGE_CURVE ( 'NONE', #27, #204, #637, .T. ) ;
#703 = DIRECTION ( 'NONE',  ( 1.000000000000000000, 0.000000000000000000, 0.000000000000000000 ) ) ;
#704 = CARTESIAN_POINT ( 'NONE',  ( -28.00000000000000000, 8.000000000000000000, 0.000000000000000000 ) ) ;
#705 = CC_DESIGN_PERSON_AND_ORGANIZATION_ASSIGNMENT ( #249, #197, ( #429 ) ) ;
#706 = DIRECTION ( 'NONE',  ( 0.000000000000000000, 0.000000000000000000, -1.000000000000000000 ) ) ;
#707 = ORIENTED_EDGE ( 'NONE', *, *, #300, .T. ) ;
#708 = VECTOR ( 'NONE', #585, 1000.000000000000000 ) ;
#709 = CARTESIAN_POINT ( 'NONE',  ( -20.00000000000000000, -1.200000000000000030E-05, 10.30000000000000071 ) ) ;
#710 = CARTESIAN_POINT ( 'NONE',  ( -18.34320465898919394, -0.000000000000000000, 12.44263793984841193 ) ) ;
#711 = VERTEX_POINT ( 'NONE', #584 ) ;
#712 = EDGE_CURVE ( 'NONE', #418, #319, #604, .T. ) ;
#713 = CARTESIAN_POINT ( 'NONE',  ( -18.95702773923594719, -0.000000000000000000, 10.63871090099721783 ) ) ;
#714 = CYLINDRICAL_SURFACE ( 'NONE', #815, 5.799999999999999822 ) ;
#715 = ORIENTED_EDGE ( 'NONE', *, *, #806, .F. ) ;
#716 = APPROVAL ( #49, '未' ) ;
#717 = CARTESIAN_POINT ( 'NONE',  ( -14.85848573019432095, 58.51560493047168166, 0.000000000000000000 ) ) ;
#718 = FACE_OUTER_BOUND ( 'NONE', #473, .T. ) ;
#719 = LINE ( 'NONE', #915, #694 ) ;
#720 = VERTEX_POINT ( 'NONE', #162 ) ;
#721 =( GEOMETRIC_REPRESENTATION_CONTEXT ( 3 ) GLOBAL_UNCERTAINTY_ASSIGNED_CONTEXT ( ( #579 ) ) GLOBAL_UNIT_ASSIGNED_CONTEXT ( ( #166, #445, #732 ) ) REPRESENTATION_CONTEXT ( 'NONE', 'WORKASPACE' ) );
#722 = CARTESIAN_POINT ( 'NONE',  ( 8.099999999999999645, 60.00000000000000000, 0.000000000000000000 ) ) ;
#723 = CARTESIAN_POINT ( 'NONE',  ( 14.44263793985021493, 61.65679534101008841, -0.000000000000000000 ) ) ;
#724 = EDGE_CURVE ( 'NONE', #538, #3, #726, .T. ) ;
#725 = ORIENTED_EDGE ( 'NONE', *, *, #98, .T. ) ;
#726 = LINE ( 'NONE', #219, #788 ) ;
#727 = CARTESIAN_POINT ( 'NONE',  ( 15.70000000000000284, 60.22525195654803554, 0.000000000000000000 ) ) ;
#728 = EDGE_CURVE ( 'NONE', #155, #487, #361, .T. ) ;
#729 = ORIENTED_EDGE ( 'NONE', *, *, #565, .F. ) ;
#730 = EDGE_CURVE ( 'NONE', #167, #800, #580, .T. ) ;
#731 = DIRECTION ( 'NONE',  ( 0.000000000000000000, -1.000000000000000000, 0.000000000000000000 ) ) ;
#732 =( NAMED_UNIT ( * ) SI_UNIT ( $, .STERADIAN. ) SOLID_ANGLE_UNIT ( ) );
#733 = DIRECTION ( 'NONE',  ( -1.000000000000000000, 0.000000000000000000, 0.000000000000000000 ) ) ;
#734 = EDGE_LOOP ( 'NONE', ( #251, #837, #828, #160 ) ) ;
#735 = AXIS2_PLACEMENT_3D ( 'NONE', #613, #892, #106 ) ;
#736 = PLANE ( 'NONE',  #350 ) ;
#737 = CARTESIAN_POINT ( 'NONE',  ( 0.000000000000000000, 60.00000000000000000, 5.200000000000000178 ) ) ;
#738 = ORIENTED_EDGE ( 'NONE', *, *, #374, .T. ) ;
#739 = ADVANCED_FACE ( 'NONE', ( #153 ), #231, .F. ) ;
#740 = DIRECTION ( 'NONE',  ( 0.000000000000000000, 0.000000000000000000, 1.000000000000000000 ) ) ;
#741 = CARTESIAN_POINT ( 'NONE',  ( -14.00000000000000000, 60.00000000000000000, -1.200000000000000030E-05 ) ) ;
#742 = LINE ( 'NONE', #747, #144 ) ;
#743 = EDGE_LOOP ( 'NONE', ( #79, #255, #701, #638 ) ) ;
#744 = EDGE_CURVE ( 'NONE', #543, #507, #513, .T. ) ;
#745 = CARTESIAN_POINT ( 'NONE',  ( 21.04297226076638339, -0.000000000000000000, 10.63871090099879879 ) ) ;
#746 = SHAPE_DEFINITION_REPRESENTATION ( #781, #355 ) ;
#747 = CARTESIAN_POINT ( 'NONE',  ( -28.00000000000000000, 0.000000000000000000, 24.00000000000000000 ) ) ;
#748 = EDGE_LOOP ( 'NONE', ( #698, #593 ) ) ;
#749 = CIRCLE ( 'NONE', #141, 1.700000000000000178 ) ;
#750 = VECTOR ( 'NONE', #886, 1000.000000000000000 ) ;
#751 = CARTESIAN_POINT ( 'NONE',  ( -28.00000000000000000, 0.000000000000000000, 0.000000000000000000 ) ) ;
#752 = PERSON_AND_ORGANIZATION_ROLE ( 'creator' ) ;
#753 = ORGANIZATION ( '未', '未', '' ) ;
#754 = CARTESIAN_POINT ( 'NONE',  ( -20.00000000000000000, -1.200000000000000030E-05, 12.00000000000000000 ) ) ;
#755 = ORIENTED_EDGE ( 'NONE', *, *, #730, .T. ) ;
#756 = CC_DESIGN_APPROVAL ( #196, ( #429 ) ) ;
#757 = EDGE_CURVE ( 'NONE', #876, #413, #287, .T. ) ;
#758 = EDGE_CURVE ( 'NONE', #440, #914, #93, .T. ) ;
#759 = DIRECTION ( 'NONE',  ( -1.000000000000000000, 0.000000000000000000, 0.000000000000000000 ) ) ;
#760 = FACE_BOUND ( 'NONE', #8, .T. ) ;
#761 = EDGE_LOOP ( 'NONE', ( #519, #182, #600, #324 ) ) ;
#762 = PLANE ( 'NONE',  #589 ) ;
#763 = COORDINATED_UNIVERSAL_TIME_OFFSET ( 5, 0, .BEHIND. ) ;
#764 = CARTESIAN_POINT ( 'NONE',  ( 12.95702773923647300, 58.63871090099668493, -0.000000000000000000 ) ) ;
#765 = ORIENTED_EDGE ( 'NONE', *, *, #66, .T. ) ;
#766 = CARTESIAN_POINT ( 'NONE',  ( -20.22561580490735267, -0.000000000000000000, 13.70000000000000284 ) ) ;
#767 = APPROVAL_ROLE ( '' ) ;
#768 = VECTOR ( 'NONE', #403, 1000.000000000000000 ) ;
#769 = CARTESIAN_POINT ( 'NONE',  ( 15.65686506842306791, 59.55753025008651491, -0.000000000000000000 ) ) ;
#770 = VERTEX_POINT ( 'NONE', #722 ) ;
#771 = VECTOR ( 'NONE', #874, 1000.000000000000000 ) ;
#772 = PRODUCT_DEFINITION_FORMATION_WITH_SPECIFIED_SOURCE ( '�', '', #292, .NOT_KNOWN. ) ;
#773 = EDGE_CURVE ( 'NONE', #343, #578, #50, .T. ) ;
#774 = CARTESIAN_POINT ( 'NONE',  ( 18.63871090099441830, -0.000000000000000000, 10.95702773923875206 ) ) ;
#775 = CARTESIAN_POINT ( 'NONE',  ( -22.00000000000000000, 8.000000000000000000, 0.000000000000000000 ) ) ;
#776 = EDGE_LOOP ( 'NONE', ( #483, #114, #624, #118 ) ) ;
#777 = FACE_OUTER_BOUND ( 'NONE', #64, .T. ) ;
#778 = CARTESIAN_POINT ( 'NONE',  ( 18.34320465898844077, -0.000000000000000000, 11.55736206015660983 ) ) ;
#779 = CARTESIAN_POINT ( 'NONE',  ( 0.000000000000000000, 60.00000000000000000, 0.000000000000000000 ) ) ;
#780 = ORIENTED_EDGE ( 'NONE', *, *, #601, .T. ) ;
#781 = PRODUCT_DEFINITION_SHAPE ( 'NONE', 'NONE',  #790 ) ;
#782 = ADVANCED_FACE ( 'NONE', ( #156, #372, #619, #777 ), #568, .F. ) ;
#783 = LINE ( 'NONE', #643, #205 ) ;
#784 = CARTESIAN_POINT ( 'NONE',  ( 20.00000000000000000, -6.000000000000000152E-06, 10.30000000000000071 ) ) ;
#785 = CARTESIAN_POINT ( 'NONE',  ( 20.00000000000000000, 8.000000000000000000, 12.00000000000000000 ) ) ;
#786 = CARTESIAN_POINT ( 'NONE',  ( 22.00000000000000355, 8.000000000000000000, 0.000000000000000000 ) ) ;
#787 = DIRECTION ( 'NONE',  ( 1.000000000000000000, 0.000000000000000000, 0.000000000000000000 ) ) ;
#788 = VECTOR ( 'NONE', #4, 1000.000000000000000 ) ;
#789 = EDGE_CURVE ( 'NONE', #413, #876, #435, .T. ) ;
#790 = PRODUCT_DEFINITION ( '�', '', #772, #227 ) ;
#791 = DIRECTION ( 'NONE',  ( -0.000000000000000000, -1.000000000000000000, -0.000000000000000000 ) ) ;
#792 = CARTESIAN_POINT ( 'NONE',  ( 14.22508399488449449, 61.69993048876346364, 0.000000000000000000 ) ) ;
#793 = EDGE_LOOP ( 'NONE', ( #91, #138 ) ) ;
#794 = DIRECTION ( 'NONE',  ( 0.000000000000000000, 0.000000000000000000, -1.000000000000000000 ) ) ;
#795 = DIRECTION ( 'NONE',  ( -0.000000000000000000, -0.000000000000000000, -1.000000000000000000 ) ) ;
#796 = DIRECTION ( 'NONE',  ( 1.000000000000000000, 0.000000000000000000, 0.000000000000000000 ) ) ;
#797 = ORIENTED_EDGE ( 'NONE', *, *, #802, .F. ) ;
#798 = CARTESIAN_POINT ( 'NONE',  ( -20.00000000000000000, -6.000000000000000152E-06, 10.30000000000000071 ) ) ;
#799 = LINE ( 'NONE', #2, #331 ) ;
#800 = VERTEX_POINT ( 'NONE', #576 ) ;
#801 = CIRCLE ( 'NONE', #863, 8.099999999999999645 ) ;
#802 = EDGE_CURVE ( 'NONE', #884, #538, #783, .T. ) ;
#803 = CARTESIAN_POINT ( 'NONE',  ( -14.22508399488412323, 58.30006951123653636, 0.000000000000000000 ) ) ;
#804 = CARTESIAN_POINT ( 'NONE',  ( 12.34320465898919572, 60.44263793984768540, -0.000000000000000000 ) ) ;
#805 = DIRECTION ( 'NONE',  ( -0.000000000000000000, -0.000000000000000000, -1.000000000000000000 ) ) ;
#806 = EDGE_CURVE ( 'NONE', #543, #711, #400, .T. ) ;
#807 = VERTEX_POINT ( 'NONE', #931 ) ;
#808 = CYLINDRICAL_SURFACE ( 'NONE', #857, 1.700000000000000178 ) ;
#809 = LINE ( 'NONE', #6, #247 ) ;
#810 = EDGE_LOOP ( 'NONE', ( #187, #533 ) ) ;
#811 = CARTESIAN_POINT ( 'NONE',  ( 21.65666690099398650, 0.000000000000000000, 11.55741526174742262 ) ) ;
#812 = DIRECTION ( 'NONE',  ( -0.000000000000000000, -0.000000000000000000, 1.000000000000000000 ) ) ;
#813 = FACE_OUTER_BOUND ( 'NONE', #743, .T. ) ;
#814 = EDGE_LOOP ( 'NONE', ( #221, #920, #820, #307, #37, #311, #511, #797 ) ) ;
#815 = AXIS2_PLACEMENT_3D ( 'NONE', #72, #362, #650 ) ;
#816 = AXIS2_PLACEMENT_3D ( 'NONE', #142, #640, #928 ) ;
#817 = CC_DESIGN_APPROVAL ( #877, ( #772 ) ) ;
#818 = CARTESIAN_POINT ( 'NONE',  ( 19.77491600511334013, 0.000000000000000000, 10.29993048876420936 ) ) ;
#819 = CARTESIAN_POINT ( 'NONE',  ( 5.799999999999999822, 60.00000000000000000, 5.200000000000000178 ) ) ;
#820 = ORIENTED_EDGE ( 'NONE', *, *, #607, .F. ) ;
#821 = CARTESIAN_POINT ( 'NONE',  ( 21.04287395702867514, 0.000000000000000000, 13.36119079527264830 ) ) ;
#822 = PERSON_AND_ORGANIZATION ( #903, #753 ) ;
#823 = CYLINDRICAL_SURFACE ( 'NONE', #544, 1.700000000000000178 ) ;
#824 = ORIENTED_EDGE ( 'NONE', *, *, #98, .F. ) ;
#825 = PLANE ( 'NONE',  #844 ) ;
#826 = DIRECTION ( 'NONE',  ( 0.000000000000000000, 0.000000000000000000, 1.000000000000000000 ) ) ;
#827 = DIRECTION ( 'NONE',  ( 1.000000000000000000, 0.000000000000000000, 0.000000000000000000 ) ) ;
#828 = ORIENTED_EDGE ( 'NONE', *, *, #7, .F. ) ;
#829 = VECTOR ( 'NONE', #594, 1000.000000000000000 ) ;
#830 = CARTESIAN_POINT ( 'NONE',  ( 20.22508399488666697, -0.000000000000000000, 10.30006951123579206 ) ) ;
#831 = EDGE_CURVE ( 'NONE', #695, #204, #140, .T. ) ;
#832 = DATE_AND_TIME ( #406, #849 ) ;
#833 = FACE_OUTER_BOUND ( 'NONE', #353, .T. ) ;
#834 = VERTEX_POINT ( 'NONE', #439 ) ;
#835 = FACE_BOUND ( 'NONE', #748, .T. ) ;
#836 = DIRECTION ( 'NONE',  ( 0.000000000000000000, -0.000000000000000000, -1.000000000000000000 ) ) ;
#837 = ORIENTED_EDGE ( 'NONE', *, *, #376, .T. ) ;
#838 = CARTESIAN_POINT ( 'NONE',  ( -21.48452350954359247, -0.000000000000000000, 12.85853893179063512 ) ) ;
#839 = PERSON_AND_ORGANIZATION ( #903, #753 ) ;
#840 = CARTESIAN_POINT ( 'NONE',  ( 15.36128909900410200, 58.95702773923764539, -0.000000000000000000 ) ) ;
#841 = EDGE_LOOP ( 'NONE', ( #927, #241, #652, #393 ) ) ;
#842 = EDGE_CURVE ( 'NONE', #440, #16, #719, .T. ) ;
#843 = CARTESIAN_POINT ( 'NONE',  ( 14.00000000000000000, 60.00000000000000000, -1.200000000000000030E-05 ) ) ;
#844 = AXIS2_PLACEMENT_3D ( 'NONE', #29, #740, #536 ) ;
#845 = DIRECTION ( 'NONE',  ( 1.000000000000000000, 0.000000000000000000, 0.000000000000000000 ) ) ;
#846 = ORIENTED_EDGE ( 'NONE', *, *, #374, .F. ) ;
#847 = VECTOR ( 'NONE', #861, 1000.000000000000000 ) ;
#848 = DIRECTION ( 'NONE',  ( -1.000000000000000000, 0.000000000000000000, -0.000000000000000000 ) ) ;
#849 = LOCAL_TIME ( 12, 1, 19.00000000000000000, #121 ) ;
#850 = PLANE ( 'NONE',  #288 ) ;
#851 = DIRECTION ( 'NONE',  ( -1.000000000000000000, -0.000000000000000000, -0.000000000000000000 ) ) ;
#852 = VERTEX_POINT ( 'NONE', #632 ) ;
#853 = CARTESIAN_POINT ( 'NONE',  ( 20.00000000000000000, 8.000000000000000000, 12.00000000000000000 ) ) ;
#854 = CARTESIAN_POINT ( 'NONE',  ( -19.55741526174779210, -0.000000000000000000, 13.65666690099398828 ) ) ;
#855 = EDGE_LOOP ( 'NONE', ( #755, #567, #668, #123 ) ) ;
#856 = EDGE_CURVE ( 'NONE', #487, #893, #556, .T. ) ;
#857 = AXIS2_PLACEMENT_3D ( 'NONE', #298, #505, #5 ) ;
#858 = DIRECTION ( 'NONE',  ( -0.000000000000000000, -0.000000000000000000, 1.000000000000000000 ) ) ;
#859 = CARTESIAN_POINT ( 'NONE',  ( -19.14146106821090143, -0.000000000000000000, 13.48452350954438650 ) ) ;
#860 = DIRECTION ( 'NONE',  ( -0.000000000000000000, -0.000000000000000000, -1.000000000000000000 ) ) ;
#861 = DIRECTION ( 'NONE',  ( -0.000000000000000000, -0.000000000000000000, -1.000000000000000000 ) ) ;
#862 = CIRCLE ( 'NONE', #816, 8.099999999999999645 ) ;
#863 = AXIS2_PLACEMENT_3D ( 'NONE', #250, #605, #827 ) ;
#864 = CARTESIAN_POINT ( 'NONE',  ( -19.77474804345268566, 0.000000000000000000, 13.69999999999999751 ) ) ;
#865 = DIRECTION ( 'NONE',  ( 0.000000000000000000, 0.000000000000000000, -1.000000000000000000 ) ) ;
#866 = DIRECTION ( 'NONE',  ( -0.000000000000000000, -0.000000000000000000, -1.000000000000000000 ) ) ;
#867 = ORIENTED_EDGE ( 'NONE', *, *, #789, .T. ) ;
#868 = CARTESIAN_POINT ( 'NONE',  ( -19.55736206015084022, -0.000000000000000000, 10.34320465898919217 ) ) ;
#869 = CARTESIAN_POINT ( 'NONE',  ( 15.69999999999999929, 60.00000000000000000, -6.000000000000000152E-06 ) ) ;
#870 = CARTESIAN_POINT ( 'NONE',  ( 8.099999999999999645, 60.00000000000000000, 5.200000000000000178 ) ) ;
#871 = ORIENTED_EDGE ( 'NONE', *, *, #470, .F. ) ;
#872 = ADVANCED_FACE ( 'NONE', ( #59 ), #922, .F. ) ;
#873 = VECTOR ( 'NONE', #438, 1000.000000000000000 ) ;
#874 = DIRECTION ( 'NONE',  ( 1.000000000000000000, 0.000000000000000000, 0.000000000000000000 ) ) ;
#875 = FACE_OUTER_BOUND ( 'NONE', #793, .T. ) ;
#876 = VERTEX_POINT ( 'NONE', #95 ) ;
#877 = APPROVAL ( #180, '未' ) ;
#878 = VECTOR ( 'NONE', #484, 1000.000000000000000 ) ;
#879 = CARTESIAN_POINT ( 'NONE',  ( -20.00000000000000000, 8.000000000000000000, 12.00000000000000000 ) ) ;
#880 = LINE ( 'NONE', #100, #634 ) ;
#881 = EDGE_LOOP ( 'NONE', ( #453, #647, #631, #824 ) ) ;
#882 = CARTESIAN_POINT ( 'NONE',  ( 21.65679534101155568, -0.000000000000000000, 12.44263793984301714 ) ) ;
#883 = DIRECTION ( 'NONE',  ( 0.000000000000000000, 0.000000000000000000, -1.000000000000000000 ) ) ;
#884 = VERTEX_POINT ( 'NONE', #586 ) ;
#885 = CC_DESIGN_PERSON_AND_ORGANIZATION_ASSIGNMENT ( #105, #402, ( #772 ) ) ;
#886 = DIRECTION ( 'NONE',  ( -0.000000000000000000, 1.000000000000000000, -0.000000000000000000 ) ) ;
#887 = LINE ( 'NONE', #244, #145 ) ;
#888 = ORIENTED_EDGE ( 'NONE', *, *, #325, .F. ) ;
#889 = VECTOR ( 'NONE', #317, 1000.000000000000000 ) ;
#890 = AXIS2_PLACEMENT_3D ( 'NONE', #148, #866, #787 ) ;
#891 = CYLINDRICAL_SURFACE ( 'NONE', #32, 1.700000000000000178 ) ;
#892 = DIRECTION ( 'NONE',  ( 0.000000000000000000, 0.000000000000000000, -1.000000000000000000 ) ) ;
#893 = VERTEX_POINT ( 'NONE', #314 ) ;
#894 = DIRECTION ( 'NONE',  ( -0.000000000000000000, 1.000000000000000000, -0.000000000000000000 ) ) ;
#895 = COORDINATED_UNIVERSAL_TIME_OFFSET ( 5, 0, .BEHIND. ) ;
#896 = DIRECTION ( 'NONE',  ( -0.000000000000000000, -0.000000000000000000, 1.000000000000000000 ) ) ;
#897 = ORIENTED_EDGE ( 'NONE', *, *, #139, .F. ) ;
#898 = ADVANCED_FACE ( 'NONE', ( #305 ), #592, .F. ) ;
#899 = EDGE_CURVE ( 'NONE', #436, #27, #880, .T. ) ;
#900 = CARTESIAN_POINT ( 'NONE',  ( 20.22525195654657182, 0.000000000000000000, 13.69999999999999751 ) ) ;
#901 = CARTESIAN_POINT ( 'NONE',  ( -14.00000000000000000, 60.00000000000000000, -1.200000000000000030E-05 ) ) ;
#902 = ORIENTED_EDGE ( 'NONE', *, *, #925, .T. ) ;
#903 = PERSON ( '未', '未', '未', ('未'), ('未'), ('未') ) ;
#904 = DIRECTION ( 'NONE',  ( -1.000000000000000000, -0.000000000000000000, -0.000000000000000000 ) ) ;
#905 = CARTESIAN_POINT ( 'NONE',  ( -20.00000000000000000, -6.000000000000000152E-06, 10.30000000000000071 ) ) ;
#906 = EDGE_LOOP ( 'NONE', ( #715, #597 ) ) ;
#907 = DIRECTION ( 'NONE',  ( 0.000000000000000000, -0.000000000000000000, 1.000000000000000000 ) ) ;
#908 = APPROVAL_DATE_TIME ( #112, #877 ) ;
#909 = CARTESIAN_POINT ( 'NONE',  ( -28.00000000000000000, 8.000000000000000000, 0.000000000000000000 ) ) ;
#910 = ORIENTED_EDGE ( 'NONE', *, *, #712, .T. ) ;
#911 = EDGE_CURVE ( 'NONE', #800, #852, #582, .T. ) ;
#912 = CARTESIAN_POINT ( 'NONE',  ( 18.30006951123504777, 0.000000000000000000, 11.77491600511191550 ) ) ;
#913 = CARTESIAN_POINT ( 'NONE',  ( -5.799999999999999822, 60.00000000000000000, -1.200000000000000030E-05 ) ) ;
#914 = VERTEX_POINT ( 'NONE', #870 ) ;
#915 = CARTESIAN_POINT ( 'NONE',  ( -8.099999999999999645, 60.00000000000000000, 5.200000000000000178 ) ) ;
#916 = CLOSED_SHELL ( 'NONE', ( #441, #89, #563, #301, #898, #356, #242, #633, #590, #344, #534, #739, #512, #313, #782, #656, #109, #558, #386, #132, #872, #193, #663 ) ) ;
#917 = VECTOR ( 'NONE', #930, 1000.000000000000000 ) ;
#918 = CARTESIAN_POINT ( 'NONE',  ( -21.65666690099477876, 0.000000000000000000, 12.44258473825066957 ) ) ;
#919 = DIRECTION ( 'NONE',  ( 0.000000000000000000, -1.000000000000000000, 0.000000000000000000 ) ) ;
#920 = ORIENTED_EDGE ( 'NONE', *, *, #256, .T. ) ;
#921 = AXIS2_PLACEMENT_3D ( 'NONE', #21, #826, #477 ) ;
#922 = CYLINDRICAL_SURFACE ( 'NONE', #33, 8.099999999999999645 ) ;
#923 = EDGE_CURVE ( 'NONE', #413, #409, #523, .T. ) ;
#924 = CYLINDRICAL_SURFACE ( 'NONE', #502, 1.699999999999998401 ) ;
#925 = EDGE_CURVE ( 'NONE', #695, #884, #809, .T. ) ;
#926 = CARTESIAN_POINT ( 'NONE',  ( -22.00000000000000000, 74.00000000000000000, 0.000000000000000000 ) ) ;
#927 = ORIENTED_EDGE ( 'NONE', *, *, #119, .F. ) ;
#928 = DIRECTION ( 'NONE',  ( 1.000000000000000000, 0.000000000000000000, 0.000000000000000000 ) ) ;
#929 = CARTESIAN_POINT ( 'NONE',  ( -18.29993048876421113, -0.000000000000000000, 11.77491600511370429 ) ) ;
#930 = DIRECTION ( 'NONE',  ( -0.000000000000000000, -1.000000000000000000, -0.000000000000000000 ) ) ;
#931 = CARTESIAN_POINT ( 'NONE',  ( 12.30000000000000249, 60.00000000000000000, -6.000000000000000152E-06 ) ) ;
ENDSEC;
END-ISO-10303-21;
